<svg width="400" height="600" viewBox="0 0 400 600" fill="none" xmlns="http://www.w3.org/2000/svg">
<rect width="400" height="600" rx="20" fill="#323232"/>
<rect x="12.5" y="12.5" width="375" height="575" rx="17.5" stroke="#F1E2C3" stroke-width="5" stroke-linecap="round"/>
<path fill-rule="evenodd" clip-rule="evenodd" d="M272.432 590C282.247 564.669 288 533.905 288 500.734C288 414.172 248.825 344 200.5 344C152.175 344 113 414.172 113 500.734C113 533.905 118.753 564.669 128.568 590H272.432Z" fill="#F1E2C3"/>
<circle cx="200" cy="300" r="75" fill="#F1E2C3"/>
<path fill-rule="evenodd" clip-rule="evenodd" d="M173.5 22.3704C177.297 20.9517 180 17.2915 180 13C180 8.70847 177.297 5.04834 173.5 3.62961C174.589 3.22255 175.769 3 177 3C182.523 3 187 7.47715 187 13C187 18.5228 182.523 23 177 23C175.769 23 174.589 22.7775 173.5 22.3704Z" fill="#F1E2C3"/>
<path fill-rule="evenodd" clip-rule="evenodd" d="M161.75 22.8474C166.438 22.0199 170 17.9259 170 13C170 8.07415 166.438 3.98014 161.75 3.15261C162.318 3.05231 162.903 3 163.5 3C169.023 3 173.5 7.47715 173.5 13C173.5 18.5228 169.023 23 163.5 23C162.903 23 162.318 22.9477 161.75 22.8474Z" fill="#F1E2C3"/>
<path fill-rule="evenodd" clip-rule="evenodd" d="M227 3.83209C223.468 5.37521 221 8.89937 221 13C221 17.1006 223.468 20.6248 227 22.1679C225.775 22.7031 224.422 23 223 23C217.477 23 213 18.5228 213 13C213 7.47716 217.477 3 223 3C224.422 3 225.775 3.2969 227 3.83209Z" fill="#F1E2C3"/>
<path fill-rule="evenodd" clip-rule="evenodd" d="M237.5 3.11175C232.689 3.83548 229 7.98696 229 13C229 18.013 232.689 22.1645 237.5 22.8883C237.011 22.9619 236.51 23 236 23C230.477 23 226 18.5228 226 13C226 7.47715 230.477 3 236 3C236.51 3 237.011 3.03815 237.5 3.11175Z" fill="#F1E2C3"/>
<mask id="path-9-outside-1_17_30" maskUnits="userSpaceOnUse" x="155" y="323" width="46" height="26" fill="black">
<rect fill="white" x="155" y="323" width="46" height="26"/>
<path d="M198 326C198 328.626 197.483 331.227 196.478 333.654C195.472 336.08 193.999 338.285 192.142 340.142C190.285 341.999 188.08 343.472 185.654 344.478C183.227 345.483 180.626 346 178 346C175.374 346 172.773 345.483 170.346 344.478C167.92 343.472 165.715 341.999 163.858 340.142C162.001 338.285 160.528 336.08 159.522 333.654C158.517 331.227 158 328.626 158 326L178 326H198Z"/>
</mask>
<path d="M198 326C198 328.626 197.483 331.227 196.478 333.654C195.472 336.08 193.999 338.285 192.142 340.142C190.285 341.999 188.08 343.472 185.654 344.478C183.227 345.483 180.626 346 178 346C175.374 346 172.773 345.483 170.346 344.478C167.92 343.472 165.715 341.999 163.858 340.142C162.001 338.285 160.528 336.08 159.522 333.654C158.517 331.227 158 328.626 158 326L178 326H198Z" fill="#F1E2C3"/>
<path d="M198 326C198 328.626 197.483 331.227 196.478 333.654C195.472 336.08 193.999 338.285 192.142 340.142C190.285 341.999 188.08 343.472 185.654 344.478C183.227 345.483 180.626 346 178 346C175.374 346 172.773 345.483 170.346 344.478C167.92 343.472 165.715 341.999 163.858 340.142C162.001 338.285 160.528 336.08 159.522 333.654C158.517 331.227 158 328.626 158 326L178 326H198Z" stroke="#323232" stroke-width="6" mask="url(#path-9-outside-1_17_30)"/>
<mask id="path-10-outside-2_17_30" maskUnits="userSpaceOnUse" x="199" y="323" width="46" height="26" fill="black">
<rect fill="white" x="199" y="323" width="46" height="26"/>
<path d="M242 326C242 331.304 239.893 336.391 236.142 340.142C232.391 343.893 227.304 346 222 346C216.696 346 211.609 343.893 207.858 340.142C204.107 336.391 202 331.304 202 326L222 326H242Z"/>
</mask>
<path d="M242 326C242 331.304 239.893 336.391 236.142 340.142C232.391 343.893 227.304 346 222 346C216.696 346 211.609 343.893 207.858 340.142C204.107 336.391 202 331.304 202 326L222 326H242Z" fill="#F1E2C3"/>
<path d="M242 326C242 331.304 239.893 336.391 236.142 340.142C232.391 343.893 227.304 346 222 346C216.696 346 211.609 343.893 207.858 340.142C204.107 336.391 202 331.304 202 326L222 326H242Z" stroke="#323232" stroke-width="6" mask="url(#path-10-outside-2_17_30)"/>
<circle cx="178" cy="326" r="20" fill="#F1E2C3"/>
<circle cx="222" cy="325" r="20" fill="#F1E2C3"/>
<circle cx="169" cy="289" r="20" fill="#323232"/>
<circle cx="231" cy="289" r="20" fill="#323232"/>
<path d="M131.476 205.75L187.726 238.226L131.476 270.702L131.476 205.75Z" fill="#F1E2C3"/>
<path d="M268.976 205.75L268.976 270.702L212.726 238.226L268.976 205.75Z" fill="#F1E2C3"/>
<path fill-rule="evenodd" clip-rule="evenodd" d="M209.168 10.5666L209.33 10.6603V2L203.676 5.26414C202.538 4.81401 201.298 4.56667 200 4.56667C198.715 4.56667 197.488 4.80886 196.359 5.25006L190.73 2.00001L190.73 10.6603L190.812 10.613C190.289 11.8257 190 13.1624 190 14.5667C190 20.0895 194.477 24.5667 200 24.5667C205.523 24.5667 210 20.0895 210 14.5667C210 13.1444 209.703 11.7915 209.168 10.5666Z" fill="#F1E2C3"/>
<path d="M200 327L187.01 312H212.99L200 327Z" fill="#323232"/>
<path d="M25.0001 14C57.0001 179.5 100.455 175.498 137.5 14" stroke="#F1E2C3" stroke-width="3" stroke-dasharray="1 6"/>
<path d="M40 14C142.808 128.055 194.653 127.242 277.085 14M154.984 14C230.201 160.418 267.187 316.123 374 14" stroke="#F1E2C3" stroke-width="3" stroke-linecap="round" stroke-dasharray="1 6"/>
<path d="M299.5 12.5C316.158 144.785 337.734 176.571 387.5 155.5M12 207.5C52.3882 212.296 75.0469 180.097 115.5 12.5" stroke="#F1E2C3" stroke-width="3" stroke-linecap="round" stroke-dasharray="1 6"/>
<path d="M67 327L70.3677 337.365H81.2658L72.4491 343.771L75.8168 354.135L67 347.729L58.1832 354.135L61.5509 343.771L52.7342 337.365H63.6323L67 327Z" fill="#F1E2C3"/>
<path d="M37.5 159L39.1839 164.182H44.6329L40.2245 167.385L41.9084 172.568L37.5 169.365L33.0916 172.568L34.7755 167.385L30.3671 164.182H35.8161L37.5 159Z" fill="#F1E2C3"/>
<path d="M316.5 509L318.184 514.182H323.633L319.225 517.385L320.908 522.568L316.5 519.365L312.092 522.568L313.775 517.385L309.367 514.182H314.816L316.5 509Z" fill="#F1E2C3"/>
<path d="M60 471.618L62.8922 480.519L63.0044 480.865H63.3677H72.727L65.1552 486.366L64.8613 486.58L64.9735 486.925L67.8657 495.826L60.2939 490.325L60 490.111L59.7061 490.325L52.1343 495.826L55.0265 486.925L55.1387 486.58L54.8448 486.366L47.273 480.865H56.6323H56.9956L57.1078 480.519L60 471.618Z" stroke="#F1E2C3"/>
<path d="M308.5 358.618L309.708 362.337L309.821 362.682H310.184H314.094L310.931 364.981L310.637 365.194L310.749 365.54L311.957 369.259L308.794 366.96L308.5 366.747L308.206 366.96L305.043 369.259L306.251 365.54L306.363 365.194L306.069 364.981L302.906 362.682H306.816H307.179L307.292 362.337L308.5 358.618Z" stroke="#F1E2C3"/>
<path d="M74.5 211.618L75.7083 215.337L75.8206 215.682H76.1839H80.0941L76.9306 217.981L76.6367 218.194L76.749 218.54L77.9573 222.259L74.7939 219.96L74.5 219.747L74.2061 219.96L71.0427 222.259L72.251 218.54L72.3633 218.194L72.0694 217.981L68.9059 215.682H72.8161H73.1794L73.2917 215.337L74.5 211.618Z" stroke="#F1E2C3"/>
<path d="M331 226.618L333.892 235.519L334.004 235.865H334.368H343.727L336.155 241.366L335.861 241.58L335.974 241.925L338.866 250.826L331.294 245.325L331 245.111L330.706 245.325L323.134 250.826L326.026 241.925L326.139 241.58L325.845 241.366L318.273 235.865H327.632H327.996L328.108 235.519L331 226.618Z" stroke="#F1E2C3"/>
<path d="M275 91.618L277.892 100.519L278.004 100.865H278.368H287.727L280.155 106.366L279.861 106.58L279.974 106.925L282.866 115.826L275.294 110.325L275 110.111L274.706 110.325L267.134 115.826L270.026 106.925L270.139 106.58L269.845 106.366L262.273 100.865H271.632H271.996L272.108 100.519L275 91.618Z" stroke="#F1E2C3"/>
<path d="M185 129L188.368 139.365H199.266L190.449 145.771L193.817 156.135L185 149.729L176.183 156.135L179.551 145.771L170.734 139.365H181.632L185 129Z" fill="#F1E2C3"/>
<path d="M346 429L349.368 439.365H360.266L351.449 445.771L354.817 456.135L346 449.729L337.183 456.135L340.551 445.771L331.734 439.365H342.632L346 429Z" fill="#F1E2C3"/>
</svg>
