<svg width="400" height="600" viewBox="0 0 400 600" fill="none" xmlns="http://www.w3.org/2000/svg">
<rect width="400" height="600" rx="20" fill="#323232"/>
<rect x="12.5" y="12.5" width="375" height="575" rx="17.5" stroke="#F1E2C3" stroke-width="5" stroke-linecap="round"/>
<path fill-rule="evenodd" clip-rule="evenodd" d="M272.432 590C282.247 564.669 288 533.905 288 500.734C288 414.172 248.825 344 200.5 344C152.175 344 113 414.172 113 500.734C113 533.905 118.753 564.669 128.568 590H272.432Z" fill="#F1E2C3"/>
<circle cx="200" cy="300" r="75" fill="#F1E2C3"/>
<path fill-rule="evenodd" clip-rule="evenodd" d="M173.5 22.3704C177.297 20.9517 180 17.2915 180 13C180 8.70847 177.297 5.04834 173.5 3.62961C174.589 3.22255 175.769 3 177 3C182.523 3 187 7.47715 187 13C187 18.5228 182.523 23 177 23C175.769 23 174.589 22.7775 173.5 22.3704Z" fill="#F1E2C3"/>
<path fill-rule="evenodd" clip-rule="evenodd" d="M161.75 22.8474C166.438 22.0199 170 17.9258 170 13C170 8.07415 166.438 3.98014 161.75 3.15261C162.318 3.05231 162.903 3 163.5 3C169.023 3 173.5 7.47715 173.5 13C173.5 18.5228 169.023 23 163.5 23C162.903 23 162.318 22.9477 161.75 22.8474Z" fill="#F1E2C3"/>
<path fill-rule="evenodd" clip-rule="evenodd" d="M227 3.83209C223.468 5.3752 221 8.89936 221 13C221 17.1006 223.468 20.6248 227 22.1679C225.775 22.7031 224.422 23 223 23C217.477 23 213 18.5228 213 13C213 7.47715 217.477 3 223 3C224.422 3 225.775 3.2969 227 3.83209Z" fill="#F1E2C3"/>
<path fill-rule="evenodd" clip-rule="evenodd" d="M237.5 3.11175C232.689 3.83548 229 7.98696 229 13C229 18.013 232.689 22.1645 237.5 22.8883C237.011 22.9619 236.51 23 236 23C230.477 23 226 18.5228 226 13C226 7.47715 230.477 3 236 3C236.51 3 237.011 3.03815 237.5 3.11175Z" fill="#F1E2C3"/>
<mask id="path-9-outside-1_17_30" maskUnits="userSpaceOnUse" x="155" y="323" width="46" height="26" fill="black">
<rect fill="white" x="155" y="323" width="46" height="26"/>
<path d="M198 326C198 328.626 197.483 331.227 196.478 333.654C195.472 336.08 193.999 338.285 192.142 340.142C190.285 341.999 188.08 343.472 185.654 344.478C183.227 345.483 180.626 346 178 346C175.374 346 172.773 345.483 170.346 344.478C167.92 343.472 165.715 341.999 163.858 340.142C162.001 338.285 160.528 336.08 159.522 333.654C158.517 331.227 158 328.626 158 326L178 326H198Z"/>
</mask>
<path d="M198 326C198 328.626 197.483 331.227 196.478 333.654C195.472 336.08 193.999 338.285 192.142 340.142C190.285 341.999 188.08 343.472 185.654 344.478C183.227 345.483 180.626 346 178 346C175.374 346 172.773 345.483 170.346 344.478C167.92 343.472 165.715 341.999 163.858 340.142C162.001 338.285 160.528 336.08 159.522 333.654C158.517 331.227 158 328.626 158 326L178 326H198Z" fill="#F1E2C3"/>
<path d="M198 326C198 328.626 197.483 331.227 196.478 333.654C195.472 336.08 193.999 338.285 192.142 340.142C190.285 341.999 188.08 343.472 185.654 344.478C183.227 345.483 180.626 346 178 346C175.374 346 172.773 345.483 170.346 344.478C167.92 343.472 165.715 341.999 163.858 340.142C162.001 338.285 160.528 336.08 159.522 333.654C158.517 331.227 158 328.626 158 326L178 326H198Z" stroke="#323232" stroke-width="6" mask="url(#path-9-outside-1_17_30)"/>
<mask id="path-10-outside-2_17_30" maskUnits="userSpaceOnUse" x="199" y="323" width="46" height="26" fill="black">
<rect fill="white" x="199" y="323" width="46" height="26"/>
<path d="M242 326C242 331.304 239.893 336.391 236.142 340.142C232.391 343.893 227.304 346 222 346C216.696 346 211.609 343.893 207.858 340.142C204.107 336.391 202 331.304 202 326L222 326H242Z"/>
</mask>
<path d="M242 326C242 331.304 239.893 336.391 236.142 340.142C232.391 343.893 227.304 346 222 346C216.696 346 211.609 343.893 207.858 340.142C204.107 336.391 202 331.304 202 326L222 326H242Z" fill="#F1E2C3"/>
<path d="M242 326C242 331.304 239.893 336.391 236.142 340.142C232.391 343.893 227.304 346 222 346C216.696 346 211.609 343.893 207.858 340.142C204.107 336.391 202 331.304 202 326L222 326H242Z" stroke="#323232" stroke-width="6" mask="url(#path-10-outside-2_17_30)"/>
<circle cx="178" cy="326" r="20" fill="#F1E2C3"/>
<circle cx="222" cy="325" r="20" fill="#F1E2C3"/>
<circle cx="169" cy="289" r="20" fill="#323232"/>
<circle cx="231" cy="289" r="20" fill="#323232"/>
<path d="M131.476 205.75L187.726 238.226L131.476 270.702L131.476 205.75Z" fill="#F1E2C3"/>
<path d="M268.976 205.75L268.976 270.702L212.726 238.226L268.976 205.75Z" fill="#F1E2C3"/>
<path fill-rule="evenodd" clip-rule="evenodd" d="M209.168 10.5666L209.33 10.6602V2L203.676 5.26414C202.538 4.81401 201.298 4.56667 200 4.56667C198.715 4.56667 197.488 4.80885 196.359 5.25005L190.73 2L190.73 10.6603L190.812 10.613C190.289 11.8257 190 13.1624 190 14.5667C190 20.0895 194.477 24.5667 200 24.5667C205.523 24.5667 210 20.0895 210 14.5667C210 13.1444 209.703 11.7915 209.168 10.5666Z" fill="#F1E2C3"/>
<path d="M200 327L187.01 312H212.99L200 327Z" fill="#323232"/>
<path d="M41.1142 12.9957C40.5595 12.3804 39.611 12.3312 38.9957 12.8858C38.3804 13.4405 38.3312 14.389 38.8858 15.0043L41.1142 12.9957ZM278.298 14.8828C278.786 14.213 278.638 13.2748 277.968 12.7873C277.298 12.2997 276.36 12.4474 275.873 13.1172L278.298 14.8828ZM156.318 13.3146C155.939 12.5777 155.035 12.2872 154.298 12.6658C153.561 13.0443 153.271 13.9485 153.649 14.6854L156.318 13.3146ZM375.414 14.5C375.69 13.7189 375.281 12.8619 374.5 12.5858C373.719 12.3096 372.862 12.719 372.586 13.5L375.414 14.5ZM23.6257 14.7923C23.7834 15.6055 24.5705 16.137 25.3838 15.9793C26.197 15.8216 26.7285 15.0345 26.5708 14.2212L23.6257 14.7923ZM27.7518 20.2094C27.5889 19.3972 26.7983 18.8708 25.9861 19.0338C25.1738 19.1967 24.6475 19.9873 24.8104 20.7995L27.7518 20.2094ZM25.0089 21.7859C25.1728 22.598 25.9639 23.1235 26.776 22.9596C27.588 22.7958 28.1135 22.0046 27.9496 21.1926L25.0089 21.7859ZM29.1423 27.0021C28.9729 26.1912 28.1782 25.6711 27.3673 25.8405C26.5563 26.0099 26.0363 26.8046 26.2057 27.6155L29.1423 27.0021ZM26.4061 28.5724C26.5764 29.3831 27.3717 29.9022 28.1825 29.7319C28.9932 29.5616 29.5123 28.7663 29.342 27.9555L26.4061 28.5724ZM30.6158 33.9072C30.4393 33.0978 29.6401 32.5847 28.8307 32.7612C28.0212 32.9377 27.5082 33.7369 27.6847 34.5463L30.6158 33.9072ZM27.9006 35.5336C28.0782 36.3428 28.8781 36.8548 29.6872 36.6773C30.4964 36.4997 31.0084 35.6998 30.8309 34.8906L27.9006 35.5336ZM32.1278 40.6897C31.9436 39.882 31.1396 39.3765 30.3319 39.5606C29.5242 39.7448 29.0187 40.5488 29.2028 41.3565L32.1278 40.6897ZM29.4209 42.3102C29.6061 43.1177 30.4109 43.622 31.2183 43.4368C32.0258 43.2516 32.5302 42.4468 32.3449 41.6394L29.4209 42.3102ZM33.7294 47.5518C33.5368 46.746 32.7275 46.249 31.9218 46.4416C31.1161 46.6343 30.619 47.4436 30.8116 48.2493L33.7294 47.5518ZM31.0476 49.2326C31.2415 50.0381 32.0516 50.5338 32.857 50.3399C33.6624 50.146 34.1581 49.3359 33.9642 48.5305L31.0476 49.2326ZM35.3797 54.2867C35.1778 53.4832 34.3628 52.9955 33.5594 53.1973C32.7559 53.3992 32.2682 54.2142 32.4701 55.0176L35.3797 54.2867ZM32.7083 55.9626C32.9115 56.7657 33.7273 57.252 34.5305 57.0488C35.3336 56.8456 35.8199 56.0298 35.6167 55.2267L32.7083 55.9626ZM37.144 61.1241C36.9317 60.3233 36.1104 59.8463 35.3096 60.0586C34.5089 60.271 34.0319 61.0922 34.2442 61.893L37.144 61.1241ZM34.503 62.8654C34.7169 63.6658 35.5391 64.1412 36.3395 63.9273C37.1398 63.7134 37.6152 62.8912 37.4013 62.0908L34.503 62.8654ZM38.953 67.759C38.7293 66.9613 37.9013 66.4961 37.1037 66.7199C36.306 66.9436 35.8408 67.7716 36.0645 68.5693L38.953 67.759ZM36.3472 69.5722C36.5728 70.3694 37.4018 70.8327 38.1989 70.6071C38.9961 70.3815 39.4594 69.5524 39.2338 68.7553L36.3472 69.5722ZM40.9261 74.5766C40.689 73.7828 39.8533 73.3316 39.0595 73.5687C38.2657 73.8059 37.8145 74.6416 38.0517 75.4353L40.9261 74.5766ZM38.3372 76.3867C38.5764 77.1799 39.4132 77.629 40.2064 77.3898C40.9995 77.1507 41.4486 76.3138 41.2095 75.5207L38.3372 76.3867ZM42.9794 81.2236C42.7272 80.4345 41.8831 79.9993 41.094 80.2515C40.3049 80.5037 39.8696 81.3479 40.1218 82.137L42.9794 81.2236ZM40.4354 83.113C40.69 83.9014 41.5355 84.334 42.3238 84.0794C43.1122 83.8248 43.5448 82.9793 43.2902 82.191L40.4354 83.113ZM45.1635 87.8104C44.8938 87.0271 44.0402 86.6108 43.2569 86.8805C42.4736 87.1502 42.0572 88.0038 42.3269 88.7871L45.1635 87.8104ZM42.6438 89.7025C42.9162 90.4849 43.7712 90.8983 44.5536 90.626C45.3359 90.3536 45.7494 89.4986 45.4771 88.7162L42.6438 89.7025ZM47.5412 94.4344C47.2505 93.6587 46.386 93.2654 45.6103 93.5561C44.8345 93.8468 44.4413 94.7113 44.7319 95.4871L47.5412 94.4344ZM45.0824 96.4164C45.3763 97.1909 46.2425 97.5805 47.017 97.2866C47.7915 96.9927 48.1811 96.1265 47.8872 95.352L45.0824 96.4164ZM50.0852 100.912C49.7695 100.147 48.8926 99.7817 48.1267 100.097C47.3608 100.413 46.9959 101.29 47.3117 102.056L50.0852 100.912ZM47.7021 102.996C48.0219 103.76 48.9007 104.12 49.6649 103.8C50.4291 103.481 50.7893 102.602 50.4695 101.838L47.7021 102.996ZM52.8442 107.251C52.4976 106.499 51.6067 106.17 50.8542 106.516C50.1018 106.863 49.7728 107.754 50.1195 108.506L52.8442 107.251ZM50.558 109.45C50.9098 110.2 51.803 110.523 52.553 110.171C53.303 109.819 53.6259 108.926 53.274 108.176L50.558 109.45ZM55.8869 113.441C55.501 112.708 54.5939 112.427 53.8608 112.812C53.1278 113.198 52.8464 114.105 53.2323 114.838L55.8869 113.441ZM53.7297 115.773C54.1224 116.502 55.0321 116.775 55.7615 116.382C56.4909 115.99 56.7639 115.08 56.3711 114.35L53.7297 115.773ZM59.309 119.434C58.8708 118.731 57.9457 118.516 57.2426 118.954C56.5395 119.392 56.3248 120.317 56.763 121.021L59.309 119.434ZM57.3332 121.922C57.7807 122.619 58.7086 122.822 59.4058 122.374C60.103 121.927 60.3054 120.999 59.8579 120.302L57.3332 121.922ZM63.2381 125.09C62.7271 124.438 61.7843 124.323 61.1322 124.834C60.4801 125.345 60.3657 126.288 60.8767 126.94L63.2381 125.09ZM61.5381 127.767C62.062 128.409 63.0069 128.504 63.6487 127.981C64.2904 127.457 64.3859 126.512 63.862 125.87L61.5381 127.767ZM67.818 130.077C67.2031 129.522 66.2546 129.57 65.6994 130.185C65.1442 130.8 65.1926 131.749 65.8074 132.304L67.818 130.077ZM66.5844 132.983C67.2168 133.518 68.1632 133.439 68.6983 132.807C69.2334 132.175 69.1546 131.228 68.5221 130.693L66.5844 132.983ZM73.1743 133.757C72.4249 133.404 71.5311 133.725 71.1781 134.475C70.825 135.224 71.1463 136.118 71.8958 136.471L73.1743 133.757ZM72.9139 136.915C73.6827 137.224 74.5562 136.851 74.865 136.083C75.1739 135.314 74.8011 134.44 74.0323 134.132L72.9139 136.915ZM79.2836 135.126C78.4554 135.145 77.7993 135.831 77.8181 136.659C77.8369 137.488 78.5236 138.144 79.3518 138.125L79.2836 135.126ZM80.4463 138.061C81.2711 137.984 81.8772 137.253 81.8001 136.428C81.723 135.603 80.9918 134.997 80.167 135.074L80.4463 138.061ZM85.3652 133.526C84.6239 133.895 84.3228 134.796 84.6927 135.537C85.0626 136.279 85.9633 136.58 86.7046 136.21L85.3652 133.526ZM87.6681 135.699C88.3903 135.293 88.6467 134.379 88.2409 133.656C87.835 132.934 86.9205 132.678 86.1983 133.084L87.6681 135.699ZM90.7344 129.769C90.1179 130.322 90.0667 131.271 90.6201 131.887C91.1735 132.504 92.1219 132.555 92.7384 132.001L90.7344 129.769ZM93.502 131.296C94.103 130.726 94.1279 129.777 93.5578 129.176C92.9876 128.575 92.0382 128.55 91.4372 129.12L93.502 131.296ZM95.3675 124.834C94.8453 125.477 94.9434 126.422 95.5865 126.944C96.2297 127.466 97.1744 127.368 97.6965 126.725L95.3675 124.834ZM98.358 125.895C98.8688 125.243 98.7543 124.3 98.1021 123.789C97.4499 123.279 96.5071 123.393 95.9963 124.045L98.358 125.895ZM99.4109 119.27C98.9557 119.962 99.1477 120.892 99.8398 121.347C100.532 121.802 101.462 121.61 101.917 120.918L99.4109 119.27ZM102.497 120.026C102.944 119.328 102.741 118.4 102.043 117.953C101.346 117.506 100.418 117.709 99.971 118.407L102.497 120.026ZM102.992 113.367C102.586 114.089 102.841 115.004 103.563 115.41C104.285 115.817 105.2 115.561 105.606 114.839L102.992 113.367ZM106.119 113.919C106.52 113.194 106.256 112.281 105.531 111.881C104.806 111.481 103.893 111.744 103.493 112.469L106.119 113.919ZM106.224 107.254C105.855 107.996 106.156 108.896 106.898 109.266C107.639 109.635 108.54 109.333 108.909 108.592L106.224 107.254ZM109.368 107.664C109.732 106.92 109.425 106.022 108.681 105.657C107.937 105.292 107.039 105.6 106.674 106.344L109.368 107.664ZM109.191 100.979C108.851 101.735 109.188 102.623 109.943 102.963C110.699 103.303 111.587 102.966 111.927 102.211L109.191 100.979ZM112.34 101.286C112.676 100.529 112.335 99.6424 111.578 99.3062C110.821 98.97 109.935 99.3112 109.598 100.068L112.34 101.286ZM111.956 94.5564C111.64 95.3223 112.005 96.1992 112.77 96.5151C113.536 96.831 114.413 96.4662 114.729 95.7004L111.956 94.5564ZM115.105 94.7848C115.418 94.0177 115.049 93.1422 114.282 92.8294C113.515 92.5165 112.64 92.8847 112.327 93.6518L115.105 94.7848ZM114.551 88.0165C114.255 88.7904 114.642 89.6575 115.416 89.9532C116.19 90.2489 117.057 89.8614 117.353 89.0875L114.551 88.0165ZM117.709 88.1515C118.002 87.3767 117.612 86.5109 116.837 86.2178C116.062 85.9246 115.196 86.315 114.903 87.0899L117.709 88.1515ZM116.941 81.5488C116.662 82.3288 117.068 83.1873 117.848 83.4663C118.628 83.7453 119.487 83.3391 119.766 82.5591L116.941 81.5488ZM120.108 81.5984C120.384 80.8175 119.976 79.9602 119.195 79.6835C118.414 79.4067 117.557 79.8154 117.28 80.5962L120.108 81.5984ZM119.236 74.9311C118.972 75.7163 119.394 76.567 120.179 76.8313C120.964 77.0956 121.815 76.6734 122.079 75.8882L119.236 74.9311ZM122.394 74.9494C122.656 74.1636 122.232 73.3139 121.446 73.0515C120.661 72.7892 119.811 73.2134 119.549 73.9992L122.394 74.9494ZM121.42 68.2594C121.169 69.0487 121.605 69.8925 122.394 70.1439C123.183 70.3953 124.027 69.9592 124.279 69.1698L121.42 68.2594ZM124.592 68.1821C124.842 67.3922 124.404 66.5495 123.614 66.2998C122.824 66.0502 121.981 66.4881 121.731 67.278L124.592 68.1821ZM123.477 61.6362C123.237 62.4291 123.685 63.2665 124.477 63.5067C125.27 63.7468 126.108 63.2988 126.348 62.5059L123.477 61.6362ZM126.638 61.5456C126.876 60.7523 126.427 59.9157 125.633 59.6771C124.84 59.4384 124.004 59.8881 123.765 60.6814L126.638 61.5456ZM125.491 54.826C125.261 55.6219 125.72 56.4534 126.516 56.6833C127.311 56.9132 128.143 56.4543 128.373 55.6584L125.491 54.826ZM128.642 54.7228C128.871 53.9266 128.411 53.0958 127.614 52.8672C126.818 52.6387 125.987 53.0989 125.759 53.8952L128.642 54.7228ZM127.364 48.1992C127.143 48.9977 127.611 49.824 128.409 50.0449C129.208 50.2658 130.034 49.7976 130.255 48.9992L127.364 48.1992ZM130.523 48.0269C130.743 47.2281 130.273 46.4025 129.475 46.1829C128.676 45.9632 127.85 46.4327 127.631 47.2315L130.523 48.0269ZM129.217 41.3597C129.004 42.1604 129.481 42.9818 130.282 43.1943C131.082 43.4068 131.904 42.93 132.116 42.1293L129.217 41.3597ZM132.366 41.1838C132.578 40.3828 132.1 39.5621 131.299 39.3507C130.498 39.1393 129.677 39.6172 129.466 40.4182L132.366 41.1838ZM130.958 34.672C130.753 35.4746 131.237 36.2915 132.04 36.4965C132.842 36.7016 133.659 36.2171 133.864 35.4145L130.958 34.672ZM134.113 34.4368C134.317 33.6339 133.832 32.8176 133.029 32.6136C132.226 32.4096 131.41 32.8952 131.206 33.6981L134.113 34.4368ZM132.683 27.7907C132.485 28.5952 132.977 29.4078 133.781 29.6058C134.585 29.8038 135.398 29.3121 135.596 28.5077L132.683 27.7907ZM135.829 27.5577C136.026 26.7531 135.534 25.941 134.729 25.744C133.924 25.5469 133.112 26.0394 132.915 26.8441L135.829 27.5577ZM134.307 21.0784C134.115 21.8844 134.613 22.6931 135.419 22.8848C136.225 23.0764 137.034 22.5785 137.225 21.7725L134.307 21.0784ZM137.457 20.7941C137.648 19.9879 137.149 19.1797 136.343 18.989C135.537 18.7982 134.729 19.297 134.538 20.1032L137.457 20.7941ZM135.923 14.166C135.737 14.9734 136.241 15.7784 137.049 15.964C137.856 16.1496 138.661 15.6456 138.847 14.8383L135.923 14.166ZM39.2309 15.3869C39.7859 16.0019 40.7344 16.0505 41.3494 15.4955C41.9644 14.9405 42.0131 13.992 41.4581 13.377L39.2309 15.3869ZM45.5548 17.885C44.9955 17.274 44.0467 17.232 43.4356 17.7914C42.8245 18.3507 42.7826 19.2995 43.3419 19.9106L45.5548 17.885ZM44.0219 20.6526C44.582 21.263 45.5309 21.3038 46.1413 20.7437C46.7517 20.1836 46.7924 19.2347 46.2323 18.6243L44.0219 20.6526ZM50.3654 23.094C49.8006 22.488 48.8515 22.4546 48.2454 23.0195C47.6394 23.5843 47.606 24.5334 48.1709 25.1395L50.3654 23.094ZM48.8616 25.8795C49.4272 26.4848 50.3764 26.5169 50.9817 25.9512C51.5869 25.3856 51.619 24.4363 51.0534 23.8311L48.8616 25.8795ZM55.2182 28.2498C54.6473 27.6494 53.6979 27.6255 53.0975 28.1963C52.4971 28.7671 52.4732 29.7166 53.044 30.3169L55.2182 28.2498ZM53.7459 31.054C54.3176 31.6535 55.2671 31.676 55.8666 31.1043C56.4661 30.5325 56.4886 29.5831 55.9169 28.9836L53.7459 31.054ZM60.1195 33.3492C59.5421 32.7552 58.5925 32.7417 57.9984 33.3191C57.4044 33.8965 57.3909 34.8462 57.9683 35.4402L60.1195 33.3492ZM58.6817 36.173C59.2601 36.7661 60.2098 36.778 60.8029 36.1996C61.396 35.6212 61.4079 34.6715 60.8294 34.0784L58.6817 36.173ZM65.0765 38.3882C64.4919 37.8013 63.5421 37.7994 62.9552 38.384C62.3682 38.9686 62.3663 39.9184 62.9509 40.5053L65.0765 38.3882ZM63.6764 41.2324C64.2621 41.8182 65.2119 41.8183 65.7977 41.2326C66.3836 40.6469 66.3837 39.6971 65.798 39.1113L63.6764 41.2324ZM70.0964 43.3614C69.5039 42.7824 68.5542 42.7934 67.9752 43.386C67.3963 43.9785 67.4073 44.9282 67.9999 45.5072L70.0964 43.3614ZM68.7379 46.2267C69.3316 46.8044 70.2813 46.7914 70.859 46.1976C71.4367 45.6038 71.4237 44.6542 70.8299 44.0765L68.7379 46.2267ZM75.1933 48.2673C74.592 47.6975 73.6426 47.723 73.0727 48.3243C72.5029 48.9255 72.5284 49.875 73.1297 50.4448L75.1933 48.2673ZM73.8744 51.149C74.4771 51.7174 75.4264 51.6897 75.9948 51.0871C76.5633 50.4845 76.5356 49.5351 75.933 48.9667L73.8744 51.149ZM80.3691 53.0908C79.7581 52.5313 78.8093 52.573 78.2498 53.184C77.6903 53.7949 77.732 54.7437 78.343 55.3032L80.3691 53.0908ZM79.095 55.9902C79.7074 56.5481 80.6561 56.5039 81.214 55.8915C81.7719 55.2791 81.7278 54.3304 81.1154 53.7725L79.095 55.9902ZM85.6263 57.815C85.0047 57.2673 84.0568 57.3273 83.5092 57.9489C82.9616 58.5705 83.0215 59.5183 83.6431 60.066L85.6263 57.815ZM84.409 60.7388C85.0322 61.2846 85.9799 61.2218 86.5257 60.5986C87.0715 59.9754 87.0088 59.0278 86.3856 58.482L84.409 60.7388ZM90.9733 62.4258C90.3399 61.8918 89.3936 61.9723 88.8596 62.6056C88.3256 63.239 88.4061 64.1853 89.0395 64.7193L90.9733 62.4258ZM89.8262 65.3804C90.4613 65.9123 91.4074 65.8286 91.9393 65.1934C92.4711 64.5583 92.3874 63.6122 91.7523 63.0804L89.8262 65.3804ZM96.426 66.9117C95.7797 66.3935 94.8356 66.4973 94.3174 67.1437C93.7992 67.79 93.9031 68.7341 94.5494 69.2523L96.426 66.9117ZM95.3567 69.897C96.0051 70.4128 96.9487 70.3053 97.4644 69.6569C97.9802 69.0086 97.8727 68.065 97.2243 67.5492L95.3567 69.897ZM101.998 71.2545C101.338 70.7547 100.397 70.8852 99.8971 71.5459C99.3973 72.2066 99.5277 73.1473 100.188 73.6471L101.998 71.2545ZM101.011 74.2665C101.674 74.7634 102.614 74.6288 103.111 73.9659C103.608 73.3031 103.473 72.3629 102.81 71.866L101.011 74.2665ZM107.693 75.4225C107.016 74.9443 106.08 75.105 105.602 75.7815C105.124 76.458 105.285 77.394 105.961 77.8722L107.693 75.4225ZM106.799 78.4615C107.478 78.9363 108.413 78.7709 108.888 78.092C109.363 77.4132 109.197 76.4779 108.518 76.0031L106.799 78.4615ZM113.517 79.383C112.823 78.9303 111.893 79.1256 111.441 79.8194C110.988 80.5132 111.183 81.4426 111.877 81.8954L113.517 79.383ZM112.731 82.4493C113.427 82.898 114.356 82.6974 114.805 82.001C115.253 81.3047 115.053 80.3764 114.356 79.9276L112.731 82.4493ZM119.477 83.0976C118.764 82.6749 117.844 82.9099 117.421 83.6223C116.999 84.3348 117.233 85.2551 117.946 85.6777L119.477 83.0976ZM118.816 86.1902C119.531 86.6082 120.45 86.3673 120.868 85.6521C121.286 84.9368 121.045 84.0182 120.33 83.6001L118.816 86.1902ZM125.596 86.531C124.863 86.1441 123.956 86.4242 123.569 87.1567C123.182 87.8893 123.462 88.7968 124.195 89.1837L125.596 86.531ZM125.111 89.6635C125.847 90.0447 126.752 89.7575 127.133 89.022C127.515 88.2865 127.228 87.3813 126.492 87L125.111 89.6635ZM131.893 89.6352C131.14 89.2909 130.25 89.6227 129.905 90.3762C129.561 91.1296 129.893 92.0196 130.646 92.3639L131.893 89.6352ZM131.579 92.7851C132.336 93.1227 133.223 92.7832 133.56 92.0266C133.898 91.2701 133.558 90.3832 132.802 90.0456L131.579 92.7851ZM138.332 92.3306C137.558 92.0367 136.692 92.4263 136.398 93.2008C136.104 93.9754 136.494 94.8415 137.268 95.1354L138.332 92.3306ZM138.238 95.4979C139.016 95.7838 139.878 95.3853 140.164 94.6078C140.45 93.8303 140.051 92.9682 139.274 92.6822L138.238 95.4979ZM144.959 94.568C144.164 94.3336 143.33 94.7876 143.095 95.5821C142.861 96.3767 143.315 97.2109 144.109 97.4454L144.959 94.568ZM145.098 97.731C145.895 97.9562 146.724 97.4926 146.95 96.6954C147.175 95.8982 146.711 95.0693 145.914 94.844L145.098 97.731ZM151.706 96.2564C150.894 96.0903 150.101 96.6136 149.935 97.4252C149.769 98.2368 150.293 99.0294 151.104 99.1955L151.706 96.2564ZM152.125 99.3973C152.938 99.5528 153.724 99.0192 153.879 98.2055C154.035 97.3918 153.501 96.6062 152.688 96.4507L152.125 99.3973ZM158.581 97.3338C157.758 97.2448 157.018 97.8403 156.929 98.6639C156.84 99.4875 157.435 100.227 158.259 100.316L158.581 97.3338ZM159.285 100.42C160.11 100.498 160.841 99.8918 160.919 99.067C160.996 98.2422 160.39 97.5107 159.565 97.4332L159.285 100.42ZM165.51 97.7349C164.681 97.729 164.005 98.3957 163.999 99.2242C163.993 100.053 164.66 100.729 165.488 100.735L165.51 97.7349ZM166.525 100.735C167.353 100.728 168.019 100.052 168.013 99.2232C168.007 98.3948 167.33 97.7283 166.502 97.7346L166.525 100.735ZM172.44 97.4255C171.615 97.5053 171.011 98.2385 171.091 99.063C171.171 99.8876 171.904 100.491 172.729 100.412L172.44 97.4255ZM173.758 100.304C174.581 100.212 175.174 99.4702 175.082 98.6469C174.99 97.8236 174.248 97.2307 173.425 97.3227L173.758 100.304ZM179.301 96.4026C178.489 96.5663 177.963 97.3573 178.127 98.1694C178.291 98.9815 179.082 99.5071 179.894 99.3435L179.301 96.4026ZM180.91 99.1311C181.719 98.9558 182.234 98.1573 182.058 97.3476C181.883 96.538 181.084 96.0237 180.275 96.199L180.91 99.1311ZM186.035 94.6967C185.242 94.9385 184.796 95.7768 185.038 96.5692C185.279 97.3615 186.118 97.8079 186.91 97.5661L186.035 94.6967ZM187.895 97.2583C188.684 97.006 189.119 96.1618 188.867 95.3727C188.615 94.5836 187.771 94.1485 186.982 94.4008L187.895 97.2583ZM192.596 92.3635C191.829 92.675 191.459 93.5499 191.771 94.3175C192.082 95.0851 192.957 95.4548 193.725 95.1433L192.596 92.3635ZM194.664 94.7554C195.428 94.4348 195.788 93.5556 195.467 92.7917C195.146 92.0279 194.267 91.6685 193.503 91.9891L194.664 94.7554ZM198.754 89.576C198.013 89.946 197.712 90.8468 198.082 91.588C198.452 92.3292 199.353 92.6301 200.094 92.26L198.754 89.576ZM200.983 91.8107C201.72 91.433 202.012 90.5291 201.634 89.7918C201.257 89.0544 200.353 88.7629 199.615 89.1405L200.983 91.8107ZM204.691 86.3486C203.977 86.7683 203.738 87.6875 204.158 88.4018C204.578 89.116 205.497 89.3548 206.211 88.9351L204.691 86.3486ZM207.067 88.4269C207.778 88.0008 208.008 87.0794 207.582 86.369C207.156 85.6586 206.235 85.4281 205.524 85.8543L207.067 88.4269ZM210.423 82.7415C209.735 83.203 209.551 84.1348 210.013 84.8228C210.474 85.5108 211.406 85.6944 212.094 85.233L210.423 82.7415ZM212.912 84.6797C213.596 84.2128 213.773 83.2796 213.306 82.5952C212.839 81.9109 211.906 81.7345 211.221 82.2013L212.912 84.6797ZM215.95 78.8182C215.287 79.3146 215.152 80.2547 215.648 80.9179C216.144 81.5811 217.084 81.7164 217.748 81.22L215.95 78.8182ZM218.538 80.624C219.198 80.1231 219.327 79.1821 218.826 78.5223C218.325 77.8624 217.384 77.7336 216.725 78.2345L218.538 80.624ZM221.292 74.625C220.652 75.1506 220.559 76.0958 221.085 76.7361C221.61 77.3764 222.556 77.4694 223.196 76.9438L221.292 74.625ZM223.96 76.3124C224.598 75.7829 224.685 74.8372 224.156 74.2C223.626 73.5628 222.68 73.4755 222.043 74.0049L223.96 76.3124ZM226.462 70.2057C225.843 70.7558 225.787 71.7039 226.337 72.3233C226.887 72.9427 227.835 72.9988 228.455 72.4486L226.462 70.2057ZM229.194 71.7883C229.811 71.2349 229.862 70.2866 229.309 69.6701C228.755 69.0535 227.807 69.0023 227.19 69.5557L229.194 71.7883ZM231.474 65.5963C230.873 66.1671 230.85 67.1165 231.42 67.7169C231.991 68.3173 232.941 68.3412 233.541 67.7704L231.474 65.5963ZM234.257 67.0868C234.855 66.5133 234.874 65.5637 234.301 64.9659C233.727 64.3681 232.778 64.3484 232.18 64.9219L234.257 67.0868ZM236.342 60.8257C235.759 61.414 235.763 62.3637 236.351 62.947C236.939 63.5302 237.889 63.526 238.472 62.9377L236.342 60.8257ZM239.166 62.2355C239.747 61.6449 239.739 60.6952 239.148 60.1143C238.558 59.5334 237.608 59.5412 237.027 60.1318L239.166 62.2355ZM241.081 55.9166C240.513 56.5198 240.542 57.4691 241.145 58.0369C241.749 58.6047 242.698 58.5759 243.266 57.9727L241.081 55.9166ZM243.938 57.256C244.504 56.6508 244.471 55.7016 243.866 55.1359C243.261 54.5702 242.312 54.6022 241.746 55.2074L243.938 57.256ZM245.706 50.8866C245.152 51.5027 245.202 52.4511 245.818 53.0049C246.434 53.5588 247.383 53.5084 247.937 52.8923L245.706 50.8866ZM248.589 52.1645C249.141 51.5468 249.088 50.5985 248.47 50.0465C247.852 49.4945 246.904 49.5478 246.352 50.1655L248.589 52.1645ZM250.215 45.7668C249.673 46.3939 249.743 47.3411 250.37 47.8825C250.997 48.4238 251.944 48.3543 252.485 47.7273L250.215 45.7668ZM253.132 46.9767C253.671 46.3482 253.599 45.4011 252.971 44.8615C252.342 44.3218 251.395 44.3939 250.855 45.0224L253.132 46.9767ZM254.632 40.5546C254.102 41.1912 254.188 42.137 254.825 42.6671C255.462 43.1972 256.408 43.1108 256.938 42.4742L254.632 40.5546ZM257.566 41.7179C258.094 41.08 258.006 40.1344 257.368 39.6059C256.73 39.0773 255.784 39.1659 255.256 39.8038L257.566 41.7179ZM258.969 35.2596C258.449 35.9046 258.55 36.8489 259.195 37.3688C259.84 37.8887 260.785 37.7873 261.304 37.1423L258.969 35.2596ZM261.918 36.3795C262.437 35.7334 262.333 34.7893 261.687 34.2708C261.041 33.7522 260.097 33.8556 259.578 34.5017L261.918 36.3795ZM263.217 29.911C262.706 30.5632 262.821 31.506 263.473 32.0167C264.125 32.5275 265.068 32.4127 265.579 31.7604L263.217 29.911ZM266.185 30.9843C266.695 30.3311 266.578 29.3885 265.925 28.879C265.272 28.3696 264.329 28.4861 263.82 29.1394L266.185 30.9843ZM267.406 24.489C266.903 25.1478 267.03 26.089 267.689 26.5914C268.348 27.0938 269.289 26.967 269.791 26.3083L267.406 24.489ZM270.382 25.5321C270.883 24.8726 270.755 23.9315 270.096 23.4302C269.436 22.929 268.495 23.0573 267.994 23.7168L270.382 25.5321ZM271.518 19.0321C271.023 19.6965 271.161 20.6362 271.825 21.1311C272.489 21.6259 273.429 21.4885 273.924 20.8241L271.518 19.0321ZM274.511 20.0348C275.005 19.3696 274.866 18.4301 274.201 17.9362C273.536 17.4424 272.596 17.5813 272.102 18.2464L274.511 20.0348ZM275.582 13.5157C275.094 14.1851 275.241 15.1234 275.911 15.6114C276.58 16.0994 277.518 15.9524 278.006 15.2829L275.582 13.5157ZM153.871 15.1173C154.249 15.8543 155.153 16.1452 155.89 15.767C156.628 15.3888 156.918 14.4847 156.54 13.7477L153.871 15.1173ZM159.193 18.9506C158.818 18.2116 157.916 17.916 157.177 18.2903C156.438 18.6647 156.142 19.5673 156.517 20.3063L159.193 18.9506ZM156.955 21.1726C157.329 21.9119 158.231 22.2083 158.97 21.8345C159.71 21.4607 160.006 20.5584 159.632 19.8191L156.955 21.1726ZM162.254 25.0363C161.884 24.2953 160.983 23.9948 160.242 24.3651C159.501 24.7355 159.201 25.6364 159.571 26.3775L162.254 25.0363ZM160.005 27.2458C160.374 27.9871 161.275 28.2883 162.016 27.9185C162.758 27.5487 163.059 26.6479 162.689 25.9066L160.005 27.2458ZM165.284 31.1361C164.918 30.3933 164.018 30.0885 163.275 30.4554C162.533 30.8222 162.228 31.7217 162.595 32.4645L165.284 31.1361ZM163.024 33.3357C163.391 34.0788 164.29 34.3841 165.033 34.0178C165.776 33.6514 166.082 32.7521 165.715 32.0091L163.024 33.3357ZM168.287 37.2494C167.924 36.5051 167.025 36.1966 166.281 36.5604C165.537 36.9241 165.228 37.8224 165.592 38.5667L168.287 37.2494ZM166.018 39.4393C166.382 40.1838 167.28 40.4927 168.024 40.1294C168.769 39.766 169.078 38.8679 168.714 38.1234L166.018 39.4393ZM171.266 43.3723C170.905 42.6268 170.008 42.3152 169.262 42.6764C168.517 43.0376 168.205 43.9348 168.567 44.6804L171.266 43.3723ZM168.99 45.5545C169.351 46.3002 170.248 46.6121 170.993 46.2513C171.739 45.8904 172.051 44.9933 171.69 44.2476L168.99 45.5545ZM174.226 49.5038C173.867 48.7572 172.971 48.4432 172.224 48.8023C171.478 49.1615 171.163 50.0578 171.523 50.8043L174.226 49.5038ZM171.944 51.6802C172.303 52.4268 173.199 52.7412 173.946 52.3823C174.692 52.0234 175.007 51.1272 174.648 50.3805L171.944 51.6802ZM177.171 55.6416C176.813 54.8944 175.917 54.5785 175.17 54.9361C174.423 55.2937 174.107 56.1893 174.464 56.9366L177.171 55.6416ZM174.883 57.8122C175.241 58.5596 176.136 58.8757 176.884 58.5183C177.631 58.1609 177.947 57.2653 177.59 56.5179L174.883 57.8122ZM180.104 61.7828C179.747 61.035 178.852 60.7179 178.104 61.0745C177.356 61.4311 177.039 62.3263 177.396 63.0741L180.104 61.7828ZM177.814 63.952C178.171 64.6998 179.066 65.017 179.814 64.6605C180.562 64.3041 180.879 63.4089 180.523 62.661L177.814 63.952ZM183.031 67.927C182.675 67.179 181.78 66.8614 181.032 67.2175C180.284 67.5737 179.966 68.4687 180.322 69.2167L183.031 67.927ZM180.74 70.0933C181.096 70.8413 181.991 71.1589 182.739 70.8028C183.487 70.4467 183.805 69.5516 183.448 68.8037L180.74 70.0933ZM185.956 74.0692C185.6 73.3213 184.705 73.0039 183.957 73.3601C183.209 73.7164 182.891 74.6116 183.248 75.3595L185.956 74.0692ZM183.666 76.238C184.022 76.9859 184.918 77.3032 185.666 76.9469C186.413 76.5905 186.731 75.6953 186.374 74.9475L183.666 76.238ZM188.885 80.2101C188.528 79.4626 187.632 79.1461 186.885 79.5031C186.137 79.8602 185.821 80.7557 186.178 81.5032L188.885 80.2101ZM186.596 82.3791C186.954 83.1266 187.849 83.4429 188.597 83.0857C189.344 82.7284 189.66 81.8329 189.303 81.0855L186.596 82.3791ZM191.822 86.3441C191.463 85.5973 190.567 85.2826 189.82 85.6411C189.073 85.9996 188.759 86.8957 189.117 87.6425L191.822 86.3441ZM189.539 88.5197C189.897 89.2664 190.794 89.5809 191.54 89.2221C192.287 88.8633 192.601 87.9671 192.243 87.2204L189.539 88.5197ZM194.773 92.4699C194.412 91.7242 193.515 91.412 192.77 91.7728C192.024 92.1336 191.712 93.0306 192.073 93.7763L194.773 92.4699ZM192.504 94.6668C192.865 95.4124 193.762 95.7241 194.507 95.3629C195.253 95.0018 195.565 94.1046 195.204 93.359L192.504 94.6668ZM197.825 98.7472C197.461 98.003 196.563 97.6946 195.819 98.0585C195.075 98.4224 194.766 99.3207 195.13 100.065L197.825 98.7472ZM195.566 100.956C195.93 101.7 196.829 102.008 197.573 101.643C198.317 101.279 198.625 100.38 198.26 99.6363L195.566 100.956ZM200.89 104.975C200.522 104.232 199.622 103.929 198.88 104.297C198.138 104.665 197.834 105.565 198.202 106.307L200.89 104.975ZM198.649 107.206C199.017 107.948 199.917 108.251 200.659 107.882C201.401 107.513 201.704 106.613 201.335 105.871L198.649 107.206ZM203.995 111.185C203.622 110.446 202.72 110.148 201.98 110.522C201.241 110.895 200.943 111.797 201.317 112.536L203.995 111.185ZM201.76 113.414C202.134 114.153 203.036 114.449 203.775 114.075C204.515 113.701 204.811 112.799 204.437 112.06L201.76 113.414ZM207.161 117.397C206.782 116.66 205.877 116.371 205.141 116.751C204.404 117.13 204.115 118.035 204.495 118.771L207.161 117.397ZM204.951 119.655C205.331 120.391 206.236 120.679 206.972 120.298C207.708 119.917 207.996 119.012 207.615 118.277L204.951 119.655ZM210.366 123.536C209.978 122.804 209.071 122.524 208.338 122.911C207.606 123.299 207.327 124.207 207.714 124.939L210.366 123.536ZM208.186 125.83C208.575 126.561 209.483 126.839 210.215 126.451C210.946 126.062 211.224 125.154 210.836 124.422L208.186 125.83ZM213.647 129.644C213.25 128.917 212.338 128.649 211.611 129.046C210.884 129.443 210.616 130.354 211.013 131.081L213.647 129.644ZM211.484 131.941C211.882 132.667 212.794 132.933 213.52 132.535C214.247 132.136 214.512 131.224 214.114 130.498L211.484 131.941ZM217.032 135.732C216.623 135.012 215.708 134.759 214.987 135.167C214.267 135.576 214.014 136.491 214.422 137.212L217.032 135.732ZM214.912 138.074C215.323 138.794 216.239 139.044 216.959 138.634C217.678 138.223 217.929 137.307 217.518 136.588L214.912 138.074ZM220.506 141.726C220.083 141.013 219.163 140.778 218.45 141.201C217.738 141.624 217.503 142.544 217.925 143.256L220.506 141.726ZM218.44 144.12C218.865 144.832 219.786 145.064 220.497 144.639C221.208 144.214 221.44 143.293 221.015 142.582L218.44 144.12ZM224.09 147.611C223.65 146.909 222.725 146.696 222.023 147.136C221.321 147.576 221.108 148.501 221.548 149.204L224.09 147.611ZM222.091 150.068C222.534 150.768 223.46 150.977 224.16 150.534C224.861 150.092 225.07 149.165 224.627 148.465L222.091 150.068ZM227.847 153.421C227.386 152.732 226.455 152.548 225.766 153.008C225.078 153.469 224.893 154.401 225.354 155.089L227.847 153.421ZM225.9 155.901C226.364 156.587 227.296 156.768 227.982 156.304C228.669 155.84 228.849 154.907 228.385 154.221L225.9 155.901ZM231.804 159.108C231.318 158.437 230.38 158.288 229.709 158.775C229.039 159.262 228.89 160.199 229.376 160.87L231.804 159.108ZM229.957 161.665C230.448 162.332 231.387 162.476 232.054 161.985C232.722 161.494 232.865 160.556 232.374 159.888L229.957 161.665ZM235.985 164.594C235.466 163.948 234.522 163.845 233.876 164.364C233.23 164.883 233.127 165.827 233.646 166.473L235.985 164.594ZM234.27 167.244C234.794 167.886 235.739 167.981 236.381 167.457C237.023 166.934 237.118 165.989 236.594 165.347L234.27 167.244ZM240.445 169.814C239.886 169.202 238.937 169.16 238.326 169.719C237.715 170.278 237.672 171.227 238.231 171.838L240.445 169.814ZM238.909 172.572C239.474 173.177 240.423 173.209 241.029 172.644C241.634 172.079 241.667 171.129 241.101 170.524L238.909 172.572ZM245.253 174.66C244.643 174.099 243.694 174.138 243.133 174.748C242.572 175.357 242.611 176.306 243.22 176.867L245.253 174.66ZM243.962 177.54C244.579 178.093 245.528 178.04 246.08 177.423C246.632 176.805 246.58 175.857 245.962 175.305L243.962 177.54ZM250.478 178.96C249.807 178.475 248.869 178.625 248.384 179.297C247.898 179.968 248.049 180.906 248.72 181.391L250.478 178.96ZM249.537 181.97C250.218 182.442 251.153 182.273 251.625 181.592C252.097 180.911 251.928 179.977 251.247 179.505L249.537 181.97ZM256.175 182.445C255.433 182.075 254.533 182.376 254.163 183.118C253.793 183.859 254.094 184.76 254.836 185.129L256.175 182.445ZM255.773 185.581C256.525 185.929 257.417 185.603 257.765 184.851C258.114 184.1 257.788 183.208 257.036 182.859L255.773 185.581ZM262.379 184.76C261.575 184.561 260.762 185.053 260.564 185.857C260.365 186.661 260.857 187.474 261.661 187.673L262.379 184.76ZM262.686 187.906C263.497 188.075 264.292 187.555 264.461 186.744C264.631 185.933 264.111 185.139 263.3 184.969L262.686 187.906ZM268.873 185.495C268.045 185.512 267.387 186.197 267.403 187.025C267.42 187.853 268.105 188.511 268.933 188.494L268.873 185.495ZM269.988 188.453C270.815 188.405 271.447 187.695 271.398 186.868C271.35 186.041 270.64 185.41 269.813 185.458L269.988 188.453ZM275.367 184.508C274.57 184.734 274.106 185.562 274.332 186.36C274.557 187.157 275.386 187.62 276.183 187.395L275.367 184.508ZM277.175 187.097C277.964 186.846 278.401 186.003 278.149 185.213C277.898 184.424 277.055 183.987 276.265 184.239L277.175 187.097ZM281.512 182.032C280.777 182.415 280.492 183.322 280.875 184.056C281.259 184.791 282.165 185.075 282.899 184.692L281.512 182.032ZM283.779 184.22C284.504 183.819 284.767 182.907 284.366 182.181C283.965 181.456 283.053 181.193 282.328 181.594L283.779 184.22ZM287.188 178.468C286.52 178.957 286.375 179.896 286.864 180.564C287.354 181.233 288.293 181.377 288.961 180.888L287.188 178.468ZM289.756 180.294C290.416 179.793 290.544 178.852 290.043 178.193C289.542 177.533 288.601 177.405 287.941 177.906L289.756 180.294ZM292.429 174.138C291.819 174.698 291.778 175.647 292.339 176.257C292.899 176.867 293.848 176.908 294.458 176.347L292.429 174.138ZM295.175 175.681C295.778 175.113 295.806 174.163 295.238 173.56C294.67 172.957 293.72 172.929 293.117 173.497L295.175 175.681ZM297.299 169.26C296.737 169.869 296.775 170.818 297.384 171.38C297.992 171.942 298.941 171.904 299.503 171.295L297.299 169.26ZM300.149 170.588C300.705 169.974 300.658 169.026 300.044 168.47C299.43 167.914 298.482 167.961 297.926 168.575L300.149 170.588ZM301.732 164.136C301.209 164.778 301.305 165.723 301.947 166.246C302.59 166.769 303.534 166.673 304.058 166.031L301.732 164.136ZM304.715 165.217C305.233 164.571 305.129 163.627 304.482 163.109C303.836 162.591 302.892 162.695 302.374 163.341L304.715 165.217ZM305.914 158.728C305.423 159.395 305.565 160.334 306.232 160.826C306.899 161.317 307.838 161.175 308.329 160.508L305.914 158.728ZM308.924 159.695C309.411 159.025 309.263 158.087 308.593 157.6C307.923 157.113 306.984 157.261 306.497 157.931L308.924 159.695ZM309.931 153.031C309.467 153.717 309.647 154.65 310.333 155.114C311.019 155.578 311.952 155.398 312.416 154.712L309.931 153.031ZM312.956 153.91C313.417 153.221 313.233 152.29 312.544 151.829C311.856 151.368 310.924 151.552 310.463 152.241L312.956 153.91ZM313.685 147.279C313.243 147.98 313.453 148.906 314.154 149.348C314.854 149.79 315.781 149.58 316.222 148.879L313.685 147.279ZM316.771 148.005C317.21 147.302 316.996 146.377 316.294 145.938C315.591 145.499 314.666 145.713 314.227 146.416L316.771 148.005ZM317.28 141.397C316.857 142.11 317.092 143.03 317.805 143.452C318.517 143.875 319.437 143.64 319.86 142.928L317.28 141.397ZM320.361 142.08C320.781 141.366 320.543 140.447 319.829 140.026C319.115 139.606 318.195 139.844 317.775 140.558L320.361 142.08ZM320.774 135.342C320.368 136.064 320.625 136.979 321.347 137.385C322.069 137.791 322.983 137.534 323.389 136.812L320.774 135.342ZM323.898 135.903C324.302 135.18 324.042 134.266 323.319 133.863C322.595 133.459 321.682 133.718 321.278 134.442L323.898 135.903ZM324.067 129.341C323.676 130.071 323.95 130.98 324.68 131.372C325.41 131.763 326.32 131.489 326.711 130.759L324.067 129.341ZM327.177 129.887C327.567 129.156 327.29 128.247 326.559 127.858C325.828 127.468 324.92 127.745 324.53 128.476L327.177 129.887ZM327.327 123.131C326.948 123.868 327.238 124.772 327.975 125.151C328.712 125.529 329.616 125.239 329.995 124.502L327.327 123.131ZM330.468 123.579C330.845 122.841 330.552 121.938 329.815 121.561C329.077 121.184 328.173 121.476 327.796 122.214L330.468 123.579ZM330.415 117.005C330.048 117.748 330.352 118.648 331.094 119.015C331.837 119.382 332.736 119.078 333.104 118.336L330.415 117.005ZM333.539 117.454C333.905 116.711 333.599 115.812 332.856 115.446C332.113 115.08 331.214 115.386 330.848 116.129L333.539 117.454ZM333.463 110.738C333.106 111.485 333.422 112.381 334.169 112.738C334.917 113.096 335.812 112.779 336.17 112.032L333.463 110.738ZM336.611 111.107C336.967 110.358 336.649 109.463 335.901 109.108C335.153 108.752 334.258 109.07 333.902 109.818L336.611 111.107ZM336.422 104.449C336.074 105.201 336.401 106.092 337.153 106.441C337.904 106.789 338.796 106.462 339.144 105.71L336.422 104.449ZM339.552 104.827C339.899 104.075 339.571 103.184 338.818 102.837C338.066 102.49 337.175 102.818 336.828 103.571L339.552 104.827ZM339.28 98.1884C338.94 98.9439 339.277 99.8319 340.032 100.172C340.788 100.512 341.676 100.175 342.016 99.4198L339.28 98.1884ZM342.429 98.5C342.768 97.744 342.43 96.8565 341.674 96.5176C340.918 96.1787 340.031 96.5167 339.692 97.2726L342.429 98.5ZM342.168 91.6852C341.835 92.444 342.181 93.3286 342.94 93.6609C343.699 93.9933 344.583 93.6476 344.916 92.8888L342.168 91.6852ZM345.299 92.0115C345.631 91.2522 345.284 90.3681 344.524 90.0367C343.765 89.7053 342.881 90.0521 342.55 90.8114L345.299 92.0115ZM344.856 85.472C344.53 86.2338 344.884 87.1153 345.646 87.441C346.407 87.7667 347.289 87.4132 347.615 86.6515L344.856 85.472ZM348.003 85.7422C348.327 84.9801 347.973 84.099 347.211 83.7742C346.449 83.4494 345.568 83.8039 345.243 84.566L348.003 85.7422ZM347.578 79.0327C347.258 79.7971 347.619 80.6757 348.383 80.995C349.148 81.3144 350.026 80.9537 350.346 80.1893L347.578 79.0327ZM350.739 79.2476C351.057 78.4829 350.695 77.6047 349.931 77.2862C349.166 76.9677 348.288 77.3295 347.969 78.0942L350.739 79.2476ZM350.252 72.5613C349.939 73.3281 350.306 74.2039 351.073 74.5175C351.84 74.831 352.715 74.4636 353.029 73.6968L350.252 72.5613ZM353.395 72.801C353.708 72.0339 353.339 71.1584 352.572 70.8456C351.805 70.5329 350.93 70.9012 350.617 71.6683L353.395 72.801ZM352.817 66.2259C352.509 66.9948 352.882 67.8681 353.651 68.1764C354.42 68.4846 355.293 68.1112 355.602 67.3423L352.817 66.2259ZM355.972 66.4185C356.279 65.6493 355.905 64.7764 355.136 64.4688C354.366 64.1613 353.494 64.5355 353.186 65.3048L355.972 66.4185ZM355.411 59.693C355.108 60.4639 355.487 61.3347 356.258 61.6379C357.029 61.9412 357.9 61.5621 358.203 60.7912L355.411 59.693ZM358.577 59.8391C358.88 59.0679 358.5 58.1975 357.729 57.8949C356.957 57.5924 356.087 57.9723 355.784 58.7435L358.577 59.8391ZM357.943 53.1996C357.644 53.9724 358.029 54.8409 358.801 55.1395C359.574 55.4381 360.443 55.0538 360.741 54.281L357.943 53.1996ZM361.09 53.376C361.388 52.6031 361.003 51.7349 360.23 51.4369C359.457 51.1389 358.589 51.5239 358.291 52.2969L361.09 53.376ZM360.393 46.8066C360.099 47.581 360.488 48.4473 361.262 48.7417C362.036 49.0361 362.903 48.647 363.197 47.8726L360.393 46.8066ZM363.55 46.9431C363.844 46.1685 363.454 45.3024 362.68 45.0086C361.905 44.7149 361.039 45.1046 360.745 45.8792L363.55 46.9431ZM362.869 40.2404C362.579 41.0163 362.972 41.8806 363.748 42.1709C364.524 42.4612 365.389 42.0675 365.679 41.2916L362.869 40.2404ZM366.036 40.3373C366.325 39.5612 365.931 38.6971 365.155 38.4074C364.379 38.1177 363.515 38.512 363.225 39.2881L366.036 40.3373ZM365.313 33.6572C365.027 34.4345 365.425 35.2969 366.202 35.5833C366.98 35.8698 367.842 35.4719 368.128 34.6946L365.313 33.6572ZM368.462 33.7871C368.748 33.0096 368.35 32.1475 367.572 31.8616C366.795 31.5756 365.933 31.9741 365.647 32.7516L368.462 33.7871ZM367.657 27.2528C367.374 28.0314 367.776 28.892 368.554 29.175C369.333 29.458 370.194 29.0562 370.477 28.2776L367.657 27.2528ZM370.814 27.3485C371.096 26.5697 370.694 25.7094 369.915 25.4269C369.137 25.1444 368.276 25.5467 367.994 26.3255L370.814 27.3485ZM370.024 20.6959C369.744 21.4757 370.15 22.3345 370.93 22.6141C371.709 22.8937 372.568 22.4882 372.848 21.7084L370.024 20.6959ZM373.189 20.7575C373.468 19.9775 373.062 19.1189 372.282 18.8398C371.502 18.5607 370.643 18.9667 370.364 19.7467L373.189 20.7575ZM372.414 13.9852C372.138 14.7661 372.547 15.6233 373.328 15.8996C374.109 16.176 374.966 15.7669 375.242 14.9859L372.414 13.9852ZM23.5274 14.2848C23.5601 14.4541 23.5929 14.6233 23.6257 14.7923L26.5708 14.2212C26.5381 14.0527 26.5055 13.8841 26.4728 13.7153L23.5274 14.2848ZM24.8104 20.7995C24.8766 21.129 24.9427 21.4578 25.0089 21.7859L27.9496 21.1926C27.8837 20.8655 27.8177 20.5378 27.7518 20.2094L24.8104 20.7995ZM26.2057 27.6155C26.2724 27.9352 26.3392 28.2541 26.4061 28.5724L29.342 27.9555C29.2754 27.6384 29.2088 27.3206 29.1423 27.0021L26.2057 27.6155ZM27.6847 34.5463C27.7566 34.8762 27.8286 35.2053 27.9006 35.5336L30.8309 34.8906C30.7591 34.5636 30.6874 34.2358 30.6158 33.9072L27.6847 34.5463ZM29.2028 41.3565C29.2754 41.6752 29.3481 41.9931 29.4209 42.3102L32.3449 41.6394C32.2725 41.3236 32.2001 41.0071 32.1278 40.6897L29.2028 41.3565ZM30.8116 48.2493C30.8902 48.578 30.9689 48.9058 31.0476 49.2326L33.9642 48.5305C33.8859 48.2052 33.8076 47.8789 33.7294 47.5518L30.8116 48.2493ZM32.4701 55.0176C32.5494 55.3335 32.6289 55.6485 32.7083 55.9626L35.6167 55.2267C35.5376 54.9143 35.4586 54.6009 35.3797 54.2867L32.4701 55.0176ZM34.2442 61.893C34.3304 62.2182 34.4167 62.5423 34.503 62.8654L37.4013 62.0908C37.3155 61.7697 37.2297 61.4474 37.144 61.1241L34.2442 61.893ZM36.0645 68.5693C36.1587 68.9048 36.2529 69.2391 36.3472 69.5722L39.2338 68.7553C39.1401 68.4244 39.0466 68.0923 38.953 67.759L36.0645 68.5693ZM38.0517 75.4353C38.1468 75.7537 38.242 76.0708 38.3372 76.3867L41.2095 75.5207C41.115 75.2072 41.0205 74.8925 40.9261 74.5766L38.0517 75.4353ZM40.1218 82.137C40.2263 82.4638 40.3308 82.7891 40.4354 83.113L43.2902 82.191C43.1866 81.87 43.083 81.5476 42.9794 81.2236L40.1218 82.137ZM42.3269 88.7871C42.4325 89.0937 42.5381 89.3988 42.6438 89.7025L45.4771 88.7162C45.3725 88.4158 45.2679 88.1138 45.1635 87.8104L42.3269 88.7871ZM44.7319 95.4871C44.8487 95.7985 44.9655 96.1083 45.0824 96.4164L47.8872 95.352C47.7718 95.0479 47.6565 94.742 47.5412 94.4344L44.7319 95.4871ZM47.3117 102.056C47.4417 102.371 47.5718 102.685 47.7021 102.996L50.4695 101.838C50.3413 101.531 50.2132 101.223 50.0852 100.912L47.3117 102.056ZM50.1195 108.506C50.2655 108.823 50.4117 109.138 50.558 109.45L53.274 108.176C53.1307 107.87 52.9874 107.562 52.8442 107.251L50.1195 108.506ZM53.2323 114.838C53.3979 115.153 53.5637 115.465 53.7297 115.773L56.3711 114.35C56.2096 114.051 56.0482 113.747 55.8869 113.441L53.2323 114.838ZM56.763 121.021C56.9528 121.325 57.1429 121.626 57.3332 121.922L59.8579 120.302C59.6749 120.017 59.4919 119.727 59.309 119.434L56.763 121.021ZM60.8767 126.94C61.0967 127.221 61.3172 127.497 61.5381 127.767L63.862 125.87C63.6541 125.615 63.4461 125.355 63.2381 125.09L60.8767 126.94ZM65.8074 132.304C66.0657 132.537 66.3247 132.764 66.5844 132.983L68.5221 130.693C68.2877 130.495 68.053 130.289 67.818 130.077L65.8074 132.304ZM71.8958 136.471C72.234 136.63 72.5734 136.778 72.9139 136.915L74.0323 134.132C73.7471 134.017 73.461 133.892 73.1743 133.757L71.8958 136.471ZM79.3518 138.125C79.7167 138.117 80.0815 138.095 80.4463 138.061L80.167 135.074C79.8721 135.102 79.5776 135.119 79.2836 135.126L79.3518 138.125ZM86.7046 136.21C87.0266 136.049 87.3477 135.879 87.6681 135.699L86.1983 133.084C85.9197 133.24 85.642 133.387 85.3652 133.526L86.7046 136.21ZM92.7384 132.001C92.9933 131.773 93.2478 131.538 93.502 131.296L91.4372 129.12C91.2025 129.343 90.9683 129.559 90.7344 129.769L92.7384 132.001ZM97.6965 126.725C97.9172 126.453 98.1377 126.176 98.358 125.895L95.9963 124.045C95.7865 124.313 95.5769 124.576 95.3675 124.834L97.6965 126.725ZM101.917 120.918C102.111 120.624 102.304 120.327 102.497 120.026L99.971 118.407C99.7843 118.698 99.5976 118.986 99.4109 119.27L101.917 120.918ZM105.606 114.839C105.777 114.536 105.948 114.229 106.119 113.919L103.493 112.469C103.326 112.772 103.159 113.071 102.992 113.367L105.606 114.839ZM108.909 108.592C109.062 108.285 109.215 107.976 109.368 107.664L106.674 106.344C106.524 106.65 106.374 106.953 106.224 107.254L108.909 108.592ZM111.927 102.211C112.065 101.904 112.202 101.596 112.34 101.286L109.598 100.068C109.463 100.374 109.327 100.678 109.191 100.979L111.927 102.211ZM114.729 95.7004C114.854 95.3968 114.979 95.0916 115.105 94.7848L112.327 93.6518C112.203 93.955 112.079 94.2565 111.956 94.5564L114.729 95.7004ZM117.353 89.0875C117.472 88.777 117.59 88.465 117.709 88.1515L114.903 87.0899C114.786 87.4002 114.668 87.7091 114.551 88.0165L117.353 89.0875ZM119.766 82.5591C119.88 82.2402 119.994 81.92 120.108 81.5984L117.28 80.5962C117.167 80.9151 117.054 81.2327 116.941 81.5488L119.766 82.5591ZM122.079 75.8882C122.184 75.5765 122.289 75.2635 122.394 74.9494L119.549 73.9992C119.444 74.311 119.34 74.6217 119.236 74.9311L122.079 75.8882ZM124.279 69.1698C124.383 68.8418 124.487 68.5125 124.592 68.1821L121.731 67.278C121.628 67.6063 121.524 67.9334 121.42 68.2594L124.279 69.1698ZM126.348 62.5059C126.445 62.1868 126.541 61.8667 126.638 61.5456L123.765 60.6814C123.669 61.0007 123.573 61.3189 123.477 61.6362L126.348 62.5059ZM128.373 55.6584C128.463 55.3475 128.552 55.0356 128.642 54.7228L125.759 53.8952C125.669 54.2063 125.58 54.5166 125.491 54.826L128.373 55.6584ZM130.255 48.9992C130.344 48.676 130.434 48.3519 130.523 48.0269L127.631 47.2315C127.542 47.5549 127.453 47.8775 127.364 48.1992L130.255 48.9992ZM132.116 42.1293C132.2 41.8149 132.283 41.4997 132.366 41.1838L129.466 40.4182C129.383 40.7328 129.3 41.0467 129.217 41.3597L132.116 42.1293ZM133.864 35.4145C133.947 35.0893 134.03 34.7635 134.113 34.4368L131.206 33.6981C131.123 34.0235 131.04 34.3481 130.958 34.672L133.864 35.4145ZM135.596 28.5077C135.674 28.1917 135.752 27.8751 135.829 27.5577L132.915 26.8441C132.838 27.1603 132.76 27.4759 132.683 27.7907L135.596 28.5077ZM137.225 21.7725C137.303 21.447 137.38 21.1209 137.457 20.7941L134.538 20.1032C134.461 20.4289 134.384 20.754 134.307 21.0784L137.225 21.7725ZM138.847 14.8383C138.885 14.6708 138.924 14.5032 138.962 14.3354L136.038 13.6647C136 13.8319 135.961 13.9991 135.923 14.166L138.847 14.8383ZM38.8858 15.0043C39.0009 15.132 39.1159 15.2595 39.2309 15.3869L41.4581 13.377C41.3435 13.25 41.2289 13.1229 41.1142 12.9957L38.8858 15.0043ZM43.3419 19.9106C43.5688 20.1585 43.7955 20.4058 44.0219 20.6526L46.2323 18.6243C46.0068 18.3785 45.7809 18.132 45.5548 17.885L43.3419 19.9106ZM48.1709 25.1395C48.4014 25.3868 48.6316 25.6334 48.8616 25.8795L51.0534 23.8311C50.8243 23.586 50.595 23.3403 50.3654 23.094L48.1709 25.1395ZM53.044 30.3169C53.2783 30.5633 53.5122 30.809 53.7459 31.054L55.9169 28.9836C55.6843 28.7396 55.4513 28.495 55.2182 28.2498L53.044 30.3169ZM57.9683 35.4402C58.2064 35.6852 58.4442 35.9294 58.6817 36.173L60.8294 34.0784C60.5931 33.836 60.3564 33.593 60.1195 33.3492L57.9683 35.4402ZM62.9509 40.5053C63.193 40.7484 63.4349 40.9907 63.6764 41.2324L65.798 39.1113C65.5578 38.871 65.3173 38.63 65.0765 38.3882L62.9509 40.5053ZM67.9999 45.5072C68.2462 45.7478 68.4922 45.9876 68.7379 46.2267L70.8299 44.0765C70.5857 43.8389 70.3412 43.6005 70.0964 43.3614L67.9999 45.5072ZM73.1297 50.4448C73.3782 50.6804 73.6265 50.9151 73.8744 51.149L75.933 48.9667C75.6867 48.7344 75.4402 48.5013 75.1933 48.2673L73.1297 50.4448ZM78.343 55.3032C78.5939 55.5331 78.8446 55.7621 79.095 55.9902L81.1154 53.7725C80.8669 53.5461 80.6181 53.3189 80.3691 53.0908L78.343 55.3032ZM83.6431 60.066C83.8987 60.2912 84.154 60.5154 84.409 60.7388L86.3856 58.482C86.1328 58.2606 85.8797 58.0383 85.6263 57.815L83.6431 60.066ZM89.0395 64.7193C89.302 64.9407 89.5643 65.1611 89.8262 65.3804L91.7523 63.0804C91.493 62.8632 91.2333 62.645 90.9733 62.4258L89.0395 64.7193ZM94.5494 69.2523C94.8188 69.4683 95.088 69.6832 95.3567 69.897L97.2243 67.5492C96.9586 67.3378 96.6925 67.1253 96.426 66.9117L94.5494 69.2523ZM100.188 73.6471C100.463 73.8547 100.737 74.0612 101.011 74.2665L102.81 71.866C102.54 71.6634 102.269 71.4596 101.998 71.2545L100.188 73.6471ZM105.961 77.8722C106.241 78.0699 106.52 78.2664 106.799 78.4615L108.518 76.0031C108.244 75.8109 107.968 75.6173 107.693 75.4225L105.961 77.8722ZM111.877 81.8954C112.162 82.0814 112.447 82.266 112.731 82.4493L114.356 79.9276C114.077 79.7474 113.797 79.5659 113.517 79.383L111.877 81.8954ZM117.946 85.6777C118.236 85.85 118.526 86.0209 118.816 86.1902L120.33 83.6001C120.046 83.4341 119.761 83.2666 119.477 83.0976L117.946 85.6777ZM124.195 89.1837C124.501 89.3453 124.806 89.5052 125.111 89.6635L126.492 87C126.194 86.8454 125.895 86.689 125.596 86.531L124.195 89.1837ZM130.646 92.3639C130.958 92.5061 131.268 92.6465 131.579 92.7851L132.802 90.0456C132.499 89.9106 132.196 89.7738 131.893 89.6352L130.646 92.3639ZM137.268 95.1354C137.592 95.2583 137.915 95.3791 138.238 95.4979L139.274 92.6822C138.96 92.567 138.647 92.4498 138.332 92.3306L137.268 95.1354ZM144.109 97.4454C144.439 97.5427 144.769 97.6379 145.098 97.731L145.914 94.844C145.596 94.7541 145.277 94.6621 144.959 94.568L144.109 97.4454ZM151.104 99.1955C151.445 99.2651 151.785 99.3324 152.125 99.3973L152.688 96.4507C152.361 96.3882 152.033 96.3234 151.706 96.2564L151.104 99.1955ZM158.259 100.316C158.601 100.353 158.943 100.388 159.285 100.42L159.565 97.4332C159.238 97.4024 158.91 97.3693 158.581 97.3338L158.259 100.316ZM165.488 100.735C165.834 100.737 166.179 100.737 166.525 100.735L166.502 97.7346C166.171 97.7371 165.841 97.7372 165.51 97.7349L165.488 100.735ZM172.729 100.412C173.072 100.378 173.415 100.342 173.758 100.304L173.425 97.3227C173.097 97.3594 172.768 97.3937 172.44 97.4255L172.729 100.412ZM179.894 99.3435C180.233 99.2752 180.571 99.2044 180.91 99.1311L180.275 96.199C179.95 96.2693 179.626 96.3372 179.301 96.4026L179.894 99.3435ZM186.91 97.5661C187.239 97.4658 187.567 97.3632 187.895 97.2583L186.982 94.4008C186.666 94.5017 186.35 94.6004 186.035 94.6967L186.91 97.5661ZM193.725 95.1433C193.885 95.0781 194.046 95.0123 194.207 94.946L193.061 92.1731C192.906 92.2371 192.751 92.3006 192.596 92.3635L193.725 95.1433ZM194.207 94.946C194.359 94.8829 194.512 94.8194 194.664 94.7554L193.503 91.9891C193.356 92.0509 193.209 92.1123 193.061 92.1731L194.207 94.946ZM200.094 92.26C200.391 92.1122 200.687 91.9624 200.983 91.8107L199.615 89.1405C199.328 89.2876 199.041 89.4327 198.754 89.576L200.094 92.26ZM206.211 88.9351C206.497 88.7675 206.782 88.5981 207.067 88.4269L205.524 85.8543C205.246 86.0208 204.969 86.1856 204.691 86.3486L206.211 88.9351ZM212.094 85.233C212.367 85.0501 212.639 84.8657 212.912 84.6797L211.221 82.2013C210.955 82.383 210.689 82.563 210.423 82.7415L212.094 85.233ZM217.748 81.22C218.011 81.0228 218.275 80.8241 218.538 80.624L216.725 78.2345C216.466 78.4305 216.208 78.6251 215.95 78.8182L217.748 81.22ZM223.196 76.9438C223.451 76.7347 223.706 76.5242 223.96 76.3124L222.043 74.0049C221.793 74.213 221.543 74.4197 221.292 74.625L223.196 76.9438ZM228.455 72.4486C228.701 72.2297 228.948 72.0096 229.194 71.7883L227.19 69.5557C226.948 69.7736 226.705 69.9903 226.462 70.2057L228.455 72.4486ZM233.541 67.7704C233.779 67.5437 234.018 67.3158 234.257 67.0868L232.18 64.9219C231.944 65.1479 231.709 65.3727 231.474 65.5963L233.541 67.7704ZM238.472 62.9377C238.703 62.7047 238.934 62.4707 239.166 62.2355L237.027 60.1318C236.798 60.3642 236.57 60.5955 236.342 60.8257L238.472 62.9377ZM243.266 57.9727C243.49 57.7348 243.714 57.4959 243.938 57.256L241.746 55.2074C241.524 55.4448 241.303 55.6812 241.081 55.9166L243.266 57.9727ZM247.937 52.8923C248.154 52.6506 248.371 52.408 248.589 52.1645L246.352 50.1655C246.136 50.4068 245.921 50.6472 245.706 50.8866L247.937 52.8923ZM252.485 47.7273C252.701 47.478 252.916 47.2278 253.132 46.9767L250.855 45.0224C250.642 45.2714 250.428 45.5196 250.215 45.7668L252.485 47.7273ZM256.938 42.4742C257.147 42.2229 257.356 41.9708 257.566 41.7179L255.256 39.8038C255.048 40.0549 254.84 40.3051 254.632 40.5546L256.938 42.4742ZM261.304 37.1423C261.509 36.8888 261.713 36.6345 261.918 36.3795L259.578 34.5017C259.375 34.7551 259.172 35.0078 258.969 35.2596L261.304 37.1423ZM265.579 31.7604C265.781 31.5024 265.983 31.2437 266.185 30.9843L263.82 29.1394C263.619 29.3973 263.418 29.6545 263.217 29.911L265.579 31.7604ZM269.791 26.3083C269.988 26.0503 270.185 25.7915 270.382 25.5321L267.994 23.7168C267.798 23.9749 267.602 24.2323 267.406 24.489L269.791 26.3083ZM273.924 20.8241C274.119 20.5616 274.315 20.2985 274.511 20.0348L272.102 18.2464C271.907 18.5089 271.713 18.7708 271.518 19.0321L273.924 20.8241ZM278.006 15.2829C278.104 15.1497 278.201 15.0163 278.298 14.8828L275.873 13.1172C275.776 13.2502 275.679 13.383 275.582 13.5157L278.006 15.2829ZM153.649 14.6854C153.723 14.8294 153.797 14.9733 153.871 15.1173L156.54 13.7477C156.466 13.6033 156.392 13.4589 156.318 13.3146L153.649 14.6854ZM156.517 20.3063C156.663 20.5951 156.809 20.8838 156.955 21.1726L159.632 19.8191C159.486 19.5296 159.339 19.2401 159.193 18.9506L156.517 20.3063ZM159.571 26.3775C159.716 26.6669 159.86 26.9564 160.005 27.2458L162.689 25.9066C162.544 25.6165 162.399 25.3264 162.254 25.0363L159.571 26.3775ZM162.595 32.4645C162.738 32.7549 162.881 33.0454 163.024 33.3357L165.715 32.0091C165.572 31.7181 165.428 31.4272 165.284 31.1361L162.595 32.4645ZM165.592 38.5667C165.734 38.8576 165.876 39.1485 166.018 39.4393L168.714 38.1234C168.572 37.8321 168.43 37.5408 168.287 37.2494L165.592 38.5667ZM168.567 44.6804C168.708 44.9718 168.849 45.2632 168.99 45.5545L171.69 44.2476C171.549 43.956 171.408 43.6642 171.266 43.3723L168.567 44.6804ZM171.523 50.8043C171.663 51.0964 171.803 51.3883 171.944 51.6802L174.648 50.3805C174.507 50.0884 174.367 49.7962 174.226 49.5038L171.523 50.8043ZM174.464 56.9366C174.604 57.2286 174.744 57.5205 174.883 57.8122L177.59 56.5179C177.45 56.226 177.31 55.9339 177.171 55.6416L174.464 56.9366ZM177.396 63.0741C177.536 63.3669 177.675 63.6596 177.814 63.952L180.523 62.661C180.383 62.3685 180.243 62.0757 180.104 61.7828L177.396 63.0741ZM180.322 69.2167C180.462 69.5091 180.601 69.8013 180.74 70.0933L183.448 68.8037C183.309 68.5116 183.17 68.2194 183.031 67.927L180.322 69.2167ZM183.248 75.3595C183.387 75.6525 183.527 75.9454 183.666 76.238L186.374 74.9475C186.235 74.655 186.096 74.3622 185.956 74.0692L183.248 75.3595ZM186.178 81.5032C186.317 81.7954 186.457 82.0874 186.596 82.3791L189.303 81.0855C189.164 80.794 189.024 80.5022 188.885 80.2101L186.178 81.5032ZM189.117 87.6425C189.258 87.9353 189.398 88.2277 189.539 88.5197L192.243 87.2204C192.102 86.9286 191.962 86.6366 191.822 86.3441L189.117 87.6425ZM192.073 93.7763C192.143 93.922 192.213 94.0676 192.284 94.2131L194.984 92.906C194.914 92.7607 194.843 92.6154 194.773 92.4699L192.073 93.7763ZM192.284 94.2131C192.357 94.3644 192.43 94.5157 192.504 94.6668L195.204 93.359C195.13 93.2081 195.057 93.0571 194.984 92.906L192.284 94.2131ZM195.13 100.065C195.276 100.362 195.421 100.659 195.566 100.956L198.26 99.6363C198.115 99.3404 197.97 99.044 197.825 98.7472L195.13 100.065ZM198.202 106.307C198.351 106.607 198.5 106.907 198.649 107.206L201.335 105.871C201.187 105.573 201.039 105.274 200.89 104.975L198.202 106.307ZM201.317 112.536C201.464 112.829 201.612 113.122 201.76 113.414L204.437 112.06C204.29 111.769 204.142 111.477 203.995 111.185L201.317 112.536ZM204.495 118.771C204.647 119.066 204.799 119.361 204.951 119.655L207.615 118.277C207.464 117.984 207.313 117.691 207.161 117.397L204.495 118.771ZM207.714 124.939C207.871 125.236 208.029 125.533 208.186 125.83L210.836 124.422C210.679 124.127 210.522 123.832 210.366 123.536L207.714 124.939ZM211.013 131.081C211.17 131.369 211.327 131.655 211.484 131.941L214.114 130.498C213.958 130.214 213.802 129.929 213.647 129.644L211.013 131.081ZM214.422 137.212C214.586 137.5 214.749 137.788 214.912 138.074L217.518 136.588C217.356 136.304 217.194 136.018 217.032 135.732L214.422 137.212ZM217.925 143.256C218.097 143.546 218.268 143.833 218.44 144.12L221.015 142.582C220.845 142.297 220.675 142.012 220.506 141.726L217.925 143.256ZM221.548 149.204C221.729 149.493 221.91 149.781 222.091 150.068L224.627 148.465C224.448 148.182 224.269 147.897 224.09 147.611L221.548 149.204ZM225.354 155.089C225.536 155.361 225.718 155.632 225.9 155.901L228.385 154.221C228.206 153.956 228.026 153.689 227.847 153.421L225.354 155.089ZM229.376 160.87C229.57 161.137 229.763 161.402 229.957 161.665L232.374 159.888C232.184 159.63 231.994 159.37 231.804 159.108L229.376 160.87ZM233.646 166.473C233.854 166.732 234.062 166.989 234.27 167.244L236.594 165.347C236.391 165.098 236.188 164.847 235.985 164.594L233.646 166.473ZM238.231 171.838C238.457 172.085 238.683 172.329 238.909 172.572L241.101 170.524C240.883 170.29 240.664 170.053 240.445 169.814L238.231 171.838ZM243.22 176.867C243.467 177.095 243.715 177.319 243.962 177.54L245.962 175.305C245.726 175.093 245.489 174.878 245.253 174.66L243.22 176.867ZM248.72 181.391C248.992 181.588 249.264 181.781 249.537 181.97L251.247 179.505C250.991 179.327 250.734 179.146 250.478 178.96L248.72 181.391ZM254.836 185.129C255.148 185.285 255.46 185.435 255.773 185.581L257.036 182.859C256.749 182.726 256.462 182.588 256.175 182.445L254.836 185.129ZM261.661 187.673C262.002 187.757 262.344 187.835 262.686 187.906L263.3 184.969C262.993 184.905 262.686 184.835 262.379 184.76L261.661 187.673ZM268.933 188.494C269.284 188.487 269.636 188.474 269.988 188.453L269.813 185.458C269.499 185.477 269.186 185.489 268.873 185.495L268.933 188.494ZM276.183 187.395C276.513 187.302 276.844 187.203 277.175 187.097L276.265 184.239C275.965 184.334 275.666 184.424 275.367 184.508L276.183 187.395ZM282.899 184.692C283.192 184.539 283.485 184.382 283.779 184.22L282.328 181.594C282.055 181.745 281.783 181.891 281.512 182.032L282.899 184.692ZM288.961 180.888C289.226 180.694 289.491 180.496 289.756 180.294L287.941 177.906C287.69 178.097 287.439 178.284 287.188 178.468L288.961 180.888ZM294.458 176.347C294.697 176.128 294.936 175.906 295.175 175.681L293.117 173.497C292.887 173.714 292.658 173.927 292.429 174.138L294.458 176.347ZM299.503 171.295C299.718 171.062 299.934 170.826 300.149 170.588L297.926 168.575C297.716 168.806 297.507 169.034 297.299 169.26L299.503 171.295ZM304.058 166.031C304.276 165.762 304.495 165.491 304.715 165.217L302.374 163.341C302.159 163.609 301.945 163.874 301.732 164.136L304.058 166.031ZM308.329 160.508C308.527 160.239 308.725 159.968 308.924 159.695L306.497 157.931C306.303 158.199 306.108 158.465 305.914 158.728L308.329 160.508ZM312.416 154.712C312.596 154.446 312.776 154.179 312.956 153.91L310.463 152.241C310.286 152.506 310.108 152.769 309.931 153.031L312.416 154.712ZM316.222 148.879C316.405 148.59 316.588 148.298 316.771 148.005L314.227 146.416C314.046 146.705 313.865 146.993 313.685 147.279L316.222 148.879ZM319.86 142.928C320.027 142.646 320.194 142.364 320.361 142.08L317.775 140.558C317.61 140.839 317.445 141.119 317.28 141.397L319.86 142.928ZM323.389 136.812C323.559 136.511 323.728 136.208 323.898 135.903L321.278 134.442C321.11 134.743 320.942 135.043 320.774 135.342L323.389 136.812ZM326.711 130.759C326.866 130.47 327.022 130.179 327.177 129.887L324.53 128.476C324.376 128.766 324.221 129.054 324.067 129.341L326.711 130.759ZM329.995 124.502C330.152 124.196 330.31 123.888 330.468 123.579L327.796 122.214C327.64 122.521 327.483 122.827 327.327 123.131L329.995 124.502ZM333.104 118.336C333.249 118.043 333.394 117.749 333.539 117.454L330.848 116.129C330.704 116.422 330.559 116.714 330.415 117.005L333.104 118.336ZM336.17 112.032C336.317 111.725 336.464 111.416 336.611 111.107L333.902 109.818C333.756 110.125 333.609 110.432 333.463 110.738L336.17 112.032ZM339.144 105.71C339.28 105.417 339.416 105.122 339.552 104.827L336.828 103.571C336.693 103.864 336.557 104.157 336.422 104.449L339.144 105.71ZM342.016 99.4198C342.154 99.1141 342.291 98.8075 342.429 98.5L339.692 97.2726C339.555 97.5788 339.417 97.8841 339.28 98.1884L342.016 99.4198ZM344.916 92.8888C345.043 92.5971 345.171 92.3047 345.299 92.0115L342.55 90.8114C342.422 91.1034 342.295 91.3946 342.168 91.6852L344.916 92.8888ZM347.615 86.6515C347.744 86.3492 347.873 86.0461 348.003 85.7422L345.243 84.566C345.114 84.8688 344.985 85.1708 344.856 85.472L347.615 86.6515ZM350.346 80.1893C350.477 79.8762 350.607 79.5623 350.739 79.2476L347.969 78.0942C347.838 78.4078 347.708 78.7207 347.578 79.0327L350.346 80.1893ZM353.029 73.6968C353.151 73.3988 353.273 73.1002 353.395 72.801L350.617 71.6683C350.495 71.9666 350.374 72.2643 350.252 72.5613L353.029 73.6968ZM355.602 67.3423C355.725 67.035 355.848 66.7271 355.972 66.4185L353.186 65.3048C353.063 65.6125 352.94 65.9195 352.817 66.2259L355.602 67.3423ZM358.203 60.7912C358.328 60.4745 358.452 60.1571 358.577 59.8391L355.784 58.7435C355.66 59.0606 355.536 59.3771 355.411 59.693L358.203 60.7912ZM360.741 54.281C360.858 53.9799 360.974 53.6783 361.09 53.376L358.291 52.2969C358.175 52.5984 358.059 52.8993 357.943 53.1996L360.741 54.281ZM363.197 47.8726C363.315 47.5633 363.432 47.2535 363.55 46.9431L360.745 45.8792C360.628 46.1889 360.51 46.4981 360.393 46.8066L363.197 47.8726ZM365.679 41.2916C365.798 40.9741 365.917 40.656 366.036 40.3373L363.225 39.2881C363.106 39.6061 362.988 39.9236 362.869 40.2404L365.679 41.2916ZM368.128 34.6946C368.24 34.3926 368.351 34.0901 368.462 33.7871L365.647 32.7516C365.536 33.054 365.424 33.3558 365.313 33.6572L368.128 34.6946ZM370.477 28.2776C370.589 27.9684 370.701 27.6587 370.814 27.3485L367.994 26.3255C367.881 26.6351 367.769 26.9443 367.657 27.2528L370.477 28.2776ZM372.848 21.7084C372.961 21.392 373.075 21.075 373.189 20.7575L370.364 19.7467C370.251 20.0636 370.137 20.38 370.024 20.6959L372.848 21.7084ZM375.242 14.9859C375.3 14.8241 375.357 14.6621 375.414 14.5L372.586 13.5C372.529 13.6619 372.471 13.8236 372.414 13.9852L375.242 14.9859Z" fill="#F1E2C3"/>
<path d="M299.5 12.5C316.158 144.785 337.734 176.571 387.5 155.5M12 207.5C52.3882 212.296 75.0469 180.097 115.5 12.5" stroke="#F1E2C3" stroke-width="3" stroke-linecap="round" stroke-dasharray="1 6"/>
<path d="M67 327L70.3677 337.365H81.2658L72.4491 343.771L75.8168 354.135L67 347.729L58.1832 354.135L61.5509 343.771L52.7342 337.365H63.6323L67 327Z" fill="#F1E2C3"/>
<path d="M37.5 159L39.1839 164.182H44.6329L40.2245 167.385L41.9084 172.568L37.5 169.365L33.0916 172.568L34.7755 167.385L30.3671 164.182H35.8161L37.5 159Z" fill="#F1E2C3"/>
<path d="M316.5 509L318.184 514.182H323.633L319.225 517.385L320.908 522.568L316.5 519.365L312.092 522.568L313.775 517.385L309.367 514.182H314.816L316.5 509Z" fill="#F1E2C3"/>
<path d="M60 471.618L62.8922 480.519L63.0044 480.865H63.3677H72.727L65.1552 486.366L64.8613 486.58L64.9735 486.925L67.8657 495.826L60.2939 490.325L60 490.111L59.7061 490.325L52.1343 495.826L55.0265 486.925L55.1387 486.58L54.8448 486.366L47.273 480.865H56.6323H56.9956L57.1078 480.519L60 471.618Z" stroke="#F1E2C3"/>
<path d="M308.5 358.618L309.708 362.337L309.821 362.682H310.184H314.094L310.931 364.981L310.637 365.194L310.749 365.54L311.957 369.259L308.794 366.96L308.5 366.747L308.206 366.96L305.043 369.259L306.251 365.54L306.363 365.194L306.069 364.981L302.906 362.682H306.816H307.179L307.292 362.337L308.5 358.618Z" stroke="#F1E2C3"/>
<path d="M74.5 211.618L75.7083 215.337L75.8206 215.682H76.1839H80.0941L76.9306 217.981L76.6367 218.194L76.749 218.54L77.9573 222.259L74.7939 219.96L74.5 219.747L74.2061 219.96L71.0427 222.259L72.251 218.54L72.3633 218.194L72.0694 217.981L68.9059 215.682H72.8161H73.1794L73.2917 215.337L74.5 211.618Z" stroke="#F1E2C3"/>
<path d="M331 226.618L333.892 235.519L334.004 235.865H334.368H343.727L336.155 241.366L335.861 241.58L335.974 241.925L338.866 250.826L331.294 245.325L331 245.111L330.706 245.325L323.134 250.826L326.026 241.925L326.139 241.58L325.845 241.366L318.273 235.865H327.632H327.996L328.108 235.519L331 226.618Z" stroke="#F1E2C3"/>
<path d="M275 91.618L277.892 100.519L278.004 100.865H278.368H287.727L280.155 106.366L279.861 106.58L279.974 106.925L282.866 115.826L275.294 110.325L275 110.111L274.706 110.325L267.134 115.826L270.026 106.925L270.139 106.58L269.845 106.366L262.273 100.865H271.632H271.996L272.108 100.519L275 91.618Z" stroke="#F1E2C3"/>
<path d="M185 129L188.368 139.365H199.266L190.449 145.771L193.817 156.135L185 149.729L176.183 156.135L179.551 145.771L170.734 139.365H181.632L185 129Z" fill="#F1E2C3"/>
<path d="M346 429L349.368 439.365H360.266L351.449 445.771L354.817 456.135L346 449.729L337.183 456.135L340.551 445.771L331.734 439.365H342.632L346 429Z" fill="#F1E2C3"/>
</svg>
