<svg xmlns="http://www.w3.org/2000/svg" fill="none" viewBox="45 0 435 649">
<rect x="63" width="400" height="600" rx="20" fill="#3D5D38"/>
<mask id="mask0_63_2" style="mask-type:alpha" maskUnits="userSpaceOnUse" x="63" y="0" width="400" height="600">
<rect x="63" width="400" height="600" rx="20" fill="#7B9D50"/>
</mask>
<g mask="url(#mask0_63_2)">
<circle cx="262.5" cy="440.5" r="217.5" fill="#FFF8EA"/>
<path d="M95.3366 144.545L228.54 311.41L63.4117 355.656L95.3366 144.545Z" fill="#FFF8EA"/>
<path d="M430.855 144.545L462.78 355.656L297.652 311.41L430.855 144.545Z" fill="#FFF8EA"/>
<ellipse cx="390" cy="472" rx="101" ry="64" fill="#BE8D43"/>
</g>
<mask id="mask1_63_2" style="mask-type:alpha" maskUnits="userSpaceOnUse" x="45" y="135" width="435" height="514">
<circle cx="262.5" cy="431.5" r="217.5" fill="#D9D9D9"/>
<path d="M95.3366 135.545L228.54 302.41L63.4117 346.656L95.3366 135.545Z" fill="#D9D9D9"/>
<path d="M430.855 135.545L462.78 346.656L297.652 302.41L430.855 135.545Z" fill="#D9D9D9"/>
</mask>
<g mask="url(#mask1_63_2)">
<path d="M359 240C359 286.944 305.05 325 238.5 325C171.95 325 118 286.944 118 240C118 193.056 171.95 155 238.5 155C305.05 155 359 193.056 359 240Z" fill="#BE8D43"/>
<ellipse cx="196" cy="349" rx="72" ry="71" fill="#BE8D43"/>
<ellipse cx="154" cy="456.5" rx="76" ry="50.5" fill="#5B5469"/>
</g>
<rect x="63" y="500" width="400" height="100" rx="20" fill="#F1E2C3"/>
<path d="M108.781 562.117L113.586 561.156V535.234H107.352L106.156 540.039H103.016V531.391H129.195V540.039H126.078L124.859 535.234H118.625V561.156L123.43 562.117V565H108.781V562.117ZM152.258 545.57V549.391H141.219V561.156H152.258L153.219 556.352H156.336V565H132.078V562.117L136.156 561.156V535.234L132.078 534.273V531.648L141.219 531.391H155.844V539.57H152.727L151.531 535.234H141.219V545.57H152.258ZM190.906 537.156L189.453 540.766L182.023 555.883L178.18 556.117L170.75 540.531L169.531 537.156V561.156L174.102 562.117V565H161.141V562.117L165.219 561.156V535.234L161.141 534.273V531.648L171.945 531.391L180.617 550.609L189.688 531.648L199.789 531.391V534.273L195.688 535.234V561.156L199.789 562.117V565H186.336V562.117L190.906 561.156V537.156ZM207.688 535.234L203.609 534.273V531.648L212.727 531.391H217.766C221.312 531.391 224.039 532.273 225.945 534.039C227.852 535.805 228.805 538.203 228.805 541.234C228.805 544.922 227.672 547.727 225.406 549.648C223.156 551.57 219.969 552.531 215.844 552.531H212.727V561.156L216.805 562.117V565H203.609V562.117L207.688 561.156V535.234ZM215.844 548.688C218.469 548.688 220.445 548.109 221.773 546.953C223.102 545.797 223.766 544.133 223.766 541.961C223.766 539.977 223.219 538.359 222.125 537.109C221.047 535.859 219.516 535.234 217.531 535.234H212.727V548.688H215.844ZM252.57 545.57V549.391H241.531V561.156H252.57L253.531 556.352H256.648V565H232.391V562.117L236.469 561.156V535.234L232.391 534.273V531.648L241.531 531.391H256.156V539.57H253.039L251.844 535.234H241.531V545.57H252.57ZM265.531 535.234L261.453 534.273V531.648L270.57 531.391H275.844C279.234 531.391 281.883 532.164 283.789 533.711C285.695 535.242 286.648 537.352 286.648 540.039C286.648 544.742 284.57 547.859 280.414 549.391C281.18 550.062 282.141 551.508 283.297 553.727L287.094 561.344L290.492 562.117V565H283.297L279.219 556.117C278.453 554.461 277.781 553.242 277.203 552.461C276.625 551.664 276.008 551.117 275.352 550.82C274.695 550.508 273.82 550.352 272.727 550.352H270.57V561.156L274.648 562.117V565H261.453V562.117L265.531 561.156V535.234ZM274.18 546.766C276.508 546.766 278.328 546.242 279.641 545.195C280.953 544.133 281.609 542.656 281.609 540.766C281.609 539.172 281.047 537.852 279.922 536.805C278.812 535.758 277.375 535.234 275.609 535.234H270.57V546.766H274.18ZM305.867 531.648L310.672 531.391L321.336 561.203L325.32 562.117V565H311.398V562.117L315.852 561.203L314.023 555.883H301.555L299.68 561.203L304.18 562.117V565H290.984V562.117L294.922 561.203L305.867 531.648ZM307.883 537.602L302.844 552.039H312.734L307.883 537.602ZM338.961 562.117V565H326V562.117L330.078 561.156V535.234L326 534.273V531.648L336.078 531.391L351.922 558.227V535.234L347.844 534.273V531.648L360.312 531.391V534.273L356.234 535.234V565H350.234L334.391 538.562V561.156L338.961 562.117ZM386.633 535.961C386.492 535.898 386.148 535.797 385.602 535.656C385.07 535.5 384.344 535.352 383.422 535.211C382.516 535.07 381.531 535 380.469 535C377.234 535 374.742 536.18 372.992 538.539C371.258 540.883 370.391 544.266 370.391 548.688C370.391 552.844 371.328 555.961 373.203 558.039C375.078 560.117 377.586 561.156 380.727 561.156C382.227 561.156 383.688 560.867 385.109 560.289C386.531 559.711 387.75 559.086 388.766 558.414C389.797 557.742 390.312 557.375 390.312 557.312L392.234 560.43C392.234 560.523 391.656 561.016 390.5 561.906C389.359 562.781 387.898 563.594 386.117 564.344C384.336 565.094 382.375 565.469 380.234 565.469C375.375 565.469 371.602 564.047 368.914 561.203C366.227 558.359 364.883 554.266 364.883 548.922C364.883 545.281 365.539 542.109 366.852 539.406C368.164 536.688 370.023 534.594 372.43 533.125C374.852 531.656 377.695 530.922 380.961 530.922C382.523 530.922 384.102 531.102 385.695 531.461C387.305 531.805 388.719 532.195 389.938 532.633C391.156 533.055 391.766 533.281 391.766 533.312L391.531 541.469H387.922L386.633 535.961ZM416.492 545.57V549.391H405.453V561.156H416.492L417.453 556.352H420.57V565H396.312V562.117L400.391 561.156V535.234L396.312 534.273V531.648L405.453 531.391H420.078V539.57H416.961L415.766 535.234H405.453V545.57H416.492Z" fill="#0F1B2C"/>
<path d="M234.805 37.9609L225.922 25.2344L222.312 24.2734V21.6484L235.039 21.3906V24.2734L231.922 25.2344L238.156 34.3516L244.391 25.2344L241.039 24.2734V21.6484L253.766 21.3906V24.2734L249.43 25.2344L240.805 37.7266L250.156 51.1562L254.234 52.1172V55H241.273V52.1172L244.156 51.3906L237.43 41.5703L230.234 51.1562L234.312 52.1172V55H221.586V52.1172L224.727 51.3906L234.805 37.9609ZM256.883 52.1172L260.961 51.1562V25.2344L256.883 24.2734V21.6484L270.078 21.3906V24.2734L266 25.2344V51.1562L270.078 52.1172V55H256.883V52.1172ZM271.508 21.6484L284.961 21.3906V24.2734L280.578 25.1875L288.125 48.5312L296.141 25.2344L291.664 24.2734V21.6484L304.625 21.3906V24.2734L300.898 25.2344L290.234 55H285.43L275.211 25.2344L271.508 24.2734V21.6484Z" fill="#0F1B2C"/>
<circle cx="184" cy="398" r="65" fill="#0F1B2C"/>
<ellipse cx="174.5" cy="360.5" rx="30.5" ry="15.5" fill="white"/>
<ellipse cx="199" cy="428" rx="25" ry="13" fill="white"/>
<circle cx="341" cy="398" r="65" fill="#0F1B2C"/>
<ellipse cx="331.5" cy="360.5" rx="30.5" ry="15.5" fill="white"/>
<ellipse cx="356" cy="428" rx="25" ry="13" fill="white"/>
<path d="M409.5 339.731C397.211 302.206 381.581 295.112 341 302.731" stroke="#5B5469" stroke-width="30" stroke-linecap="round"/>
<path d="M116 339.731C128.289 302.206 143.919 295.112 184.5 302.731" stroke="#5B5469" stroke-width="30" stroke-linecap="round"/>
<path d="M387 190C387 201.961 376.691 215.661 353.388 226.965C330.773 237.935 298.828 245 263 245C227.172 245 195.227 237.935 172.612 226.965C149.309 215.661 139 201.961 139 190C139 178.039 149.309 164.339 172.612 153.035C195.227 142.065 227.172 135 263 135C298.828 135 330.773 142.065 353.388 153.035C376.691 164.339 387 178.039 387 190Z" stroke="#F7F16D" stroke-width="20"/>
</svg>