<svg width="402" height="600" viewBox="0 0 402 600" fill="none" xmlns="http://www.w3.org/2000/svg">
<rect x="1" width="400" height="600" rx="20" fill="#404B73"/>
<rect x="1" y="500" width="400" height="100" rx="20" fill="#F1E2C3"/>
<path d="M46.6406 562.117L51.4453 561.156V535.234H45.2109L44.0156 540.039H40.875V531.391H67.0547V540.039H63.9375L62.7188 535.234H56.4844V561.156L61.2891 562.117V565H46.6406V562.117ZM69.4688 562.117L73.5469 561.156V535.234L69.4688 534.273V531.648L83.1562 531.391V534.273L78.5859 535.234V545.805H94.6641V535.234L90.1172 534.273V531.648L103.781 531.391V534.273L99.7031 535.234V561.156L103.781 562.117V565H90.1172V562.117L94.6641 561.156V549.648H78.5859V561.156L83.1562 562.117V565H69.4688V562.117ZM128.273 545.57V549.391H117.234V561.156H128.273L129.234 556.352H132.352V565H108.094V562.117L112.172 561.156V535.234L108.094 534.273V531.648L117.234 531.391H131.859V539.57H128.742L127.547 535.234H117.234V545.57H128.273ZM170.93 535.961C170.789 535.898 170.445 535.797 169.898 535.656C169.367 535.5 168.641 535.352 167.719 535.211C166.812 535.07 165.828 535 164.766 535C161.531 535 159.039 536.18 157.289 538.539C155.555 540.883 154.688 544.266 154.688 548.688C154.688 552.844 155.625 555.961 157.5 558.039C159.375 560.117 161.883 561.156 165.023 561.156C166.523 561.156 167.984 560.867 169.406 560.289C170.828 559.711 172.047 559.086 173.062 558.414C174.094 557.742 174.609 557.375 174.609 557.312L176.531 560.43C176.531 560.523 175.953 561.016 174.797 561.906C173.656 562.781 172.195 563.594 170.414 564.344C168.633 565.094 166.672 565.469 164.531 565.469C159.672 565.469 155.898 564.047 153.211 561.203C150.523 558.359 149.18 554.266 149.18 548.922C149.18 545.281 149.836 542.109 151.148 539.406C152.461 536.688 154.32 534.594 156.727 533.125C159.148 531.656 161.992 530.922 165.258 530.922C166.82 530.922 168.398 531.102 169.992 531.461C171.602 531.805 173.016 532.195 174.234 532.633C175.453 533.055 176.062 533.281 176.062 533.312L175.828 541.469H172.219L170.93 535.961ZM180.141 562.117L184.219 561.156V535.234L180.141 534.273V531.648L193.828 531.391V534.273L189.258 535.234V545.805H205.336V535.234L200.789 534.273V531.648L214.453 531.391V534.273L210.375 535.234V561.156L214.453 562.117V565H200.789V562.117L205.336 561.156V549.648H189.258V561.156L193.828 562.117V565H180.141V562.117ZM231.492 531.648L236.297 531.391L246.961 561.203L250.945 562.117V565H237.023V562.117L241.477 561.203L239.648 555.883H227.18L225.305 561.203L229.805 562.117V565H216.609V562.117L220.547 561.203L231.492 531.648ZM233.508 537.602L228.469 552.039H238.359L233.508 537.602ZM257.156 535.234L253.078 534.273V531.648L262.195 531.391H267.469C270.859 531.391 273.508 532.164 275.414 533.711C277.32 535.242 278.273 537.352 278.273 540.039C278.273 544.742 276.195 547.859 272.039 549.391C272.805 550.062 273.766 551.508 274.922 553.727L278.719 561.344L282.117 562.117V565H274.922L270.844 556.117C270.078 554.461 269.406 553.242 268.828 552.461C268.25 551.664 267.633 551.117 266.977 550.82C266.32 550.508 265.445 550.352 264.352 550.352H262.195V561.156L266.273 562.117V565H253.078V562.117L257.156 561.156V535.234ZM265.805 546.766C268.133 546.766 269.953 546.242 271.266 545.195C272.578 544.133 273.234 542.656 273.234 540.766C273.234 539.172 272.672 537.852 271.547 536.805C270.438 535.758 269 535.234 267.234 535.234H262.195V546.766H265.805ZM284.531 562.117L288.609 561.156V535.234L284.531 534.273V531.648L297.727 531.391V534.273L293.648 535.234V561.156L297.727 562.117V565H284.531V562.117ZM318.375 530.922C321.453 530.922 324.109 531.602 326.344 532.961C328.594 534.32 330.305 536.266 331.477 538.797C332.664 541.328 333.258 544.305 333.258 547.727C333.258 551.211 332.594 554.297 331.266 556.984C329.938 559.672 328.07 561.758 325.664 563.242C323.273 564.727 320.531 565.469 317.438 565.469C312.734 565.469 309.117 564.008 306.586 561.086C304.055 558.164 302.789 553.945 302.789 548.43C302.789 544.945 303.422 541.875 304.688 539.219C305.953 536.562 307.758 534.516 310.102 533.078C312.461 531.641 315.219 530.922 318.375 530.922ZM318.141 535C314.938 535 312.492 536.078 310.805 538.234C309.133 540.391 308.297 543.711 308.297 548.195C308.297 552.555 309.078 555.844 310.641 558.062C312.219 560.281 314.562 561.391 317.672 561.391C320.875 561.391 323.352 560.266 325.102 558.016C326.867 555.766 327.75 552.414 327.75 547.961C327.75 543.68 326.93 540.453 325.289 538.281C323.664 536.094 321.281 535 318.141 535ZM340.688 562.117L345.492 561.156V535.234H339.258L338.062 540.039H334.922V531.391H361.102V540.039H357.984L356.766 535.234H350.531V561.156L355.336 562.117V565H340.688V562.117Z" fill="#0F1B2C"/>
<path d="M167.391 21.6484L180.844 21.3906V24.2734L176.461 25.1875L184.008 48.5312L192.023 25.2344L187.547 24.2734V21.6484L200.508 21.3906V24.2734L196.781 25.2344L186.117 55H181.312L171.094 25.2344L167.391 24.2734V21.6484ZM201.938 52.1172L206.016 51.1562V25.2344L201.938 24.2734V21.6484L215.133 21.3906V24.2734L211.055 25.2344V51.1562L215.133 52.1172V55H201.938V52.1172ZM219.469 52.1172L223.547 51.1562V25.2344L219.469 24.2734V21.6484L232.664 21.3906V24.2734L228.586 25.2344V51.1562L232.664 52.1172V55H219.469V52.1172Z" fill="#0F1B2C"/>
<path d="M279.125 282.263L355.479 363.964L104.979 416.464L49.1393 319.967L279.125 282.263Z" fill="#5B3F25"/>
<path d="M242.979 213.303L279.979 283.464L50.9792 324.803L24.4792 248.464L242.979 213.303Z" fill="#B2875F"/>
<ellipse cx="222.339" cy="344.75" rx="144.455" ry="105.598" transform="rotate(-20 222.339 344.75)" fill="#22262A"/>
<mask id="mask0_66_104" style="mask-type:alpha" maskUnits="userSpaceOnUse" x="78" y="247" width="282" height="211">
<ellipse cx="143.602" cy="100.798" rx="143.602" ry="100.798" transform="matrix(0.945271 -0.326285 0.358306 0.933604 47.4792 305.174)" fill="#22262A"/>
</mask>
<g mask="url(#mask0_66_104)">
<ellipse cx="150.5" cy="397.5" rx="113.5" ry="76.5" fill="#D8CFC8"/>
</g>
<path fill-rule="evenodd" clip-rule="evenodd" d="M105.479 416.359V500.464H357.479V369.464H329.236L105.479 416.359Z" fill="#B2875F"/>
<path fill-rule="evenodd" clip-rule="evenodd" d="M105.479 416.359L104.979 416.464L51.4792 324.01V500.464H105.479V416.359ZM70.5087 316.464H51.4792V319.583L70.5087 316.464Z" fill="#997758"/>
<circle cx="105.479" cy="259.464" r="85" fill="#22262A"/>
<path d="M104.479 416.536L136.861 425.464L401.479 370.408L353.919 363.464L104.479 416.536Z" fill="#D2A67E"/>
<path d="M35.9004 156.356L88.5892 205.672L27.238 228.002L35.9004 156.356Z" fill="#22262A"/>
<path d="M174.251 156.356L121.563 205.672L182.914 228.002L174.251 156.356Z" fill="#22262A"/>
<mask id="mask1_66_104" style="mask-type:alpha" maskUnits="userSpaceOnUse" x="20" y="174" width="171" height="171">
<circle cx="105.479" cy="259.464" r="85" fill="#22262A"/>
</mask>
<g mask="url(#mask1_66_104)">
<ellipse cx="105.979" cy="328.964" rx="68.5" ry="58.5" fill="#EFE3D7"/>
</g>
<circle cx="82.5" cy="281.5" r="22.5" fill="#22262A"/>
<circle cx="127.5" cy="281.5" r="22.5" fill="#22262A"/>
<path d="M105.979 282.464L89.0918 255.464L122.867 255.464L105.979 282.464Z" fill="#22262A"/>
<path d="M163 232.5C163 236.243 162.418 239.949 161.287 243.406C160.157 246.864 158.499 250.006 156.41 252.653C154.321 255.299 151.84 257.398 149.11 258.831C146.381 260.263 143.455 261 140.5 261C137.545 261 134.619 260.263 131.89 258.831C129.16 257.398 126.679 255.299 124.59 252.653C122.501 250.006 120.843 246.864 119.713 243.406C118.582 239.949 118 236.243 118 232.5L140.5 232.5H163Z" fill="#B6A156"/>
<path d="M92 232.5C92 236.243 91.418 239.949 90.2873 243.406C89.1566 246.864 87.4992 250.006 85.4099 252.653C83.3206 255.299 80.8402 257.398 78.1104 258.831C75.3806 260.263 72.4547 261 69.5 261C66.5453 261 63.6194 260.263 60.8896 258.831C58.1598 257.398 55.6794 255.299 53.5901 252.653C51.5008 250.006 49.8434 246.864 48.7127 243.406C47.582 239.949 47 236.243 47 232.5L69.5 232.5H92Z" fill="#B6A156"/>
<mask id="mask2_66_104" style="mask-type:alpha" maskUnits="userSpaceOnUse" x="47" y="231" width="45" height="29">
<path d="M92 231.5C92 235.243 91.418 238.949 90.2873 242.406C89.1566 245.864 87.4992 249.006 85.4099 251.653C83.3206 254.299 80.8402 256.398 78.1104 257.831C75.3806 259.263 72.4547 260 69.5 260C66.5453 260 63.6194 259.263 60.8896 257.831C58.1598 256.398 55.6794 254.299 53.5901 251.653C51.5008 249.006 49.8434 245.864 48.7127 242.406C47.582 238.949 47 235.243 47 231.5L69.5 231.5H92Z" fill="#B6A156"/>
</mask>
<g mask="url(#mask2_66_104)">
<ellipse cx="69.5" cy="231.5" rx="17.5" ry="22.1667" fill="#0F1B2C"/>
</g>
<mask id="mask3_66_104" style="mask-type:alpha" maskUnits="userSpaceOnUse" x="118" y="231" width="45" height="29">
<path d="M163 231.5C163 235.243 162.418 238.949 161.287 242.406C160.157 245.864 158.499 249.006 156.41 251.653C154.321 254.299 151.84 256.398 149.11 257.831C146.381 259.263 143.455 260 140.5 260C137.545 260 134.619 259.263 131.89 257.831C129.16 256.398 126.679 254.299 124.59 251.653C122.501 249.006 120.843 245.864 119.713 242.406C118.582 238.949 118 235.243 118 231.5L140.5 231.5H163Z" fill="#B6A156"/>
</mask>
<g mask="url(#mask3_66_104)">
<ellipse cx="140.5" cy="231.5" rx="17.5" ry="22.1667" fill="#0F1B2C"/>
</g>
</svg>
