<svg width="400" height="600" viewBox="0 0 400 600" fill="none" xmlns="http://www.w3.org/2000/svg">
<rect width="400" height="600" rx="20" fill="#C85733"/>
<rect x="91" y="321" width="309" height="229" fill="#294445"/>
<rect y="500" width="400" height="100" rx="20" fill="#F1E2C3"/>
<path d="M83.1875 562.117L87.9922 561.156V535.234H81.7578L80.5625 540.039H77.4219V531.391H103.602V540.039H100.484L99.2656 535.234H93.0312V561.156L97.8359 562.117V565H83.1875V562.117ZM106.016 562.117L110.094 561.156V535.234L106.016 534.273V531.648L119.703 531.391V534.273L115.133 535.234V545.805H131.211V535.234L126.664 534.273V531.648L140.328 531.391V534.273L136.25 535.234V561.156L140.328 562.117V565H126.664V562.117L131.211 561.156V549.648H115.133V561.156L119.703 562.117V565H106.016V562.117ZM164.82 545.57V549.391H153.781V561.156H164.82L165.781 556.352H168.898V565H144.641V562.117L148.719 561.156V535.234L144.641 534.273V531.648L153.781 531.391H168.406V539.57H165.289L164.094 535.234H153.781V545.57H164.82ZM189.078 535.234L185 534.273V531.648L194.117 531.391H200.117C204.852 531.391 208.555 532.812 211.227 535.656C213.898 538.484 215.234 542.508 215.234 547.727C215.234 551.211 214.586 554.258 213.289 556.867C212.008 559.477 210.164 561.484 207.758 562.891C205.352 564.297 202.57 565 199.414 565H185V562.117L189.078 561.156V535.234ZM199.648 561.156C202.789 561.156 205.25 560.062 207.031 557.875C208.828 555.688 209.727 552.383 209.727 547.961C209.727 543.648 208.859 540.453 207.125 538.375C205.406 536.281 202.992 535.234 199.883 535.234H194.117V561.156H199.648ZM240.477 545.57V549.391H229.438V561.156H240.477L241.438 556.352H244.555V565H220.297V562.117L224.375 561.156V535.234L220.297 534.273V531.648L229.438 531.391H244.062V539.57H240.945L239.75 535.234H229.438V545.57H240.477ZM247.672 531.648L261.125 531.391V534.273L256.742 535.188L264.289 558.531L272.305 535.234L267.828 534.273V531.648L280.789 531.391V534.273L277.062 535.234L266.398 565H261.594L251.375 535.234L247.672 534.273V531.648ZM282.219 562.117L286.297 561.156V535.234L282.219 534.273V531.648L295.414 531.391V534.273L291.336 535.234V561.156L295.414 562.117V565H282.219V562.117ZM319.203 555.648H322.555V565H299.281V562.117L303.359 561.156V535.234L299.281 534.273V531.648L312.477 531.391V534.273L308.398 535.234V561.156H318.242L319.203 555.648Z" fill="#0F1B2C"/>
<path d="M180.078 37.9609L171.195 25.2344L167.586 24.2734V21.6484L180.312 21.3906V24.2734L177.195 25.2344L183.43 34.3516L189.664 25.2344L186.312 24.2734V21.6484L199.039 21.3906V24.2734L194.703 25.2344L186.078 37.7266L195.43 51.1562L199.508 52.1172V55H186.547V52.1172L189.43 51.3906L182.703 41.5703L175.508 51.1562L179.586 52.1172V55H166.859V52.1172L170 51.3906L180.078 37.9609ZM200.234 21.6484L213.688 21.3906V24.2734L209.305 25.1875L216.852 48.5312L224.867 25.2344L220.391 24.2734V21.6484L233.352 21.3906V24.2734L229.625 25.2344L218.961 55H214.156L203.938 25.2344L200.234 24.2734V21.6484Z" fill="#0F1B2C"/>
<ellipse cx="98.0968" cy="322.32" rx="31" ry="16.5" transform="rotate(-30 98.0968 322.32)" fill="#99B6B9" fill-opacity="0.7"/>
<ellipse cx="44.0968" cy="228.789" rx="31" ry="16.5" transform="rotate(-30 44.0968 228.789)" fill="#DDF0F1" fill-opacity="0.7"/>
<path fill-rule="evenodd" clip-rule="evenodd" d="M17.5 244.722L17.5121 244.715C22.3828 252.159 37.7919 251.482 52.3468 243.079C66.9017 234.676 75.1921 221.669 71.1815 213.729L71.1936 213.722L124.944 306.82C120.387 298.928 104.674 299.47 89.8468 308.031C75.0197 316.591 66.6937 329.928 71.25 337.82L17.5 244.722ZM71.5121 338.246L71.5 338.253L71.25 337.82C71.3336 337.965 71.421 338.107 71.5121 338.246ZM125.181 307.26C125.107 307.112 125.027 306.965 124.944 306.82L125.194 307.253L125.181 307.26Z" fill="#C0D4D6" fill-opacity="0.7"/>
<mask id="mask0_60_106" style="mask-type:alpha" maskUnits="userSpaceOnUse" x="16" y="207" width="111" height="137">
<ellipse cx="98.0968" cy="322.32" rx="31" ry="16.5" transform="rotate(-30 98.0968 322.32)" fill="#99B6B9" fill-opacity="0.7"/>
<ellipse cx="44.0968" cy="228.789" rx="31" ry="16.5" transform="rotate(-30 44.0968 228.789)" fill="#DDF0F1" fill-opacity="0.7"/>
<path fill-rule="evenodd" clip-rule="evenodd" d="M17.5 244.722L17.5121 244.715C22.3829 252.159 37.7919 251.482 52.3468 243.079C66.9017 234.676 75.1921 221.669 71.1815 213.729L71.1936 213.722L124.944 306.82C120.387 298.928 104.674 299.47 89.8468 308.031C75.0197 316.591 66.6936 329.928 71.25 337.82L17.5 244.722ZM71.5121 338.246L71.5 338.253L71.25 337.82C71.3336 337.965 71.421 338.107 71.5121 338.246ZM125.181 307.26C125.106 307.112 125.027 306.965 124.944 306.82L125.194 307.253L125.181 307.26Z" fill="#C0D4D6" fill-opacity="0.7"/>
</mask>
<g mask="url(#mask0_60_106)">
<rect x="17" y="276" width="156" height="76" fill="#499AA5" fill-opacity="0.7"/>
</g>
<path d="M133 293C123.335 293 115.5 300.835 115.5 310.5C115.5 320.165 123.335 328 133 328L133 293ZM340 293L133 293L133 328L340 328L340 293Z" fill="#C39A69"/>
<path d="M118 303C117.724 303 117.5 303.224 117.5 303.5C117.5 303.776 117.724 304 118 304V303ZM118 304H134V303H118V304Z" fill="#F1E2C3"/>
<path d="M116 310C115.724 310 115.5 310.224 115.5 310.5C115.5 310.776 115.724 311 116 311V310ZM116 311H132V310H116V311Z" fill="#F1E2C3"/>
<path d="M118 317C117.724 317 117.5 317.224 117.5 317.5C117.5 317.776 117.724 318 118 318V317ZM118 318H134V317H118V318Z" fill="#F1E2C3"/>
<mask id="mask1_60_106" style="mask-type:alpha" maskUnits="userSpaceOnUse" x="0" y="0" width="400" height="600">
<rect width="400" height="600" rx="20" fill="#C85733"/>
</mask>
<g mask="url(#mask1_60_106)">
<circle cx="364.5" cy="275.5" r="62.5" fill="#E3B782"/>
<path d="M316.374 178.012L357.039 229.107L316.555 244.553L316.374 178.012Z" fill="#E3B782"/>
<path d="M363.939 170.918L404.604 222.013L364.12 237.459L363.939 170.918Z" fill="#E3B782"/>
<path d="M341 323.5C331.335 323.5 323.5 331.335 323.5 341C323.5 350.665 331.335 358.5 341 358.5L341 323.5ZM548 323.5L341 323.5L341 358.5L548 358.5L548 323.5Z" fill="#C39A69"/>
</g>
<path d="M326 333.5C325.724 333.5 325.5 333.724 325.5 334C325.5 334.276 325.724 334.5 326 334.5V333.5ZM326 334.5H342V333.5H326V334.5Z" fill="#F1E2C3"/>
<path d="M324 340.5C323.724 340.5 323.5 340.724 323.5 341C323.5 341.276 323.724 341.5 324 341.5V340.5ZM324 341.5H340V340.5H324V341.5Z" fill="#F1E2C3"/>
<path d="M326 347.5C325.724 347.5 325.5 347.724 325.5 348C325.5 348.276 325.724 348.5 326 348.5V347.5ZM326 348.5H342V347.5H326V348.5Z" fill="#F1E2C3"/>
<ellipse cx="324" cy="272.5" rx="9" ry="14.5" fill="#FA5733"/>
<ellipse cx="360" cy="273.5" rx="9" ry="14.5" fill="#FA5733"/>
<ellipse cx="10.114" cy="6.59026" rx="10.114" ry="6.59026" transform="matrix(0.973711 0.227786 -0.131746 0.991284 315.736 255)" fill="#E3B782"/>
<ellipse cx="10.114" cy="6.59026" rx="10.114" ry="6.59026" transform="matrix(0.973711 -0.227786 0.131746 0.991284 348 260.934)" fill="#E3B782"/>
</svg>
