<svg width="400" height="600" viewBox="0 0 400 600" fill="none" xmlns="http://www.w3.org/2000/svg">
<rect width="400" height="600" rx="20" fill="#DCB44C"/>
<rect width="400" height="600" rx="20" fill="#DCB44C"/>
<path d="M101.864 382.619C101.917 382.656 101.849 383.016 101.507 383.586C101.641 382.867 101.812 382.582 101.864 382.619Z" stroke="#09121F" stroke-width="100"/>
<mask id="path-4-inside-1_17_29" fill="white">
<path d="M389.5 544C370.35 414.859 356.08 339.899 268.5 295.5L167.5 236L157.5 339C175.074 433.676 166.952 478.883 117 544H389.5Z"/>
</mask>
<path d="M268.5 295.5L116.226 553.982L124.394 558.793L132.85 563.08L268.5 295.5ZM389.5 544V844H737.268L686.255 499.994L389.5 544ZM117 544L-121.031 361.404L-491.236 844H117V544ZM157.5 339L-141.096 310.01L-145.186 352.137L-137.461 393.752L157.5 339ZM167.5 236L319.774 -22.4815L-85.6283 -261.307L-131.096 207.01L167.5 236ZM132.85 563.08C126.374 559.797 113.421 551.759 100.068 537.128C86.8665 522.662 80.2712 509.415 77.8884 503.717C76.2057 499.693 77.8255 502.249 81.1528 518.199C84.5431 534.451 87.902 555.347 92.7451 588.006L686.255 499.994C677.953 444.008 665.507 353.703 631.434 272.226C588.535 169.647 514.947 84.0887 404.15 27.9202L132.85 563.08ZM389.5 244H117V844H389.5V244ZM355.031 726.596C396.108 673.048 438.969 602.925 457.063 509.812C473.932 423.005 463.52 343.826 452.461 284.248L-137.461 393.752C-136.013 401.555 -135.138 407.201 -134.616 411.194C-134.097 415.171 -134.011 416.875 -134.014 416.812C-134.04 416.306 -134.386 408.051 -131.919 395.357C-129.316 381.963 -124.938 370.54 -120.92 362.581C-117.535 355.88 -116.006 354.853 -121.031 361.404L355.031 726.596ZM456.096 367.99L466.096 264.99L-131.096 207.01L-141.096 310.01L456.096 367.99ZM15.2262 494.482L116.226 553.982L420.774 37.0185L319.774 -22.4815L15.2262 494.482Z" fill="#08172C" mask="url(#path-4-inside-1_17_29)"/>
<rect x="55" y="119.723" width="160" height="220.377" transform="rotate(-20 55 119.723)" fill="#704729"/>
<path d="M156.836 340.098L130.218 326.5L167.427 313.012L156.836 340.098Z" fill="#704729"/>
<path d="M194.919 326.293L168.301 312.695L205.511 299.207L194.919 326.293Z" fill="#704729"/>
<path d="M232.026 312.842L205.408 299.244L242.618 285.756L232.026 312.842Z" fill="#704729"/>
<path d="M270.11 299.037L243.492 285.439L280.701 271.95L270.11 299.037Z" fill="#704729"/>
<rect y="500" width="400" height="100" rx="20" fill="#F1E2C3"/>
<path d="M90.6406 562.117L95.4453 561.156V535.234H89.2109L88.0156 540.039H84.875V531.391H111.055V540.039H107.938L106.719 535.234H100.484V561.156L105.289 562.117V565H90.6406V562.117ZM113.469 562.117L117.547 561.156V535.234L113.469 534.273V531.648L127.156 531.391V534.273L122.586 535.234V545.805H138.664V535.234L134.117 534.273V531.648L147.781 531.391V534.273L143.703 535.234V561.156L147.781 562.117V565H134.117V562.117L138.664 561.156V549.648H122.586V561.156L127.156 562.117V565H113.469V562.117ZM172.273 545.57V549.391H161.234V561.156H172.273L173.234 556.352H176.352V565H152.094V562.117L156.172 561.156V535.234L152.094 534.273V531.648L161.234 531.391H175.859V539.57H172.742L171.547 535.234H161.234V545.57H172.273ZM212.375 546.039V549.883H201.336V561.156L206.141 562.117V565H192.219V562.117L196.297 561.156V535.234L192.219 534.273V531.648L201.336 531.391H215.984V539.312H212.867L211.648 535.234H201.336V546.039H212.375ZM236.141 530.922C239.219 530.922 241.875 531.602 244.109 532.961C246.359 534.32 248.07 536.266 249.242 538.797C250.43 541.328 251.023 544.305 251.023 547.727C251.023 551.211 250.359 554.297 249.031 556.984C247.703 559.672 245.836 561.758 243.43 563.242C241.039 564.727 238.297 565.469 235.203 565.469C230.5 565.469 226.883 564.008 224.352 561.086C221.82 558.164 220.555 553.945 220.555 548.43C220.555 544.945 221.188 541.875 222.453 539.219C223.719 536.562 225.523 534.516 227.867 533.078C230.227 531.641 232.984 530.922 236.141 530.922ZM235.906 535C232.703 535 230.258 536.078 228.57 538.234C226.898 540.391 226.062 543.711 226.062 548.195C226.062 552.555 226.844 555.844 228.406 558.062C229.984 560.281 232.328 561.391 235.438 561.391C238.641 561.391 241.117 560.266 242.867 558.016C244.633 555.766 245.516 552.414 245.516 547.961C245.516 543.68 244.695 540.453 243.055 538.281C241.43 536.094 239.047 535 235.906 535ZM272.375 530.922C275.453 530.922 278.109 531.602 280.344 532.961C282.594 534.32 284.305 536.266 285.477 538.797C286.664 541.328 287.258 544.305 287.258 547.727C287.258 551.211 286.594 554.297 285.266 556.984C283.938 559.672 282.07 561.758 279.664 563.242C277.273 564.727 274.531 565.469 271.438 565.469C266.734 565.469 263.117 564.008 260.586 561.086C258.055 558.164 256.789 553.945 256.789 548.43C256.789 544.945 257.422 541.875 258.688 539.219C259.953 536.562 261.758 534.516 264.102 533.078C266.461 531.641 269.219 530.922 272.375 530.922ZM272.141 535C268.938 535 266.492 536.078 264.805 538.234C263.133 540.391 262.297 543.711 262.297 548.195C262.297 552.555 263.078 555.844 264.641 558.062C266.219 560.281 268.562 561.391 271.672 561.391C274.875 561.391 277.352 560.266 279.102 558.016C280.867 555.766 281.75 552.414 281.75 547.961C281.75 543.68 280.93 540.453 279.289 538.281C277.664 536.094 275.281 535 272.141 535ZM311.75 555.648H315.102V565H291.828V562.117L295.906 561.156V535.234L291.828 534.273V531.648L305.023 531.391V534.273L300.945 535.234V561.156H310.789L311.75 555.648Z" fill="#0F1B2C"/>
<path d="M200.609 20.9219C205 20.9219 208.094 22.3047 209.891 25.0703C211.703 27.8359 212.609 32.0547 212.609 37.7266C212.609 43.4922 211.586 47.8906 209.539 50.9219C207.492 53.9531 204.359 55.4688 200.141 55.4688C195.922 55.4688 192.82 54.0234 190.836 51.1328C188.867 48.2422 187.883 44.0078 187.883 38.4297C187.883 26.7422 192.125 20.9062 200.609 20.9219ZM200.375 25C197.781 25 195.93 26.0625 194.82 28.1875C193.727 30.3125 193.18 33.6484 193.18 38.1953C193.18 42.5859 193.758 45.8828 194.914 48.0859C196.086 50.2891 197.906 51.3906 200.375 51.3906C202.844 51.3906 204.617 50.2891 205.695 48.0859C206.789 45.8828 207.336 42.5078 207.336 37.9609C207.336 33.4766 206.812 30.1953 205.766 28.1172C204.734 26.0391 202.938 25 200.375 25Z" fill="#0F1B2C"/>
</svg>
