<svg width="400" height="600" viewBox="0 0 400 600" fill="none" xmlns="http://www.w3.org/2000/svg">
<rect width="400" height="600" rx="20" fill="#5D2525"/>
<ellipse cx="200" cy="246.5" rx="135" ry="156.5" fill="#09192F"/>
<circle cx="200" cy="265" r="108" fill="#BFA172"/>
<circle cx="72.5" cy="481.5" r="28.5" fill="#9F7D49"/>
<circle cx="326.5" cy="481.5" r="28.5" fill="#9F7D49"/>
<path fill-rule="evenodd" clip-rule="evenodd" d="M322.303 264.729C324.07 254.223 325 243.329 325 232.164C325 145.365 268.812 75 199.5 75C130.188 75 74 145.365 74 232.164C74 243.329 74.9297 254.223 76.6974 264.729C100.817 222.026 146.774 193.178 199.5 193.178C252.226 193.178 298.183 222.026 322.303 264.729Z" fill="#09192F"/>
<path fill-rule="evenodd" clip-rule="evenodd" d="M322.303 241C324.07 231.752 325 222.164 325 212.336C325 135.935 268.812 74 199.5 74C130.188 74 74 135.935 74 212.336C74 222.164 74.9297 231.752 76.6974 241C100.817 203.413 146.774 178.021 199.5 178.021C252.226 178.021 298.183 203.413 322.303 241Z" fill="#152336"/>
<ellipse cx="200" cy="298" rx="91" ry="83" fill="#9F7D49"/>
<ellipse cx="146.5" cy="292" rx="32.5" ry="27" fill="#BEE74A"/>
<ellipse cx="253.5" cy="292" rx="32.5" ry="27" fill="#BEE74A"/>
<ellipse cx="147" cy="299" rx="15" ry="34" fill="#0F1B2C"/>
<ellipse cx="255" cy="299" rx="15" ry="34" fill="#0F1B2C"/>
<path d="M70 320.804C70 312.628 77.1634 306 86 306H313C321.837 306 329 312.628 329 320.804V489.196C329 497.372 321.837 504 313 504H86C77.1634 504 70 497.372 70 489.196V320.804Z" fill="#3D4B53"/>
<rect y="500" width="400" height="100" rx="20" fill="#F1E2C3"/>
<path d="M60.2656 562.117L65.0703 561.156V535.234H58.8359L57.6406 540.039H54.5V531.391H80.6797V540.039H77.5625L76.3438 535.234H70.1094V561.156L74.9141 562.117V565H60.2656V562.117ZM83.0938 562.117L87.1719 561.156V535.234L83.0938 534.273V531.648L96.7812 531.391V534.273L92.2109 535.234V545.805H108.289V535.234L103.742 534.273V531.648L117.406 531.391V534.273L113.328 535.234V561.156L117.406 562.117V565H103.742V562.117L108.289 561.156V549.648H92.2109V561.156L96.7812 562.117V565H83.0938V562.117ZM141.898 545.57V549.391H130.859V561.156H141.898L142.859 556.352H145.977V565H121.719V562.117L125.797 561.156V535.234L121.719 534.273V531.648L130.859 531.391H145.484V539.57H142.367L141.172 535.234H130.859V545.57H141.898ZM161.844 562.117L165.922 561.156V535.234L161.844 534.273V531.648L175.531 531.391V534.273L170.961 535.234V545.805H187.039V535.234L182.492 534.273V531.648L196.156 531.391V534.273L192.078 535.234V561.156L196.156 562.117V565H182.492V562.117L187.039 561.156V549.648H170.961V561.156L175.531 562.117V565H161.844V562.117ZM220.648 545.57V549.391H209.609V561.156H220.648L221.609 556.352H224.727V565H200.469V562.117L204.547 561.156V535.234L200.469 534.273V531.648L209.609 531.391H224.234V539.57H221.117L219.922 535.234H209.609V545.57H220.648ZM233.609 535.234L229.531 534.273V531.648L238.648 531.391H243.922C247.312 531.391 249.961 532.164 251.867 533.711C253.773 535.242 254.727 537.352 254.727 540.039C254.727 544.742 252.648 547.859 248.492 549.391C249.258 550.062 250.219 551.508 251.375 553.727L255.172 561.344L258.57 562.117V565H251.375L247.297 556.117C246.531 554.461 245.859 553.242 245.281 552.461C244.703 551.664 244.086 551.117 243.43 550.82C242.773 550.508 241.898 550.352 240.805 550.352H238.648V561.156L242.727 562.117V565H229.531V562.117L233.609 561.156V535.234ZM242.258 546.766C244.586 546.766 246.406 546.242 247.719 545.195C249.031 544.133 249.688 542.656 249.688 540.766C249.688 539.172 249.125 537.852 248 536.805C246.891 535.758 245.453 535.234 243.688 535.234H238.648V546.766H242.258ZM290.516 537.156L289.062 540.766L281.633 555.883L277.789 556.117L270.359 540.531L269.141 537.156V561.156L273.711 562.117V565H260.75V562.117L264.828 561.156V535.234L260.75 534.273V531.648L271.555 531.391L280.227 550.609L289.297 531.648L299.398 531.391V534.273L295.297 535.234V561.156L299.398 562.117V565H285.945V562.117L290.516 561.156V537.156ZM303.453 562.117L307.531 561.156V535.234L303.453 534.273V531.648L316.648 531.391V534.273L312.57 535.234V561.156L316.648 562.117V565H303.453V562.117ZM325.062 562.117L329.867 561.156V535.234H323.633L322.438 540.039H319.297V531.391H345.477V540.039H342.359L341.141 535.234H334.906V561.156L339.711 562.117V565H325.062V562.117Z" fill="#0F1B2C"/>
<path d="M176.586 52.1172L180.664 51.1562V25.2344L176.586 24.2734V21.6484L189.781 21.3906V24.2734L185.703 25.2344V51.1562L189.781 52.1172V55H176.586V52.1172ZM205.648 37.9609L196.766 25.2344L193.156 24.2734V21.6484L205.883 21.3906V24.2734L202.766 25.2344L209 34.3516L215.234 25.2344L211.883 24.2734V21.6484L224.609 21.3906V24.2734L220.273 25.2344L211.648 37.7266L221 51.1562L225.078 52.1172V55H212.117V52.1172L215 51.3906L208.273 41.5703L201.078 51.1562L205.156 52.1172V55H192.43V52.1172L195.57 51.3906L205.648 37.9609Z" fill="#0F1B2C"/>
<ellipse cx="166.104" cy="381.158" rx="32.5" ry="31.5" transform="rotate(-3 166.104 381.158)" fill="#D9D9D9"/>
<path fill-rule="evenodd" clip-rule="evenodd" d="M164.56 351.698C148.284 352.551 135.785 366.301 136.63 382.423C137.307 395.336 146.311 405.8 158.224 409.053C159.71 409.231 160.217 408.326 160.176 407.56C160.14 406.867 159.983 404.571 159.855 402.127C152.524 403.865 150.445 400.828 149.769 399.218C149.394 398.396 147.822 395.882 146.534 395.254C145.474 394.761 143.93 393.489 146.396 393.323C148.714 393.165 150.483 395.23 151.082 396.077C153.964 400.351 158.134 398.889 159.788 398.034C159.946 396.124 160.653 394.807 161.462 394.033C154.869 393.647 147.887 391.489 147.302 380.327C147.136 377.154 148.14 374.468 149.911 372.327C149.578 371.613 148.39 368.676 149.8 364.579C149.8 364.579 152.227 363.683 158.058 367.145C160.381 366.365 162.868 365.905 165.372 365.774C167.876 365.643 170.397 365.84 172.788 366.373C178.224 362.284 180.733 362.957 180.733 362.957C182.563 366.885 181.689 369.93 181.433 370.675C183.418 372.619 184.695 375.149 184.863 378.359C185.45 389.557 178.694 392.398 172.177 393.471C173.293 394.327 174.306 396.03 174.449 398.766C174.653 402.669 174.781 405.807 174.833 406.792C174.873 407.558 175.473 408.441 176.931 408.072C188.364 403.596 196.224 392.211 195.549 379.335C194.704 363.213 180.837 350.845 164.56 351.698Z" fill="#1B1F23"/>
<path d="M275.236 391.376L243.787 388.162C242.911 388.073 242.129 388.71 241.988 390.087L236.111 447.6C236.073 447.974 236.71 448.756 237.585 448.846L281.011 453.284C281.887 453.373 282.669 452.736 282.707 452.362L287.361 406.825C287.438 406.071 287.362 405.818 287.203 405.621L275.882 391.723C275.721 391.527 275.489 391.402 275.236 391.376Z" fill="#E9E9E0"/>
<path d="M275.778 391.597L274.466 404.437L287.306 405.749L275.778 391.597Z" fill="#D9D7CA"/>
<path d="M281.011 453.284L237.585 448.846C236.71 448.756 236.073 447.974 236.162 447.099L237.883 430.262L284.479 435.024L282.759 451.86C282.669 452.736 281.887 453.373 281.011 453.284Z" fill="#0096E6"/>
<path d="M254.954 446.214C254.509 446.567 254.019 446.817 253.486 446.962C252.953 447.106 252.39 447.148 251.797 447.088C251.145 447.021 250.557 446.842 250.033 446.548C249.509 446.255 249.066 445.856 248.704 445.349C248.342 444.843 248.079 444.228 247.919 443.503C247.759 442.778 247.726 441.956 247.82 441.038C247.913 440.12 248.112 439.324 248.415 438.652C248.718 437.978 249.099 437.432 249.556 437.01C250.013 436.588 250.53 436.284 251.109 436.098C251.688 435.911 252.297 435.852 252.938 435.918C253.531 435.978 254.075 436.133 254.567 436.383C255.06 436.633 255.489 436.977 255.854 437.412L254.512 438.383C254.294 438.071 254.042 437.836 253.753 437.677C253.464 437.519 253.158 437.422 252.832 437.388C252.467 437.351 252.112 437.384 251.766 437.488C251.42 437.593 251.101 437.797 250.806 438.101C250.511 438.405 250.261 438.811 250.06 439.32C249.859 439.83 249.714 440.462 249.626 441.221C249.56 441.964 249.573 442.603 249.662 443.141C249.752 443.679 249.905 444.126 250.124 444.484C250.342 444.841 250.604 445.111 250.909 445.298C251.214 445.484 251.544 445.595 251.901 445.631C252.257 445.668 252.597 445.637 252.921 445.541C253.245 445.444 253.55 445.265 253.836 445.006L254.954 446.214Z" fill="white"/>
<path d="M263.873 445.223C263.833 445.618 263.712 445.993 263.511 446.347C263.309 446.701 263.047 447.004 262.722 447.254C262.396 447.504 262.009 447.692 261.556 447.816C261.104 447.939 260.603 447.973 260.049 447.916C259.812 447.892 259.57 447.854 259.319 447.804C259.069 447.754 258.82 447.685 258.569 447.6C258.319 447.516 258.082 447.408 257.861 447.281C257.64 447.153 257.453 447.007 257.299 446.841L257.74 445.598C257.871 445.692 258.038 445.787 258.242 445.882C258.447 445.977 258.659 446.069 258.88 446.156C259.101 446.243 259.322 446.319 259.546 446.382C259.769 446.445 259.979 446.486 260.177 446.507C260.779 446.568 261.255 446.475 261.605 446.226C261.955 445.977 262.158 445.576 262.214 445.023C262.248 444.687 262.165 444.39 261.962 444.129C261.758 443.868 261.496 443.625 261.176 443.397C260.855 443.17 260.506 442.94 260.131 442.707C259.755 442.473 259.408 442.208 259.089 441.912C258.77 441.615 258.516 441.277 258.325 440.898C258.133 440.52 258.066 440.064 258.121 439.531C258.17 439.047 258.303 438.626 258.519 438.27C258.735 437.913 259.007 437.618 259.335 437.387C259.663 437.157 260.035 436.992 260.449 436.894C260.863 436.797 261.292 436.771 261.737 436.817C262.191 436.863 262.646 436.952 263.101 437.083C263.556 437.214 263.917 437.389 264.185 437.606C264.113 437.728 264.03 437.862 263.935 438.007C263.84 438.153 263.751 438.287 263.669 438.414C263.587 438.54 263.516 438.646 263.457 438.729C263.398 438.813 263.364 438.86 263.353 438.869C263.297 438.833 263.235 438.788 263.165 438.73C263.095 438.673 262.995 438.613 262.861 438.549C262.728 438.485 262.549 438.433 262.324 438.389C262.098 438.345 261.806 438.321 261.448 438.315C261.247 438.315 261.055 438.351 260.867 438.427C260.678 438.503 260.51 438.602 260.357 438.727C260.204 438.851 260.08 438.995 259.983 439.16C259.886 439.326 259.83 439.488 259.814 439.645C259.774 440.039 259.854 440.369 260.056 440.635C260.259 440.901 260.519 441.141 260.836 441.359C261.152 441.576 261.5 441.791 261.878 442.004C262.256 442.217 262.601 442.465 262.918 442.746C263.234 443.027 263.485 443.366 263.675 443.759C263.865 444.152 263.933 444.64 263.873 445.223Z" fill="white"/>
<path d="M271.903 446.044C271.863 446.438 271.742 446.814 271.541 447.168C271.339 447.521 271.077 447.824 270.752 448.075C270.426 448.325 270.039 448.513 269.586 448.636C269.133 448.76 268.633 448.793 268.079 448.737C267.842 448.712 267.599 448.674 267.349 448.625C267.099 448.575 266.85 448.506 266.599 448.421C266.348 448.336 266.112 448.229 265.891 448.101C265.669 447.973 265.483 447.827 265.329 447.662L265.77 446.419C265.901 446.512 266.067 446.607 266.272 446.702C266.477 446.798 266.689 446.89 266.91 446.977C267.131 447.064 267.352 447.139 267.576 447.202C267.799 447.266 268.008 447.307 268.207 447.327C268.809 447.389 269.285 447.295 269.635 447.046C269.984 446.797 270.187 446.396 270.244 445.844C270.278 445.508 270.195 445.21 269.991 444.95C269.788 444.689 269.526 444.445 269.206 444.218C268.885 443.99 268.536 443.761 268.16 443.527C267.785 443.294 267.438 443.029 267.119 442.732C266.8 442.436 266.546 442.098 266.354 441.719C266.163 441.34 266.096 440.884 266.15 440.351C266.2 439.868 266.333 439.447 266.549 439.09C266.765 438.733 267.037 438.438 267.365 438.208C267.693 437.977 268.064 437.813 268.478 437.715C268.892 437.617 269.322 437.592 269.766 437.637C270.22 437.684 270.676 437.773 271.131 437.904C271.586 438.035 271.947 438.21 272.215 438.426C272.142 438.548 272.06 438.682 271.965 438.828C271.87 438.974 271.781 439.108 271.699 439.234C271.617 439.361 271.546 439.466 271.487 439.55C271.428 439.634 271.394 439.68 271.383 439.689C271.326 439.654 271.264 439.608 271.195 439.551C271.125 439.493 271.025 439.434 270.891 439.37C270.758 439.306 270.579 439.253 270.354 439.21C270.128 439.166 269.836 439.141 269.477 439.135C269.277 439.136 269.085 439.172 268.897 439.248C268.708 439.324 268.539 439.423 268.386 439.547C268.234 439.672 268.109 439.816 268.012 439.981C267.916 440.146 267.86 440.308 267.844 440.465C267.803 440.86 267.883 441.19 268.086 441.456C268.289 441.722 268.549 441.962 268.865 442.179C269.181 442.397 269.53 442.612 269.907 442.824C270.285 443.037 270.631 443.286 270.947 443.567C271.264 443.848 271.515 444.187 271.705 444.579C271.894 444.972 271.963 445.461 271.903 446.044Z" fill="white"/>
<path d="M254.185 410.029L254.628 405.694C254.689 405.097 255.224 404.66 255.822 404.721C256.421 404.783 256.955 404.347 257.017 403.748C257.078 403.15 256.643 402.615 256.044 402.554C254.251 402.371 252.644 403.68 252.46 405.473L252.018 409.807C251.895 411.003 250.824 411.875 249.629 411.753C249.029 411.692 248.495 412.128 248.434 412.726C248.373 413.324 248.808 413.859 249.407 413.92C250.603 414.043 251.475 415.114 251.353 416.309L250.91 420.644C250.727 422.436 252.036 424.044 253.829 424.227C254.428 424.288 254.962 423.852 255.023 423.254C255.084 422.656 254.65 422.121 254.05 422.06C253.452 421.999 253.016 421.462 253.077 420.865L253.52 416.531C253.653 415.23 253.184 414.015 252.355 413.127C253.347 412.424 254.052 411.329 254.185 410.029Z" fill="#0096E6"/>
<path d="M275.636 414.411C274.441 414.289 273.568 413.217 273.69 412.022L274.133 407.688C274.316 405.895 273.007 404.288 271.215 404.104C270.615 404.043 270.081 404.479 270.02 405.077C269.959 405.675 270.394 406.21 270.993 406.272C271.591 406.333 272.027 406.869 271.966 407.466L271.523 411.801C271.39 413.101 271.859 414.316 272.688 415.205C271.697 415.907 270.992 417.002 270.859 418.302L270.416 422.637C270.355 423.234 269.819 423.671 269.221 423.61C268.622 423.549 268.088 423.985 268.027 424.583C267.966 425.181 268.401 425.716 269 425.777C270.792 425.96 272.4 424.651 272.583 422.859L273.026 418.524C273.148 417.329 274.219 416.456 275.415 416.578C276.014 416.639 276.548 416.203 276.609 415.605C276.67 415.007 276.235 414.472 275.636 414.411Z" fill="#0096E6"/>
<path d="M148.818 429.879L104.879 432.182L107.182 476.121L151.121 473.819L148.818 429.879Z" fill="#F7DF1E"/>
<path d="M136.194 464.963C137.155 466.362 138.362 467.363 140.399 467.257C142.11 467.167 143.158 466.255 143.096 465.073C143.022 463.657 141.872 463.215 139.946 462.49L138.891 462.101C135.845 460.988 133.782 459.501 133.606 456.14C133.443 453.043 135.679 450.562 139.367 450.369C141.992 450.231 143.927 451.046 145.413 453.367L142.305 455.6C141.531 454.367 140.741 453.907 139.555 453.97C138.346 454.033 137.62 454.84 137.672 455.843C137.737 457.081 138.531 457.542 140.342 458.217L141.398 458.605C144.985 459.925 147.046 461.355 147.227 464.804C147.422 468.521 144.608 470.711 140.686 470.916C136.852 471.117 134.279 469.42 132.941 467.088L136.194 464.963ZM121.627 466.085C122.336 467.202 122.977 468.144 124.396 468.07C125.752 467.998 126.58 467.423 126.472 465.359L125.736 451.319L129.865 451.103L130.604 465.198C130.828 469.474 128.423 471.551 124.764 471.743C121.458 471.916 119.454 470.306 118.373 468.296L121.627 466.085Z" fill="black"/>
<path d="M86.1433 78.6517L157.19 135.723L84.1952 169.761L86.1433 78.6517Z" fill="#BFA172"/>
<path d="M312.209 78.6517L241.162 135.723L314.157 169.761L312.209 78.6517Z" fill="#BFA172"/>
</svg>
