<svg width="400" height="600" viewBox="0 0 400 600" fill="none" xmlns="http://www.w3.org/2000/svg">
<rect width="400" height="600" rx="20" fill="#907AAC"/>
<rect x="87" y="406" width="225" height="112" fill="#08172C"/>
<rect y="500" width="400" height="100" rx="20" fill="#F1E2C3"/>
<path d="M28.0391 562.117L32.8438 561.156V535.234H26.6094L25.4141 540.039H22.2734V531.391H48.4531V540.039H45.3359L44.1172 535.234H37.8828V561.156L42.6875 562.117V565H28.0391V562.117ZM50.8672 562.117L54.9453 561.156V535.234L50.8672 534.273V531.648L64.5547 531.391V534.273L59.9844 535.234V545.805H76.0625V535.234L71.5156 534.273V531.648L85.1797 531.391V534.273L81.1016 535.234V561.156L85.1797 562.117V565H71.5156V562.117L76.0625 561.156V549.648H59.9844V561.156L64.5547 562.117V565H50.8672V562.117ZM109.672 545.57V549.391H98.6328V561.156H109.672L110.633 556.352H113.75V565H89.4922V562.117L93.5703 561.156V535.234L89.4922 534.273V531.648L98.6328 531.391H113.258V539.57H110.141L108.945 535.234H98.6328V545.57H109.672ZM159.383 537.156L157.93 540.766L150.5 555.883L146.656 556.117L139.227 540.531L138.008 537.156V561.156L142.578 562.117V565H129.617V562.117L133.695 561.156V535.234L129.617 534.273V531.648L140.422 531.391L149.094 550.609L158.164 531.648L168.266 531.391V534.273L164.164 535.234V561.156L168.266 562.117V565H154.812V562.117L159.383 561.156V537.156ZM185.281 531.648L190.086 531.391L200.75 561.203L204.734 562.117V565H190.812V562.117L195.266 561.203L193.438 555.883H180.969L179.094 561.203L183.594 562.117V565H170.398V562.117L174.336 561.203L185.281 531.648ZM187.297 537.602L182.258 552.039H192.148L187.297 537.602ZM234.43 562.609C234.43 562.672 233.828 562.953 232.625 563.453C231.438 563.938 229.93 564.398 228.102 564.836C226.273 565.258 224.305 565.469 222.195 565.469C217.336 565.469 213.562 564.047 210.875 561.203C208.188 558.359 206.844 554.266 206.844 548.922C206.844 545.281 207.5 542.109 208.812 539.406C210.125 536.688 211.984 534.594 214.391 533.125C216.812 531.656 219.656 530.922 222.922 530.922C224.484 530.922 226.062 531.102 227.656 531.461C229.266 531.805 230.68 532.195 231.898 532.633C233.117 533.055 233.727 533.281 233.727 533.312L233.492 541.234H230.352L228.922 535.961C228.766 535.898 228.391 535.797 227.797 535.656C227.203 535.5 226.422 535.352 225.453 535.211C224.5 535.07 223.492 535 222.43 535C219.195 535 216.703 536.18 214.953 538.539C213.219 540.883 212.352 544.266 212.352 548.688C212.352 552.875 213.305 556.039 215.211 558.18C217.117 560.32 219.688 561.391 222.922 561.391C223.906 561.391 224.891 561.305 225.875 561.133C226.875 560.961 227.711 560.781 228.383 560.594C229.055 560.391 229.477 560.258 229.648 560.195V552.32L225.57 551.359V548.734L238.039 548.477V551.359L234.43 552.32V562.609ZM242.117 562.117L246.195 561.156V535.234L242.117 534.273V531.648L255.312 531.391V534.273L251.234 535.234V561.156L255.312 562.117V565H242.117V562.117ZM282.125 535.961C281.984 535.898 281.641 535.797 281.094 535.656C280.562 535.5 279.836 535.352 278.914 535.211C278.008 535.07 277.023 535 275.961 535C272.727 535 270.234 536.18 268.484 538.539C266.75 540.883 265.883 544.266 265.883 548.688C265.883 552.844 266.82 555.961 268.695 558.039C270.57 560.117 273.078 561.156 276.219 561.156C277.719 561.156 279.18 560.867 280.602 560.289C282.023 559.711 283.242 559.086 284.258 558.414C285.289 557.742 285.805 557.375 285.805 557.312L287.727 560.43C287.727 560.523 287.148 561.016 285.992 561.906C284.852 562.781 283.391 563.594 281.609 564.344C279.828 565.094 277.867 565.469 275.727 565.469C270.867 565.469 267.094 564.047 264.406 561.203C261.719 558.359 260.375 554.266 260.375 548.922C260.375 545.281 261.031 542.109 262.344 539.406C263.656 536.688 265.516 534.594 267.922 533.125C270.344 531.656 273.188 530.922 276.453 530.922C278.016 530.922 279.594 531.102 281.188 531.461C282.797 531.805 284.211 532.195 285.43 532.633C286.648 533.055 287.258 533.281 287.258 533.312L287.023 541.469H283.414L282.125 535.961ZM291.57 562.117L295.648 561.156V535.234L291.57 534.273V531.648L304.766 531.391V534.273L300.688 535.234V561.156L304.766 562.117V565H291.57V562.117ZM322.062 531.648L326.867 531.391L337.531 561.203L341.516 562.117V565H327.594V562.117L332.047 561.203L330.219 555.883H317.75L315.875 561.203L320.375 562.117V565H307.18V562.117L311.117 561.203L322.062 531.648ZM324.078 537.602L319.039 552.039H328.93L324.078 537.602ZM355.156 562.117V565H342.195V562.117L346.273 561.156V535.234L342.195 534.273V531.648L352.273 531.391L368.117 558.227V535.234L364.039 534.273V531.648L376.508 531.391V534.273L372.43 535.234V565H366.43L350.586 538.562V561.156L355.156 562.117Z" fill="#0F1B2C"/>
<path d="M193.391 52.1172L197.469 51.1562V25.2344L193.391 24.2734V21.6484L206.586 21.3906V24.2734L202.508 25.2344V51.1562L206.586 52.1172V55H193.391V52.1172Z" fill="#0F1B2C"/>
<path d="M113.749 156.749L172.305 172.439L129.439 215.305L113.749 156.749Z" fill="#D7DED4"/>
<path d="M287.246 156.749L271.556 215.305L228.69 172.439L287.246 156.749Z" fill="#D7DED4"/>
<ellipse cx="200" cy="406" rx="150" ry="40" fill="#09121F"/>
<path fill-rule="evenodd" clip-rule="evenodd" d="M271.106 421.889C273.631 411.874 275 401.15 275 390C275 345.475 253.175 307.747 223.012 294.795C215.51 294.272 207.825 294 200 294C192.175 294 184.49 294.272 176.988 294.795C146.825 307.747 125 345.475 125 390C125 401.15 126.369 411.874 128.894 421.889C150.055 427.063 174.271 430 200 430C225.729 430 249.945 427.063 271.106 421.889Z" fill="#D7DED4"/>
<path d="M189 420C189 423.94 188.224 427.841 186.716 431.481C185.209 435.12 182.999 438.427 180.213 441.213C177.427 443.999 174.12 446.209 170.481 447.716C166.841 449.224 162.94 450 159 450C155.06 450 151.159 449.224 147.519 447.716C143.88 446.209 140.573 443.999 137.787 441.213C135.001 438.427 132.791 435.12 131.284 431.48C129.776 427.841 129 423.94 129 420L159 420H189Z" fill="#D7DED4"/>
<path d="M271 420C271 423.94 270.224 427.841 268.716 431.481C267.209 435.12 264.999 438.427 262.213 441.213C259.427 443.999 256.12 446.209 252.481 447.716C248.841 449.224 244.94 450 241 450C237.06 450 233.159 449.224 229.519 447.716C225.88 446.209 222.573 443.999 219.787 441.213C217.001 438.427 214.791 435.12 213.284 431.48C211.776 427.841 211 423.94 211 420L241 420H271Z" fill="#D7DED4"/>
<circle cx="200" cy="236" r="75" fill="#E7F2E6"/>
<ellipse cx="173.5" cy="222.5" rx="12.5" ry="16.5" fill="#08172C"/>
<ellipse cx="225.5" cy="222.5" rx="12.5" ry="16.5" fill="#08172C"/>
<path d="M125 294.133L333 239.133" stroke="#09121F" stroke-width="8" stroke-linecap="round"/>
<path d="M314.023 244.113L333.358 239" stroke="#D9D9D9" stroke-width="8" stroke-linecap="square"/>
<ellipse cx="200" cy="169" rx="50" ry="20" fill="#152336"/>
<ellipse cx="200" cy="167" rx="35" ry="14" fill="#09121F"/>
<rect x="165" y="113" width="70" height="56" fill="#09121F"/>
<ellipse cx="200" cy="113" rx="35" ry="14" fill="#152336"/>
</svg>
