<svg width="400" height="600" viewBox="0 0 400 600" fill="none" xmlns="http://www.w3.org/2000/svg">
<rect width="400" height="600" rx="20" fill="#703248"/>
<path d="M93.9757 91.2279L189.12 169.696L93.8993 213.392L93.9757 91.2279Z" fill="#979582"/>
<path d="M307.583 91.5785L307.659 213.742L212.439 170.046L307.583 91.5785Z" fill="#979582"/>
<ellipse cx="200" cy="449.5" rx="129" ry="135.5" fill="#979582"/>
<rect y="500" width="400" height="100" rx="20" fill="#F1E2C3"/>
<path d="M76.8594 562.117L81.6641 561.156V535.234H75.4297L74.2344 540.039H71.0938V531.391H97.2734V540.039H94.1562L92.9375 535.234H86.7031V561.156L91.5078 562.117V565H76.8594V562.117ZM99.6875 562.117L103.766 561.156V535.234L99.6875 534.273V531.648L113.375 531.391V534.273L108.805 535.234V545.805H124.883V535.234L120.336 534.273V531.648L134 531.391V534.273L129.922 535.234V561.156L134 562.117V565H120.336V562.117L124.883 561.156V549.648H108.805V561.156L113.375 562.117V565H99.6875V562.117ZM158.492 545.57V549.391H147.453V561.156H158.492L159.453 556.352H162.57V565H138.312V562.117L142.391 561.156V535.234L138.312 534.273V531.648L147.453 531.391H162.078V539.57H158.961L157.766 535.234H147.453V545.57H158.492ZM208.203 537.156L206.75 540.766L199.32 555.883L195.477 556.117L188.047 540.531L186.828 537.156V561.156L191.398 562.117V565H178.438V562.117L182.516 561.156V535.234L178.438 534.273V531.648L189.242 531.391L197.914 550.609L206.984 531.648L217.086 531.391V534.273L212.984 535.234V561.156L217.086 562.117V565H203.633V562.117L208.203 561.156V537.156ZM237.453 530.922C240.531 530.922 243.188 531.602 245.422 532.961C247.672 534.32 249.383 536.266 250.555 538.797C251.742 541.328 252.336 544.305 252.336 547.727C252.336 551.211 251.672 554.297 250.344 556.984C249.016 559.672 247.148 561.758 244.742 563.242C242.352 564.727 239.609 565.469 236.516 565.469C231.812 565.469 228.195 564.008 225.664 561.086C223.133 558.164 221.867 553.945 221.867 548.43C221.867 544.945 222.5 541.875 223.766 539.219C225.031 536.562 226.836 534.516 229.18 533.078C231.539 531.641 234.297 530.922 237.453 530.922ZM237.219 535C234.016 535 231.57 536.078 229.883 538.234C228.211 540.391 227.375 543.711 227.375 548.195C227.375 552.555 228.156 555.844 229.719 558.062C231.297 560.281 233.641 561.391 236.75 561.391C239.953 561.391 242.43 560.266 244.18 558.016C245.945 555.766 246.828 552.414 246.828 547.961C246.828 543.68 246.008 540.453 244.367 538.281C242.742 536.094 240.359 535 237.219 535ZM273.688 530.922C276.766 530.922 279.422 531.602 281.656 532.961C283.906 534.32 285.617 536.266 286.789 538.797C287.977 541.328 288.57 544.305 288.57 547.727C288.57 551.211 287.906 554.297 286.578 556.984C285.25 559.672 283.383 561.758 280.977 563.242C278.586 564.727 275.844 565.469 272.75 565.469C268.047 565.469 264.43 564.008 261.898 561.086C259.367 558.164 258.102 553.945 258.102 548.43C258.102 544.945 258.734 541.875 260 539.219C261.266 536.562 263.07 534.516 265.414 533.078C267.773 531.641 270.531 530.922 273.688 530.922ZM273.453 535C270.25 535 267.805 536.078 266.117 538.234C264.445 540.391 263.609 543.711 263.609 548.195C263.609 552.555 264.391 555.844 265.953 558.062C267.531 560.281 269.875 561.391 272.984 561.391C276.188 561.391 278.664 560.266 280.414 558.016C282.18 555.766 283.062 552.414 283.062 547.961C283.062 543.68 282.242 540.453 280.602 538.281C278.977 536.094 276.594 535 273.453 535ZM306.336 562.117V565H293.375V562.117L297.453 561.156V535.234L293.375 534.273V531.648L303.453 531.391L319.297 558.227V535.234L315.219 534.273V531.648L327.688 531.391V534.273L323.609 535.234V565H317.609L301.766 538.562V561.156L306.336 562.117Z" fill="#0F1B2C"/>
<path d="M154.273 37.9609L145.391 25.2344L141.781 24.2734V21.6484L154.508 21.3906V24.2734L151.391 25.2344L157.625 34.3516L163.859 25.2344L160.508 24.2734V21.6484L173.234 21.3906V24.2734L168.898 25.2344L160.273 37.7266L169.625 51.1562L173.703 52.1172V55H160.742V52.1172L163.625 51.3906L156.898 41.5703L149.703 51.1562L153.781 52.1172V55H141.055V52.1172L144.195 51.3906L154.273 37.9609ZM174.43 21.6484L187.883 21.3906V24.2734L183.5 25.1875L191.047 48.5312L199.062 25.2344L194.586 24.2734V21.6484L207.547 21.3906V24.2734L203.82 25.2344L193.156 55H188.352L178.133 25.2344L174.43 24.2734V21.6484ZM208.977 52.1172L213.055 51.1562V25.2344L208.977 24.2734V21.6484L222.172 21.3906V24.2734L218.094 25.2344V51.1562L222.172 52.1172V55H208.977V52.1172ZM226.508 52.1172L230.586 51.1562V25.2344L226.508 24.2734V21.6484L239.703 21.3906V24.2734L235.625 25.2344V51.1562L239.703 52.1172V55H226.508V52.1172ZM244.039 52.1172L248.117 51.1562V25.2344L244.039 24.2734V21.6484L257.234 21.3906V24.2734L253.156 25.2344V51.1562L257.234 52.1172V55H244.039V52.1172Z" fill="#0F1B2C"/>
<circle cx="200.5" cy="250.5" r="112.5" fill="#B9B196"/>
<circle cx="151.5" cy="275.5" r="38.5" fill="#96978C"/>
<path fill-rule="evenodd" clip-rule="evenodd" d="M239.5 356.056C282.409 340.197 313 298.921 313 250.5C313 202.079 282.409 160.803 239.5 144.944C196.591 160.803 166 202.079 166 250.5C166 298.921 196.591 340.197 239.5 356.056Z" fill="#7F5A67"/>
<circle cx="250.5" cy="276.5" r="38.5" fill="#684250"/>
<path d="M179 227.5C179 230.455 178.276 233.381 176.869 236.11C175.461 238.84 173.399 241.321 170.799 243.41C168.199 245.499 165.112 247.157 161.715 248.287C158.318 249.418 154.677 250 151 250C147.323 250 143.682 249.418 140.285 248.287C136.888 247.157 133.801 245.499 131.201 243.41C128.601 241.321 126.539 238.84 125.131 236.11C123.724 233.381 123 230.455 123 227.5L151 227.5H179Z" fill="#F1E2C3"/>
<path d="M278 227.5C278 230.455 277.276 233.381 275.869 236.11C274.461 238.84 272.399 241.321 269.799 243.41C267.199 245.499 264.112 247.157 260.715 248.287C257.318 249.418 253.677 250 250 250C246.323 250 242.682 249.418 239.285 248.287C235.888 247.157 232.801 245.499 230.201 243.41C227.601 241.321 225.539 238.84 224.131 236.11C222.724 233.381 222 230.455 222 227.5L250 227.5H278Z" fill="#F1E2C3"/>
<path d="M278 227.5C278 230.455 277.276 233.381 275.869 236.11C274.461 238.84 272.399 241.321 269.799 243.41C267.199 245.499 264.112 247.157 260.715 248.287C257.318 249.418 253.677 250 250 250C246.323 250 242.682 249.418 239.285 248.287C235.888 247.157 232.801 245.499 230.201 243.41C227.601 241.321 225.539 238.84 224.131 236.11C222.724 233.381 222 230.455 222 227.5L250 227.5H278Z" fill="#F1E2C3"/>
<path fill-rule="evenodd" clip-rule="evenodd" d="M159.264 248.998C150 246.164 143.222 237.64 143.005 227.5L151 227.5H179C179 230.455 178.276 233.381 176.869 236.11C175.462 238.84 173.399 241.321 170.799 243.41C168.199 245.499 165.112 247.157 161.715 248.287C160.911 248.555 160.093 248.792 159.264 248.998Z" fill="#4A3039"/>
<path fill-rule="evenodd" clip-rule="evenodd" d="M261.258 248.498C251.994 245.664 245.216 237.14 245 227L252.995 227H280.995C280.995 229.955 280.271 232.881 278.863 235.61C277.456 238.34 275.394 240.821 272.794 242.91C270.194 244.999 267.107 246.657 263.71 247.787C262.906 248.055 262.087 248.292 261.258 248.498Z" fill="#4A3039"/>
<path fill-rule="evenodd" clip-rule="evenodd" d="M228.9 299.322C227.681 316.503 215.432 330 200.5 330C185.568 330 173.319 316.503 172.1 299.322C175.306 301.636 179.244 303 183.5 303C190.796 303 197.156 298.993 200.5 293.06C203.844 298.993 210.204 303 217.5 303C221.756 303 225.694 301.636 228.9 299.322ZM210.711 265.214C207.541 263.784 204.098 263 200.5 263C196.902 263 193.459 263.784 190.289 265.214C194.636 266.829 198.25 269.949 200.5 273.94C202.75 269.949 206.364 266.829 210.711 265.214Z" fill="#F1E2C3"/>
</svg>
