<svg width="400" height="600" viewBox="0 0 400 600" fill="none" xmlns="http://www.w3.org/2000/svg">
<rect width="400" height="600" rx="20" fill="#649CAD"/>
<path d="M90.9757 91.2279L186.12 169.696L90.8993 213.392L90.9757 91.2279Z" fill="#B6791D"/>
<path d="M309.583 91.5785L309.659 213.742L214.439 170.046L309.583 91.5785Z" fill="#B6791D"/>
<path d="M338 205.071C338 236.385 323.513 266.417 297.727 288.559C271.941 310.702 236.967 323.141 200.5 323.141C164.033 323.141 129.059 310.702 103.273 288.559C77.4866 266.417 63 236.385 63 205.071L200.5 205.071H338Z" fill="#B6791D"/>
<path d="M63 280.071C63 248.756 77.4866 218.725 103.273 196.582C129.059 174.44 164.033 162 200.5 162C236.967 162 271.941 174.44 297.727 196.582C323.513 218.725 338 248.756 338 280.071L200.5 280.071H63Z" fill="#B6791D"/>
<path d="M75 311.337C75 282.869 88.1696 255.568 111.612 235.438C135.054 215.309 166.848 204 200 204C233.152 204 264.946 215.309 288.388 235.438C311.83 255.568 325 282.869 325 311.337L200 311.337H75Z" fill="#B6791D"/>
<path d="M75 311.337C75 282.869 88.1696 255.568 111.612 235.438C135.054 215.309 166.848 204 200 204C233.152 204 264.946 215.309 288.388 235.438C311.83 255.568 325 282.869 325 311.337L200 311.337H75Z" fill="#B6791D"/>
<ellipse cx="200" cy="449.5" rx="129" ry="135.5" fill="#EDC357"/>
<rect y="500" width="400" height="100" rx="20" fill="#F1E2C3"/>
<path d="M101.047 562.117L105.852 561.156V535.234H99.6172L98.4219 540.039H95.2812V531.391H121.461V540.039H118.344L117.125 535.234H110.891V561.156L115.695 562.117V565H101.047V562.117ZM123.875 562.117L127.953 561.156V535.234L123.875 534.273V531.648L137.562 531.391V534.273L132.992 535.234V545.805H149.07V535.234L144.523 534.273V531.648L158.188 531.391V534.273L154.109 535.234V561.156L158.188 562.117V565H144.523V562.117L149.07 561.156V549.648H132.992V561.156L137.562 562.117V565H123.875V562.117ZM182.68 545.57V549.391H171.641V561.156H182.68L183.641 556.352H186.758V565H162.5V562.117L166.578 561.156V535.234L162.5 534.273V531.648L171.641 531.391H186.266V539.57H183.148L181.953 535.234H171.641V545.57H182.68ZM208.859 560.195C208.984 560.258 209.273 560.391 209.727 560.594C210.18 560.781 210.797 560.961 211.578 561.133C212.359 561.305 213.211 561.391 214.133 561.391C216.055 561.391 217.758 560.938 219.242 560.031C220.742 559.125 221.492 557.867 221.492 556.258C221.492 555.227 221.172 554.367 220.531 553.68C219.891 552.977 219.094 552.406 218.141 551.969C217.203 551.531 215.906 551.008 214.25 550.398C212.078 549.633 210.32 548.914 208.977 548.242C207.648 547.57 206.508 546.602 205.555 545.336C204.617 544.07 204.148 542.445 204.148 540.461C204.148 537.289 205.227 534.906 207.383 533.312C209.555 531.719 212.273 530.922 215.539 530.922C216.883 530.922 218.305 531.07 219.805 531.367C221.305 531.648 222.586 531.945 223.648 532.258C224.711 532.555 225.383 532.75 225.664 532.844L225.43 541H222.312L220.672 535.867C220.547 535.836 220.242 535.75 219.758 535.609C219.273 535.453 218.648 535.312 217.883 535.188C217.117 535.062 216.352 535 215.586 535C213.539 535 211.961 535.461 210.852 536.383C209.742 537.289 209.188 538.383 209.188 539.664C209.188 540.695 209.508 541.562 210.148 542.266C210.789 542.953 211.586 543.523 212.539 543.977C213.508 544.43 214.859 544.961 216.594 545.57C218.672 546.305 220.375 547 221.703 547.656C223.031 548.312 224.156 549.242 225.078 550.445C226.016 551.633 226.484 553.141 226.484 554.969C226.484 557.266 225.922 559.211 224.797 560.805C223.672 562.383 222.156 563.555 220.25 564.32C218.359 565.086 216.258 565.469 213.945 565.469C212.445 565.469 210.969 565.328 209.516 565.047C208.062 564.766 206.852 564.477 205.883 564.18C204.93 563.867 204.32 563.664 204.055 563.57V555.156H207.898L208.859 560.195ZM261.266 551.312C261.266 556.016 260.273 559.555 258.289 561.93C256.305 564.289 252.898 565.469 248.07 565.469C243.492 565.469 240.227 564.375 238.273 562.188C236.32 560 235.344 556.617 235.344 552.039V535.234L231.266 534.273V531.648L244.953 531.391V534.273L240.383 535.234V552.039C240.383 554.445 240.656 556.32 241.203 557.664C241.75 559.008 242.594 559.969 243.734 560.547C244.891 561.109 246.414 561.391 248.305 561.391C250.32 561.391 251.891 561.07 253.016 560.43C254.156 559.789 254.977 558.742 255.477 557.289C255.977 555.836 256.227 553.844 256.227 551.312V535.234L251.656 534.273V531.648L265.344 531.391V534.273L261.266 535.234V551.312ZM282.148 562.117V565H269.188V562.117L273.266 561.156V535.234L269.188 534.273V531.648L279.266 531.391L295.109 558.227V535.234L291.031 534.273V531.648L303.5 531.391V534.273L299.422 535.234V565H293.422L277.578 538.562V561.156L282.148 562.117Z" fill="#0F1B2C"/>
<path d="M171.312 37.9609L162.43 25.2344L158.82 24.2734V21.6484L171.547 21.3906V24.2734L168.43 25.2344L174.664 34.3516L180.898 25.2344L177.547 24.2734V21.6484L190.273 21.3906V24.2734L185.938 25.2344L177.312 37.7266L186.664 51.1562L190.742 52.1172V55H177.781V52.1172L180.664 51.3906L173.938 41.5703L166.742 51.1562L170.82 52.1172V55H158.094V52.1172L161.234 51.3906L171.312 37.9609ZM193.391 52.1172L197.469 51.1562V25.2344L193.391 24.2734V21.6484L206.586 21.3906V24.2734L202.508 25.2344V51.1562L206.586 52.1172V55H193.391V52.1172ZM222.453 37.9609L213.57 25.2344L209.961 24.2734V21.6484L222.688 21.3906V24.2734L219.57 25.2344L225.805 34.3516L232.039 25.2344L228.688 24.2734V21.6484L241.414 21.3906V24.2734L237.078 25.2344L228.453 37.7266L237.805 51.1562L241.883 52.1172V55H228.922V52.1172L231.805 51.3906L225.078 41.5703L217.883 51.1562L221.961 52.1172V55H209.234V52.1172L212.375 51.3906L222.453 37.9609Z" fill="#0F1B2C"/>
<circle cx="200.5" cy="250.5" r="112.5" fill="#DCB44C"/>
<ellipse cx="151" cy="228.5" rx="28" ry="22.5" fill="#F1E2C3"/>
<ellipse cx="250" cy="228.5" rx="28" ry="22.5" fill="#F1E2C3"/>
<path fill-rule="evenodd" clip-rule="evenodd" d="M244.5 244C256.926 244 267 233.926 267 221.5C267 216.664 265.474 212.184 262.878 208.515C259.022 206.908 254.643 206 250 206C235.936 206 224.293 214.332 222.301 225.189C224.061 235.861 233.33 244 244.5 244Z" fill="#B6791D"/>
<path fill-rule="evenodd" clip-rule="evenodd" d="M138.122 208.516C141.978 206.908 146.357 206 151 206C165.064 206 176.707 214.333 178.699 225.189C176.939 235.861 167.67 244 156.5 244C144.074 244 134 233.927 134 221.5C134 216.664 135.526 212.184 138.122 208.516Z" fill="#B6791D"/>
<ellipse cx="200.5" cy="299.5" rx="28.5" ry="33.5" fill="#B65D1D"/>
<circle cx="183.5" cy="286.5" r="19.5" fill="#DCB44C"/>
<circle cx="217.5" cy="286.5" r="19.5" fill="#DCB44C"/>
<path d="M139.509 181.987L164.755 189.007L124.036 206.306L139.509 181.987Z" fill="#B6791D"/>
<path d="M259.974 181.987L275.447 206.306L234.728 189.007L259.974 181.987Z" fill="#B6791D"/>
<path d="M217.389 416.101C219.64 416.101 221.84 416.323 223.965 416.743C230.513 397.351 249.187 383.351 271.214 383.351C289.713 383.351 305.842 393.227 314.418 407.872C314.922 407.852 315.426 407.834 315.935 407.834C328.809 407.834 340.156 414.221 346.844 423.93C348.632 423.596 350.476 423.415 352.363 423.415C368.529 423.415 381.634 436.226 381.634 452.032C381.634 467.838 368.529 480.649 352.362 480.649H315.959H315.935H315.91H271.239H271.214H271.188H217.41H217.385C199.15 480.649 184.372 466.2 184.372 448.373C184.372 430.55 199.15 416.101 217.385 416.101H217.389Z" fill="#F1E2C3"/>
<path d="M134.648 448.593C133.515 448.593 132.408 448.706 131.339 448.919C128.044 439.093 118.647 432 107.563 432C98.2544 432 90.1384 437.004 85.823 444.424C85.5696 444.414 85.3157 444.405 85.0596 444.405C78.5816 444.405 72.8719 447.641 69.5061 452.56C68.6064 452.391 67.6789 452.299 66.7293 452.299C58.5945 452.299 52 458.79 52 466.798C52 474.806 58.5945 481.297 66.7296 481.297H85.0474H85.0598H85.0722H107.551H107.563H107.576H134.637H134.65C143.826 481.297 151.262 473.977 151.262 464.944C151.262 455.914 143.826 448.593 134.65 448.593H134.648Z" fill="#F1E2C3"/>
</svg>
