<svg width="785" height="913" viewBox="0 0 785 913" fill="none" xmlns="http://www.w3.org/2000/svg">
<g filter="url(#filter0_d_108_83)">
<path d="M204 45L290.603 270H117.397L204 45Z" fill="#1E242F"/>
</g>
<g filter="url(#filter1_d_108_83)">
<path d="M511 45L597.603 270H424.397L511 45Z" fill="#1E242F"/>
</g>
<g filter="url(#filter2_d_108_83)">
<path fill-rule="evenodd" clip-rule="evenodd" d="M496.068 789.941C498.687 851.134 549.148 899.941 611.014 899.941C674.556 899.941 726.068 848.454 726.068 784.941C726.068 721.429 674.556 669.941 611.014 669.941C590.369 669.941 570.993 675.377 554.242 684.894L589.267 745.53C595.714 741.969 603.127 739.941 611.014 739.941C635.878 739.941 656.035 760.089 656.035 784.941C656.035 809.794 635.878 829.941 611.014 829.941C587.841 829.941 568.756 812.441 566.268 789.941H496.068Z" fill="black"/>
</g>
<g filter="url(#filter3_d_108_83)">
<line x1="68.3013" y1="584.229" x2="218.329" y2="844.083" stroke="black" stroke-width="100" stroke-linecap="round"/>
</g>
<g filter="url(#filter4_d_108_83)">
<path d="M320.819 237.849C331.499 206.033 376.501 206.033 387.181 237.849L598.321 866.862C605.933 889.539 589.06 913 565.14 913H142.86C118.939 913 102.067 889.539 109.679 866.862L320.819 237.849Z" fill="#1E242F"/>
</g>
<g filter="url(#filter5_d_108_83)">
<path d="M654 300C654 339.397 646.24 378.407 631.164 414.805C616.087 451.203 593.99 484.274 566.132 512.132C538.274 539.99 505.203 562.087 468.805 577.164C432.407 592.24 393.397 600 354 600C314.603 600 275.593 592.24 239.195 577.164C202.797 562.087 169.726 539.99 141.868 512.132C114.01 484.274 91.9125 451.203 76.8361 414.805C61.7597 378.407 54 339.397 54 300L354 300H654Z" fill="black"/>
</g>
<g filter="url(#filter6_d_108_83)">
<path d="M58 439C58 399.603 65.7597 360.593 80.8361 324.195C95.9125 287.797 118.01 254.726 145.868 226.868C173.726 199.01 206.797 176.913 243.195 161.836C279.593 146.76 318.603 139 358 139C397.397 139 436.407 146.76 472.805 161.836C509.203 176.913 542.274 199.01 570.132 226.868C597.99 254.726 620.087 287.797 635.164 324.195C650.24 360.593 658 399.603 658 439L358 439H58Z" fill="black"/>
</g>
<g filter="url(#filter7_d_108_83)">
<path d="M649.32 640.132C645.339 642.431 640.944 643.923 636.386 644.523C631.829 645.123 627.198 644.819 622.757 643.629C618.317 642.44 614.155 640.387 610.508 637.589C606.861 634.79 603.801 631.301 601.502 627.32C599.204 623.339 597.712 618.944 597.112 614.386C596.512 609.829 596.816 605.198 598.005 600.757C599.195 596.317 601.248 592.155 604.046 588.508C606.845 584.861 610.334 581.801 614.315 579.502L631.817 609.817L649.32 640.132Z" fill="black"/>
</g>
<g filter="url(#filter8_d_108_83)">
<path fill-rule="evenodd" clip-rule="evenodd" d="M554.075 685.927C556.694 747.12 607.156 795.927 669.022 795.927C732.564 795.927 784.075 744.44 784.075 680.927C784.075 617.415 732.564 565.927 669.022 565.927C648.377 565.927 629.001 571.363 612.25 580.88L647.275 641.516C653.722 637.954 661.135 635.927 669.022 635.927C693.886 635.927 714.043 656.074 714.043 680.927C714.043 705.78 693.886 725.927 669.022 725.927C645.849 725.927 626.764 708.427 624.276 685.927H554.075Z" fill="black"/>
</g>
<g filter="url(#filter9_d_108_83)">
<path fill-rule="evenodd" clip-rule="evenodd" d="M148 323.07C164.8 313.48 184.249 308 204.977 308C267.184 308 317.865 357.35 320.004 419.036C303.204 428.626 283.755 434.106 263.026 434.106C200.819 434.106 150.139 384.755 148 323.07Z" fill="#D9D9D9"/>
</g>
<g filter="url(#filter10_d_108_83)">
<mask id="mask0_108_83" style="mask-type:alpha" maskUnits="userSpaceOnUse" x="148" y="308" width="173" height="127">
<path fill-rule="evenodd" clip-rule="evenodd" d="M148 323.07C164.8 313.48 184.249 308 204.977 308C267.184 308 317.865 357.35 320.004 419.036C303.204 428.626 283.755 434.106 263.026 434.106C200.819 434.106 150.139 384.755 148 323.07Z" fill="#D9D9D9"/>
</mask>
<g mask="url(#mask0_108_83)">
<path fill-rule="evenodd" clip-rule="evenodd" d="M186.019 457.055C176.429 440.255 170.949 420.806 170.949 400.077C170.949 337.87 220.299 287.19 281.985 285.051C291.575 301.851 297.055 321.3 297.055 342.029C297.055 404.235 247.704 454.916 186.019 457.055Z" fill="#1E242F"/>
</g>
</g>
<g filter="url(#filter11_d_108_83)">
<path fill-rule="evenodd" clip-rule="evenodd" d="M559 328.321C542.201 319.207 522.752 314 502.024 314C439.818 314 389.139 360.897 387 419.517C403.799 428.63 423.248 433.838 443.976 433.838C506.182 433.838 556.861 386.94 559 328.321Z" fill="#D9D9D9"/>
</g>
<g filter="url(#filter12_d_108_83)">
<mask id="mask1_108_83" style="mask-type:alpha" maskUnits="userSpaceOnUse" x="387" y="314" width="172" height="120">
<path fill-rule="evenodd" clip-rule="evenodd" d="M559 328.321C542.201 319.207 522.752 314 502.024 314C439.818 314 389.139 360.897 387 419.517C403.799 428.63 423.248 433.838 443.976 433.838C506.182 433.838 556.861 386.94 559 328.321Z" fill="#D9D9D9"/>
</mask>
<g mask="url(#mask1_108_83)">
<path fill-rule="evenodd" clip-rule="evenodd" d="M518.598 459.919C527.711 443.12 532.919 423.671 532.919 402.943C532.919 340.737 486.021 290.058 427.402 287.919C418.289 304.718 413.081 324.167 413.081 344.895C413.081 407.101 459.979 457.78 518.598 459.919Z" fill="#1E242F"/>
</g>
</g>
<g filter="url(#filter13_d_108_83)">
<circle cx="33.6579" cy="586.763" r="10.6579" fill="#D9D9D9"/>
<circle cx="74.1579" cy="598.842" r="29.8421" fill="#D9D9D9"/>
<circle cx="63.5" cy="552.658" r="10.6579" fill="#D9D9D9"/>
<circle cx="42.1842" cy="562.605" r="10.6579" fill="#D9D9D9"/>
<circle cx="87.6579" cy="558.342" r="10.6579" fill="#D9D9D9"/>
</g>
<defs>
<filter id="filter0_d_108_83" x="117.397" y="45" width="173.205" height="225" filterUnits="userSpaceOnUse" color-interpolation-filters="sRGB">
<feFlood flood-opacity="0" result="BackgroundImageFix"/>
<feColorMatrix in="SourceAlpha" type="matrix" values="0 0 0 0 0 0 0 0 0 0 0 0 0 0 0 0 0 0 127 0" result="hardAlpha"/>
<feOffset/>
<feComposite in2="hardAlpha" operator="out"/>
<feColorMatrix type="matrix" values="0 0 0 0 1 0 0 0 0 1 0 0 0 0 1 0 0 0 0.25 0"/>
<feBlend mode="normal" in2="BackgroundImageFix" result="effect1_dropShadow_108_83"/>
<feBlend mode="normal" in="SourceGraphic" in2="effect1_dropShadow_108_83" result="shape"/>
</filter>
<filter id="filter1_d_108_83" x="424.397" y="45" width="173.205" height="225" filterUnits="userSpaceOnUse" color-interpolation-filters="sRGB">
<feFlood flood-opacity="0" result="BackgroundImageFix"/>
<feColorMatrix in="SourceAlpha" type="matrix" values="0 0 0 0 0 0 0 0 0 0 0 0 0 0 0 0 0 0 127 0" result="hardAlpha"/>
<feOffset/>
<feComposite in2="hardAlpha" operator="out"/>
<feColorMatrix type="matrix" values="0 0 0 0 1 0 0 0 0 1 0 0 0 0 1 0 0 0 0.25 0"/>
<feBlend mode="normal" in2="BackgroundImageFix" result="effect1_dropShadow_108_83"/>
<feBlend mode="normal" in="SourceGraphic" in2="effect1_dropShadow_108_83" result="shape"/>
</filter>
<filter id="filter2_d_108_83" x="496.068" y="669.941" width="230" height="230" filterUnits="userSpaceOnUse" color-interpolation-filters="sRGB">
<feFlood flood-opacity="0" result="BackgroundImageFix"/>
<feColorMatrix in="SourceAlpha" type="matrix" values="0 0 0 0 0 0 0 0 0 0 0 0 0 0 0 0 0 0 127 0" result="hardAlpha"/>
<feOffset/>
<feComposite in2="hardAlpha" operator="out"/>
<feColorMatrix type="matrix" values="0 0 0 0 1 0 0 0 0 1 0 0 0 0 1 0 0 0 0.25 0"/>
<feBlend mode="normal" in2="BackgroundImageFix" result="effect1_dropShadow_108_83"/>
<feBlend mode="normal" in="SourceGraphic" in2="effect1_dropShadow_108_83" result="shape"/>
</filter>
<filter id="filter3_d_108_83" x="18.2929" y="534.22" width="250.044" height="359.871" filterUnits="userSpaceOnUse" color-interpolation-filters="sRGB">
<feFlood flood-opacity="0" result="BackgroundImageFix"/>
<feColorMatrix in="SourceAlpha" type="matrix" values="0 0 0 0 0 0 0 0 0 0 0 0 0 0 0 0 0 0 127 0" result="hardAlpha"/>
<feOffset/>
<feComposite in2="hardAlpha" operator="out"/>
<feColorMatrix type="matrix" values="0 0 0 0 1 0 0 0 0 1 0 0 0 0 1 0 0 0 0.25 0"/>
<feBlend mode="normal" in2="BackgroundImageFix" result="effect1_dropShadow_108_83"/>
<feBlend mode="normal" in="SourceGraphic" in2="effect1_dropShadow_108_83" result="shape"/>
</filter>
<filter id="filter4_d_108_83" x="107.833" y="213.987" width="492.334" height="699.013" filterUnits="userSpaceOnUse" color-interpolation-filters="sRGB">
<feFlood flood-opacity="0" result="BackgroundImageFix"/>
<feColorMatrix in="SourceAlpha" type="matrix" values="0 0 0 0 0 0 0 0 0 0 0 0 0 0 0 0 0 0 127 0" result="hardAlpha"/>
<feOffset/>
<feComposite in2="hardAlpha" operator="out"/>
<feColorMatrix type="matrix" values="0 0 0 0 1 0 0 0 0 1 0 0 0 0 1 0 0 0 0.25 0"/>
<feBlend mode="normal" in2="BackgroundImageFix" result="effect1_dropShadow_108_83"/>
<feBlend mode="normal" in="SourceGraphic" in2="effect1_dropShadow_108_83" result="shape"/>
</filter>
<filter id="filter5_d_108_83" x="54" y="300" width="600" height="300" filterUnits="userSpaceOnUse" color-interpolation-filters="sRGB">
<feFlood flood-opacity="0" result="BackgroundImageFix"/>
<feColorMatrix in="SourceAlpha" type="matrix" values="0 0 0 0 0 0 0 0 0 0 0 0 0 0 0 0 0 0 127 0" result="hardAlpha"/>
<feOffset/>
<feComposite in2="hardAlpha" operator="out"/>
<feColorMatrix type="matrix" values="0 0 0 0 1 0 0 0 0 1 0 0 0 0 1 0 0 0 0.25 0"/>
<feBlend mode="normal" in2="BackgroundImageFix" result="effect1_dropShadow_108_83"/>
<feBlend mode="normal" in="SourceGraphic" in2="effect1_dropShadow_108_83" result="shape"/>
</filter>
<filter id="filter6_d_108_83" x="58" y="139" width="600" height="300" filterUnits="userSpaceOnUse" color-interpolation-filters="sRGB">
<feFlood flood-opacity="0" result="BackgroundImageFix"/>
<feColorMatrix in="SourceAlpha" type="matrix" values="0 0 0 0 0 0 0 0 0 0 0 0 0 0 0 0 0 0 127 0" result="hardAlpha"/>
<feOffset/>
<feComposite in2="hardAlpha" operator="out"/>
<feColorMatrix type="matrix" values="0 0 0 0 1 0 0 0 0 1 0 0 0 0 1 0 0 0 0.25 0"/>
<feBlend mode="normal" in2="BackgroundImageFix" result="effect1_dropShadow_108_83"/>
<feBlend mode="normal" in="SourceGraphic" in2="effect1_dropShadow_108_83" result="shape"/>
</filter>
<filter id="filter7_d_108_83" x="596.813" y="579.502" width="52.5071" height="65.3198" filterUnits="userSpaceOnUse" color-interpolation-filters="sRGB">
<feFlood flood-opacity="0" result="BackgroundImageFix"/>
<feColorMatrix in="SourceAlpha" type="matrix" values="0 0 0 0 0 0 0 0 0 0 0 0 0 0 0 0 0 0 127 0" result="hardAlpha"/>
<feOffset/>
<feComposite in2="hardAlpha" operator="out"/>
<feColorMatrix type="matrix" values="0 0 0 0 1 0 0 0 0 1 0 0 0 0 1 0 0 0 0.25 0"/>
<feBlend mode="normal" in2="BackgroundImageFix" result="effect1_dropShadow_108_83"/>
<feBlend mode="normal" in="SourceGraphic" in2="effect1_dropShadow_108_83" result="shape"/>
</filter>
<filter id="filter8_d_108_83" x="554.075" y="565.927" width="230" height="230" filterUnits="userSpaceOnUse" color-interpolation-filters="sRGB">
<feFlood flood-opacity="0" result="BackgroundImageFix"/>
<feColorMatrix in="SourceAlpha" type="matrix" values="0 0 0 0 0 0 0 0 0 0 0 0 0 0 0 0 0 0 127 0" result="hardAlpha"/>
<feOffset/>
<feComposite in2="hardAlpha" operator="out"/>
<feColorMatrix type="matrix" values="0 0 0 0 1 0 0 0 0 1 0 0 0 0 1 0 0 0 0.25 0"/>
<feBlend mode="normal" in2="BackgroundImageFix" result="effect1_dropShadow_108_83"/>
<feBlend mode="normal" in="SourceGraphic" in2="effect1_dropShadow_108_83" result="shape"/>
</filter>
<filter id="filter9_d_108_83" x="148" y="308" width="172.004" height="126.106" filterUnits="userSpaceOnUse" color-interpolation-filters="sRGB">
<feFlood flood-opacity="0" result="BackgroundImageFix"/>
<feColorMatrix in="SourceAlpha" type="matrix" values="0 0 0 0 0 0 0 0 0 0 0 0 0 0 0 0 0 0 127 0" result="hardAlpha"/>
<feOffset/>
<feComposite in2="hardAlpha" operator="out"/>
<feColorMatrix type="matrix" values="0 0 0 0 1 0 0 0 0 1 0 0 0 0 1 0 0 0 0.25 0"/>
<feBlend mode="normal" in2="BackgroundImageFix" result="effect1_dropShadow_108_83"/>
<feBlend mode="normal" in="SourceGraphic" in2="effect1_dropShadow_108_83" result="shape"/>
</filter>
<filter id="filter10_d_108_83" x="170.949" y="308" width="126.106" height="126.106" filterUnits="userSpaceOnUse" color-interpolation-filters="sRGB">
<feFlood flood-opacity="0" result="BackgroundImageFix"/>
<feColorMatrix in="SourceAlpha" type="matrix" values="0 0 0 0 0 0 0 0 0 0 0 0 0 0 0 0 0 0 127 0" result="hardAlpha"/>
<feOffset/>
<feComposite in2="hardAlpha" operator="out"/>
<feColorMatrix type="matrix" values="0 0 0 0 1 0 0 0 0 1 0 0 0 0 1 0 0 0 0.25 0"/>
<feBlend mode="normal" in2="BackgroundImageFix" result="effect1_dropShadow_108_83"/>
<feBlend mode="normal" in="SourceGraphic" in2="effect1_dropShadow_108_83" result="shape"/>
</filter>
<filter id="filter11_d_108_83" x="387" y="314" width="172" height="119.838" filterUnits="userSpaceOnUse" color-interpolation-filters="sRGB">
<feFlood flood-opacity="0" result="BackgroundImageFix"/>
<feColorMatrix in="SourceAlpha" type="matrix" values="0 0 0 0 0 0 0 0 0 0 0 0 0 0 0 0 0 0 127 0" result="hardAlpha"/>
<feOffset/>
<feComposite in2="hardAlpha" operator="out"/>
<feColorMatrix type="matrix" values="0 0 0 0 1 0 0 0 0 1 0 0 0 0 1 0 0 0 0.25 0"/>
<feBlend mode="normal" in2="BackgroundImageFix" result="effect1_dropShadow_108_83"/>
<feBlend mode="normal" in="SourceGraphic" in2="effect1_dropShadow_108_83" result="shape"/>
</filter>
<filter id="filter12_d_108_83" x="413.081" y="314" width="119.838" height="119.838" filterUnits="userSpaceOnUse" color-interpolation-filters="sRGB">
<feFlood flood-opacity="0" result="BackgroundImageFix"/>
<feColorMatrix in="SourceAlpha" type="matrix" values="0 0 0 0 0 0 0 0 0 0 0 0 0 0 0 0 0 0 127 0" result="hardAlpha"/>
<feOffset/>
<feComposite in2="hardAlpha" operator="out"/>
<feColorMatrix type="matrix" values="0 0 0 0 1 0 0 0 0 1 0 0 0 0 1 0 0 0 0.25 0"/>
<feBlend mode="normal" in2="BackgroundImageFix" result="effect1_dropShadow_108_83"/>
<feBlend mode="normal" in="SourceGraphic" in2="effect1_dropShadow_108_83" result="shape"/>
</filter>
<filter id="filter13_d_108_83" x="23" y="542" width="81" height="86.6842" filterUnits="userSpaceOnUse" color-interpolation-filters="sRGB">
<feFlood flood-opacity="0" result="BackgroundImageFix"/>
<feColorMatrix in="SourceAlpha" type="matrix" values="0 0 0 0 0 0 0 0 0 0 0 0 0 0 0 0 0 0 127 0" result="hardAlpha"/>
<feOffset/>
<feComposite in2="hardAlpha" operator="out"/>
<feColorMatrix type="matrix" values="0 0 0 0 1 0 0 0 0 1 0 0 0 0 1 0 0 0 0.25 0"/>
<feBlend mode="normal" in2="BackgroundImageFix" result="effect1_dropShadow_108_83"/>
<feBlend mode="normal" in="SourceGraphic" in2="effect1_dropShadow_108_83" result="shape"/>
</filter>
</defs>
</svg>
