<svg width="767" height="868" viewBox="0 0 767 868" fill="none" xmlns="http://www.w3.org/2000/svg">
<path d="M186 0L272.603 225H99.3975L186 0Z" fill="#0F1217"/>
<path d="M493 0L579.603 225H406.397L493 0Z" fill="#0F1217"/>
<path fill-rule="evenodd" clip-rule="evenodd" d="M478.068 744.941C480.687 806.135 531.148 854.941 593.014 854.941C656.556 854.941 708.068 803.454 708.068 739.941C708.068 676.429 656.556 624.941 593.014 624.941C572.369 624.941 552.993 630.377 536.242 639.894L571.267 700.53C577.714 696.969 585.127 694.941 593.014 694.941C617.878 694.941 638.035 715.089 638.035 739.941C638.035 764.794 617.878 784.941 593.014 784.941C569.841 784.941 550.756 767.441 548.268 744.941H478.068Z" fill="black"/>
<line x1="50.3013" y1="539.229" x2="200.329" y2="799.083" stroke="black" stroke-width="100" stroke-linecap="round"/>
<path d="M302.819 192.849C313.499 161.033 358.501 161.033 369.181 192.849L580.321 821.862C587.933 844.539 571.06 868 547.14 868H124.86C100.939 868 84.0674 844.539 91.6794 821.862L302.819 192.849Z" fill="#0F1217"/>
<path d="M636 255C636 294.397 628.24 333.407 613.164 369.805C598.087 406.203 575.99 439.274 548.132 467.132C520.274 494.99 487.203 517.087 450.805 532.164C414.407 547.24 375.397 555 336 555C296.603 555 257.593 547.24 221.195 532.164C184.797 517.087 151.726 494.99 123.868 467.132C96.0104 439.274 73.9125 406.203 58.8361 369.805C43.7597 333.407 36 294.397 36 255L336 255H636Z" fill="black"/>
<path d="M40 394C40 354.603 47.7597 315.593 62.8361 279.195C77.9126 242.797 100.01 209.726 127.868 181.868C155.726 154.01 188.797 131.913 225.195 116.836C261.593 101.76 300.603 94 340 94C379.397 94 418.407 101.76 454.805 116.836C491.203 131.913 524.274 154.01 552.132 181.868C579.99 209.726 602.087 242.797 617.164 279.195C632.24 315.593 640 354.603 640 394L340 394H40Z" fill="black"/>
<path d="M631.32 595.132C627.339 597.431 622.944 598.923 618.386 599.523C613.829 600.123 609.198 599.819 604.758 598.629C600.317 597.44 596.155 595.387 592.508 592.589C588.861 589.79 585.801 586.301 583.502 582.32C581.204 578.339 579.712 573.944 579.112 569.386C578.512 564.829 578.816 560.198 580.005 555.757C581.195 551.317 583.248 547.155 586.046 543.508C588.845 539.861 592.334 536.801 596.315 534.502L613.817 564.817L631.32 595.132Z" fill="black"/>
<path fill-rule="evenodd" clip-rule="evenodd" d="M536.075 640.927C538.694 702.12 589.156 750.927 651.022 750.927C714.564 750.927 766.075 699.44 766.075 635.927C766.075 572.415 714.564 520.927 651.022 520.927C630.377 520.927 611.001 526.363 594.25 535.88L629.275 596.516C635.722 592.954 643.135 590.927 651.022 590.927C675.886 590.927 696.043 611.074 696.043 635.927C696.043 660.78 675.886 680.927 651.022 680.927C627.849 680.927 608.764 663.427 606.276 640.927H536.075Z" fill="black"/>
<path fill-rule="evenodd" clip-rule="evenodd" d="M130 278.07C146.8 268.48 166.249 263 186.977 263C249.184 263 299.865 312.35 302.004 374.036C285.204 383.626 265.755 389.106 245.026 389.106C182.819 389.106 132.139 339.755 130 278.07Z" fill="#D9D9D9"/>
<mask id="mask0_0_1" style="mask-type:alpha" maskUnits="userSpaceOnUse" x="130" y="263" width="173" height="127">
<path fill-rule="evenodd" clip-rule="evenodd" d="M130 278.07C146.8 268.48 166.249 263 186.977 263C249.184 263 299.865 312.35 302.004 374.036C285.204 383.626 265.755 389.106 245.026 389.106C182.819 389.106 132.139 339.755 130 278.07Z" fill="#D9D9D9"/>
</mask>
<g mask="url(#mask0_0_1)">
<path fill-rule="evenodd" clip-rule="evenodd" d="M168.019 412.055C158.429 395.255 152.949 375.806 152.949 355.077C152.949 292.87 202.299 242.19 263.985 240.051C273.575 256.851 279.055 276.3 279.055 297.029C279.055 359.235 229.704 409.916 168.019 412.055Z" fill="#1E242F"/>
</g>
<path fill-rule="evenodd" clip-rule="evenodd" d="M541 283.321C524.201 274.207 504.752 269 484.024 269C421.818 269 371.139 315.897 369 374.517C385.799 383.63 405.248 388.838 425.976 388.838C488.182 388.838 538.861 341.94 541 283.321Z" fill="#D9D9D9"/>
<mask id="mask1_0_1" style="mask-type:alpha" maskUnits="userSpaceOnUse" x="369" y="269" width="172" height="120">
<path fill-rule="evenodd" clip-rule="evenodd" d="M541 283.321C524.201 274.207 504.752 269 484.024 269C421.818 269 371.139 315.897 369 374.517C385.799 383.63 405.248 388.838 425.976 388.838C488.182 388.838 538.861 341.94 541 283.321Z" fill="#D9D9D9"/>
</mask>
<g mask="url(#mask1_0_1)">
<path fill-rule="evenodd" clip-rule="evenodd" d="M500.598 414.919C509.711 398.12 514.919 378.671 514.919 357.943C514.919 295.737 468.021 245.058 409.402 242.919C400.289 259.718 395.081 279.167 395.081 299.895C395.081 362.101 441.979 412.78 500.598 414.919Z" fill="#1E242F"/>
</g>
<circle cx="15.6579" cy="541.763" r="10.6579" fill="#D9D9D9"/>
<circle cx="56.1579" cy="553.842" r="29.8421" fill="#D9D9D9"/>
<circle cx="45.5" cy="507.658" r="10.6579" fill="#D9D9D9"/>
<circle cx="24.1842" cy="517.605" r="10.6579" fill="#D9D9D9"/>
<circle cx="69.6579" cy="513.342" r="10.6579" fill="#D9D9D9"/>
</svg>
