<svg width="827" height="928" viewBox="0 0 827 928" fill="none" xmlns="http://www.w3.org/2000/svg">
<mask id="path-1-outside-1_0_1" maskUnits="userSpaceOnUse" x="-0.707077" y="0" width="827" height="928" fill="black">
<rect fill="white" x="-0.707077" width="827" height="928"/>
<path fill-rule="evenodd" clip-rule="evenodd" d="M216 30L260.194 144.818C295.154 131.068 332.401 124 370 124C407.288 124 444.23 130.951 478.937 144.478L523 30L600.955 232.532C614.397 248.747 626.095 266.333 635.855 285H666C666 305.58 663.883 326.054 659.711 346.105C666.526 371.453 670 397.64 670 424H631.855C617.783 450.915 599.681 475.583 578.132 497.132C557.557 517.707 534.137 535.141 508.634 548.924L594.517 804.781C602.279 811.131 612.201 814.941 623.014 814.941C644.395 814.941 662.294 800.044 666.89 780.068C611.637 773.304 568.492 727.388 566.075 670.927H566.839L566.242 669.894C582.993 660.377 602.369 654.941 623.014 654.941C659.272 654.941 691.613 671.705 712.701 697.902C720.94 689.747 726.043 678.433 726.043 665.927C726.043 641.074 705.886 620.927 681.022 620.927C673.135 620.927 665.722 622.954 659.275 626.516L659.144 626.289C655.76 627.936 652.128 629.03 648.386 629.523C643.829 630.123 639.198 629.819 634.757 628.629C630.317 627.44 626.155 625.387 622.508 622.589C618.861 619.79 615.801 616.301 613.502 612.32C611.204 608.339 609.712 603.944 609.112 599.386C608.512 594.829 608.816 590.198 610.005 585.758C611.195 581.317 613.248 577.155 616.046 573.508C618.845 569.861 622.334 566.801 626.315 564.502L626.417 564.679C642.663 555.907 661.261 550.927 681.022 550.927C744.564 550.927 796.075 602.414 796.075 665.927C796.075 708.721 772.69 746.055 737.996 765.86C738.044 767.214 738.068 768.575 738.068 769.941C738.068 833.454 686.556 884.941 623.014 884.941C617.035 884.941 611.163 884.486 605.431 883.607C599.164 892.212 589.021 898 577.14 898H154.86C130.939 898 114.067 874.539 121.679 851.862L145.233 781.693L37 594.229C23.1929 570.314 31.3866 539.734 55.3013 525.927C79.2159 512.12 109.795 520.314 123.603 544.229L187.685 655.223L223.366 548.924C197.863 535.141 174.443 517.707 153.868 497.132C132.319 475.583 114.217 450.915 100.145 424H70C70 403.42 72.1174 382.946 76.289 362.895C69.4739 337.547 66 311.36 66 285H104.145C113.446 267.21 124.508 250.402 137.162 234.827L216 30Z"/>
</mask>
<path fill-rule="evenodd" clip-rule="evenodd" d="M216 30L260.194 144.818C295.154 131.068 332.401 124 370 124C407.288 124 444.23 130.951 478.937 144.478L523 30L600.955 232.532C614.397 248.747 626.095 266.333 635.855 285H666C666 305.58 663.883 326.054 659.711 346.105C666.526 371.453 670 397.64 670 424H631.855C617.783 450.915 599.681 475.583 578.132 497.132C557.557 517.707 534.137 535.141 508.634 548.924L594.517 804.781C602.279 811.131 612.201 814.941 623.014 814.941C644.395 814.941 662.294 800.044 666.89 780.068C611.637 773.304 568.492 727.388 566.075 670.927H566.839L566.242 669.894C582.993 660.377 602.369 654.941 623.014 654.941C659.272 654.941 691.613 671.705 712.701 697.902C720.94 689.747 726.043 678.433 726.043 665.927C726.043 641.074 705.886 620.927 681.022 620.927C673.135 620.927 665.722 622.954 659.275 626.516L659.144 626.289C655.76 627.936 652.128 629.03 648.386 629.523C643.829 630.123 639.198 629.819 634.757 628.629C630.317 627.44 626.155 625.387 622.508 622.589C618.861 619.79 615.801 616.301 613.502 612.32C611.204 608.339 609.712 603.944 609.112 599.386C608.512 594.829 608.816 590.198 610.005 585.758C611.195 581.317 613.248 577.155 616.046 573.508C618.845 569.861 622.334 566.801 626.315 564.502L626.417 564.679C642.663 555.907 661.261 550.927 681.022 550.927C744.564 550.927 796.075 602.414 796.075 665.927C796.075 708.721 772.69 746.055 737.996 765.86C738.044 767.214 738.068 768.575 738.068 769.941C738.068 833.454 686.556 884.941 623.014 884.941C617.035 884.941 611.163 884.486 605.431 883.607C599.164 892.212 589.021 898 577.14 898H154.86C130.939 898 114.067 874.539 121.679 851.862L145.233 781.693L37 594.229C23.1929 570.314 31.3866 539.734 55.3013 525.927C79.2159 512.12 109.795 520.314 123.603 544.229L187.685 655.223L223.366 548.924C197.863 535.141 174.443 517.707 153.868 497.132C132.319 475.583 114.217 450.915 100.145 424H70C70 403.42 72.1174 382.946 76.289 362.895C69.4739 337.547 66 311.36 66 285H104.145C113.446 267.21 124.508 250.402 137.162 234.827L216 30Z" fill="#D9D9D9"/>
<path d="M260.194 144.818L232.196 155.594C235.068 163.055 240.798 169.061 248.116 172.28C255.435 175.498 263.734 175.662 271.174 172.736L260.194 144.818ZM216 30L243.998 19.2237C239.54 7.64156 228.41 0 216 0C203.59 0 192.46 7.64157 188.002 19.2237L216 30ZM478.937 144.478L468.044 172.43C475.477 175.327 483.759 175.144 491.057 171.921C498.355 168.698 504.069 162.7 506.935 155.254L478.937 144.478ZM523 30L550.998 19.2237C546.54 7.64157 535.41 0 523 0C510.59 0 499.46 7.64157 495.002 19.2237L523 30ZM600.955 232.532L572.957 243.308C574.126 246.346 575.782 249.173 577.859 251.679L600.955 232.532ZM635.855 285L609.27 298.9C614.444 308.797 624.688 315 635.855 315V285ZM666 285H696C696 268.431 682.569 255 666 255V285ZM659.711 346.105L630.34 339.995C629.383 344.596 629.52 349.357 630.74 353.895L659.711 346.105ZM670 424V454C686.569 454 700 440.569 700 424H670ZM631.855 424V394C620.687 394 610.444 400.203 605.27 410.1L631.855 424ZM578.132 497.132L599.345 518.345V518.345L578.132 497.132ZM508.634 548.924L494.37 522.531C481.533 529.469 475.55 544.637 480.193 558.47L508.634 548.924ZM594.517 804.781L566.076 814.327C567.874 819.683 571.147 824.422 575.52 828L594.517 804.781ZM666.89 780.068L696.126 786.795C698.032 778.511 696.335 769.808 691.455 762.848C686.576 755.887 678.973 751.324 670.536 750.291L666.89 780.068ZM566.075 670.927V640.927C557.896 640.927 550.072 644.267 544.413 650.172C538.755 656.078 535.753 664.038 536.103 672.21L566.075 670.927ZM566.839 670.927V700.927C577.558 700.927 587.463 695.208 592.821 685.925C598.18 676.641 598.178 665.204 592.817 655.922L566.839 670.927ZM566.242 669.894L551.423 643.81C544.473 647.758 539.386 654.317 537.291 662.032C535.196 669.746 536.266 677.977 540.264 684.899L566.242 669.894ZM712.701 697.902L689.332 716.714C694.656 723.328 702.534 727.376 711.011 727.854C719.489 728.332 727.772 725.196 733.806 719.223L712.701 697.902ZM659.275 626.516L633.297 641.521C641.473 655.675 659.475 660.68 673.782 652.775L659.275 626.516ZM659.144 626.289L685.121 611.284C677.245 597.648 660.166 592.422 646.009 599.317L659.144 626.289ZM648.386 629.523L652.302 659.266L652.302 659.266L648.386 629.523ZM634.757 628.629L626.993 657.607H626.993L634.757 628.629ZM613.502 612.32L639.483 597.32L639.483 597.32L613.502 612.32ZM609.112 599.386L579.369 603.302L579.369 603.302L609.112 599.386ZM616.046 573.508L592.246 555.245L592.246 555.245L616.046 573.508ZM626.315 564.502L652.296 549.502C648.318 542.612 641.765 537.584 634.08 535.525C626.394 533.465 618.205 534.543 611.315 538.522L626.315 564.502ZM626.417 564.679L600.436 579.679C608.554 593.74 626.385 598.791 640.671 591.077L626.417 564.679ZM737.996 765.86L723.124 739.806C713.444 745.331 707.626 755.767 708.015 766.906L737.996 765.86ZM605.431 883.607L609.976 853.953C598.89 852.254 587.783 856.88 581.18 865.946L605.431 883.607ZM121.679 851.862L150.12 861.409L121.679 851.862ZM145.233 781.693L173.673 791.24C176.411 783.084 175.515 774.144 171.214 766.693L145.233 781.693ZM37 594.229L62.9808 579.229H62.9808L37 594.229ZM55.3013 525.927L70.3013 551.908L55.3013 525.927ZM123.603 544.229L97.6218 559.229H97.6218L123.603 544.229ZM187.685 655.223L161.704 670.223C167.602 680.438 178.939 686.249 190.676 685.073C202.413 683.897 212.372 675.952 216.126 664.769L187.685 655.223ZM223.366 548.924L251.807 558.47C256.45 544.637 250.467 529.469 237.63 522.531L223.366 548.924ZM153.868 497.132L175.081 475.919H175.081L153.868 497.132ZM100.145 424L126.73 410.1C121.556 400.203 111.312 394 100.145 394V424ZM70 424H40C40 440.569 53.4315 454 70 454V424ZM76.289 362.895L105.66 369.005C106.617 364.404 106.48 359.643 105.26 355.105L76.289 362.895ZM66 285V255C49.4315 255 36 268.431 36 285H66ZM104.145 285V315C115.313 315 125.556 308.797 130.73 298.9L104.145 285ZM137.162 234.827L160.446 253.744C162.436 251.295 164.026 248.548 165.16 245.603L137.162 234.827ZM288.191 134.042L243.998 19.2237L188.002 40.7763L232.196 155.594L288.191 134.042ZM370 94C328.641 94 287.669 101.775 249.213 116.9L271.174 172.736C302.638 160.361 336.161 154 370 154V94ZM489.831 116.526C451.652 101.646 411.016 94 370 94V154C403.559 154 436.807 160.256 468.044 172.43L489.831 116.526ZM495.002 19.2237L450.94 133.702L506.935 155.254L550.998 40.7763L495.002 19.2237ZM628.952 221.756L550.998 19.2237L495.002 40.7763L572.957 243.308L628.952 221.756ZM662.441 271.1C651.705 250.566 638.837 231.221 624.05 213.385L577.859 251.679C589.957 266.272 600.486 282.1 609.27 298.9L662.441 271.1ZM666 255H635.855V315H666V255ZM689.082 352.216C693.671 330.159 696 307.638 696 285H636C636 303.522 634.094 321.948 630.34 339.995L689.082 352.216ZM700 424C700 395.004 696.179 366.198 688.682 338.316L630.74 353.895C636.873 376.708 640 400.276 640 424H700ZM631.855 454H670V394H631.855V454ZM599.345 518.345C623.049 494.642 642.961 467.506 658.441 437.9L605.27 410.1C592.605 434.323 576.313 456.525 556.919 475.919L599.345 518.345ZM522.897 575.316C550.951 560.155 576.712 540.978 599.345 518.345L556.919 475.919C538.401 494.437 517.323 510.127 494.37 522.531L522.897 575.316ZM622.957 795.234L537.074 539.377L480.193 558.47L566.076 814.327L622.957 795.234ZM623.014 784.941C619.375 784.941 616.112 783.687 613.514 781.562L575.52 828C588.446 838.575 605.027 844.941 623.014 844.941V784.941ZM637.654 773.342C636.125 779.989 630.119 784.941 623.014 784.941V844.941C658.67 844.941 688.464 820.099 696.126 786.795L637.654 773.342ZM536.103 672.21C539.152 743.456 593.555 801.315 663.245 809.846L670.536 750.291C629.719 745.294 597.832 711.32 596.048 669.644L536.103 672.21ZM566.839 640.927H566.075V700.927H566.839V640.927ZM540.264 684.899L540.861 685.932L592.817 655.922L592.22 654.889L540.264 684.899ZM623.014 624.941C597.039 624.941 572.573 631.793 551.423 643.81L581.062 695.978C593.414 688.96 607.699 684.941 623.014 684.941V624.941ZM736.07 679.09C709.529 646.121 668.734 624.941 623.014 624.941V684.941C649.81 684.941 673.696 697.29 689.332 716.714L736.07 679.09ZM696.043 665.927C696.043 670.098 694.377 673.828 691.596 676.581L733.806 719.223C747.502 705.665 756.043 686.767 756.043 665.927H696.043ZM681.022 650.927C689.331 650.927 696.043 657.656 696.043 665.927H756.043C756.043 624.493 722.442 590.927 681.022 590.927V650.927ZM673.782 652.775C675.9 651.605 678.336 650.927 681.022 650.927V590.927C667.933 590.927 655.543 594.304 644.768 600.257L673.782 652.775ZM633.166 641.294L633.297 641.521L685.253 611.511L685.121 611.284L633.166 641.294ZM652.302 659.266C659.251 658.351 665.995 656.32 672.279 653.26L646.009 599.317C645.525 599.553 645.006 599.709 644.471 599.779L652.302 659.266ZM626.993 657.607C635.239 659.817 643.839 660.38 652.302 659.266L644.471 599.779C643.819 599.865 643.157 599.822 642.522 599.652L626.993 657.607ZM604.245 646.389C611.018 651.586 618.747 655.398 626.993 657.607L642.522 599.652C641.887 599.482 641.292 599.188 640.771 598.788L604.245 646.389ZM587.521 627.32C591.79 634.712 597.472 641.192 604.245 646.389L640.771 598.788C640.249 598.388 639.812 597.889 639.483 597.32L587.521 627.32ZM579.369 603.302C580.483 611.766 583.253 619.927 587.522 627.32L639.483 597.32C639.155 596.751 638.941 596.122 638.855 595.47L579.369 603.302ZM581.028 577.993C578.818 586.239 578.255 594.839 579.369 603.302L638.855 595.471C638.77 594.819 638.813 594.157 638.983 593.522L581.028 577.993ZM592.246 555.245C587.049 562.018 583.237 569.747 581.028 577.993L638.983 593.522C639.153 592.887 639.447 592.292 639.847 591.771L592.246 555.245ZM611.315 538.522C603.922 542.79 597.442 548.473 592.246 555.245L639.847 591.771C640.247 591.249 640.746 590.812 641.315 590.483L611.315 538.522ZM652.398 549.679L652.296 549.502L600.334 579.502L600.436 579.679L652.398 549.679ZM681.022 520.927C656.163 520.927 632.681 527.203 612.164 538.281L640.671 591.077C652.646 584.61 666.359 580.927 681.022 580.927V520.927ZM826.075 665.927C826.075 585.833 761.12 520.927 681.022 520.927V580.927C728.009 580.927 766.075 618.996 766.075 665.927H826.075ZM752.869 791.914C796.53 766.991 826.075 719.93 826.075 665.927H766.075C766.075 697.512 748.851 725.12 723.124 739.806L752.869 791.914ZM768.068 769.941C768.068 768.227 768.038 766.517 767.978 764.813L708.015 766.906C708.05 767.912 708.068 768.924 708.068 769.941H768.068ZM623.014 914.941C703.112 914.941 768.068 850.036 768.068 769.941H708.068C708.068 816.872 670.001 854.941 623.014 854.941V914.941ZM600.885 913.261C608.117 914.369 615.508 914.941 623.014 914.941V854.941C618.563 854.941 614.21 854.602 609.976 853.953L600.885 913.261ZM577.14 928C599.182 928 618.112 917.154 629.681 901.268L581.18 865.946C580.686 866.624 580.076 867.137 579.444 867.469C578.859 867.776 578.13 868 577.14 868V928ZM154.86 928H577.14V868H154.86V928ZM93.2389 842.316C79.1024 884.43 110.436 928 154.86 928V868C151.443 868 149.032 864.648 150.12 861.409L93.2389 842.316ZM116.792 772.147L93.2389 842.316L150.12 861.409L173.673 791.24L116.792 772.147ZM11.0192 609.229L119.252 796.693L171.214 766.693L62.9808 579.229L11.0192 609.229ZM40.3013 499.947C2.03787 522.038 -11.0722 570.965 11.0192 609.229L62.9808 579.229C57.4579 569.663 60.7354 557.431 70.3013 551.908L40.3013 499.947ZM149.583 529.229C127.492 490.965 78.5647 477.855 40.3013 499.947L70.3013 551.908C79.8671 546.385 92.0989 549.663 97.6218 559.229L149.583 529.229ZM213.666 640.223L149.583 529.229L97.6218 559.229L161.704 670.223L213.666 640.223ZM194.926 539.377L159.245 645.676L216.126 664.769L251.807 558.47L194.926 539.377ZM132.655 518.345C155.288 540.978 181.049 560.155 209.103 575.316L237.63 522.531C214.677 510.127 193.599 494.437 175.081 475.919L132.655 518.345ZM73.5592 437.9C89.0385 467.506 108.951 494.642 132.655 518.345L175.081 475.919C155.687 456.525 139.395 434.323 126.73 410.1L73.5592 437.9ZM70 454H100.145V394H70V454ZM46.9179 356.784C42.3292 378.841 40 401.362 40 424H100C100 405.478 101.906 387.052 105.66 369.005L46.9179 356.784ZM36 285C36 313.996 39.8213 342.802 47.3179 370.684L105.26 355.105C99.1265 332.292 96 308.724 96 285H36ZM104.145 255H66V315H104.145V255ZM113.878 215.909C99.9588 233.042 87.7906 251.531 77.5593 271.1L130.73 298.9C139.101 282.889 149.057 267.761 160.446 253.744L113.878 215.909ZM188.002 19.2237L109.164 224.05L165.16 245.603L243.998 40.7763L188.002 19.2237Z" fill="#D9D9D9" mask="url(#path-1-outside-1_0_1)"/>
<g filter="url(#filter0_d_0_1)">
<path d="M216 30L302.603 255H129.397L216 30Z" fill="#1E242F"/>
</g>
<g filter="url(#filter1_d_0_1)">
<path d="M523 30L609.603 255H436.397L523 30Z" fill="#1E242F"/>
</g>
<g filter="url(#filter2_d_0_1)">
<path fill-rule="evenodd" clip-rule="evenodd" d="M508.068 774.941C510.687 836.134 561.148 884.941 623.014 884.941C686.556 884.941 738.068 833.454 738.068 769.941C738.068 706.429 686.556 654.941 623.014 654.941C602.369 654.941 582.993 660.377 566.242 669.894L601.267 730.53C607.714 726.969 615.127 724.941 623.014 724.941C647.878 724.941 668.035 745.089 668.035 769.941C668.035 794.794 647.878 814.941 623.014 814.941C599.841 814.941 580.756 797.441 578.268 774.941H508.068Z" fill="black"/>
</g>
<g filter="url(#filter3_d_0_1)">
<line x1="80.3013" y1="569.229" x2="230.329" y2="829.083" stroke="black" stroke-width="100" stroke-linecap="round"/>
</g>
<g filter="url(#filter4_d_0_1)">
<path d="M332.819 222.849C343.499 191.033 388.501 191.033 399.181 222.849L610.321 851.862C617.933 874.539 601.06 898 577.14 898H154.86C130.939 898 114.067 874.539 121.679 851.862L332.819 222.849Z" fill="#1E242F"/>
</g>
<g filter="url(#filter5_d_0_1)">
<path d="M666 285C666 324.397 658.24 363.407 643.164 399.805C628.087 436.203 605.99 469.274 578.132 497.132C550.274 524.99 517.203 547.087 480.805 562.164C444.407 577.24 405.397 585 366 585C326.603 585 287.593 577.24 251.195 562.164C214.797 547.087 181.726 524.99 153.868 497.132C126.01 469.274 103.913 436.203 88.8361 399.805C73.7597 363.407 66 324.397 66 285L366 285H666Z" fill="black"/>
</g>
<g filter="url(#filter6_d_0_1)">
<path d="M70 424C70 384.603 77.7597 345.593 92.8361 309.195C107.913 272.797 130.01 239.726 157.868 211.868C185.726 184.01 218.797 161.913 255.195 146.836C291.593 131.76 330.603 124 370 124C409.397 124 448.407 131.76 484.805 146.836C521.203 161.913 554.274 184.01 582.132 211.868C609.99 239.726 632.087 272.797 647.164 309.195C662.24 345.593 670 384.603 670 424L370 424H70Z" fill="black"/>
</g>
<g filter="url(#filter7_d_0_1)">
<path d="M661.32 625.132C657.339 627.431 652.944 628.923 648.386 629.523C643.829 630.123 639.198 629.819 634.758 628.629C630.317 627.44 626.155 625.387 622.508 622.589C618.861 619.79 615.801 616.301 613.502 612.32C611.204 608.339 609.712 603.944 609.112 599.386C608.512 594.829 608.816 590.198 610.005 585.757C611.195 581.317 613.248 577.155 616.046 573.508C618.845 569.861 622.334 566.801 626.315 564.502L643.817 594.817L661.32 625.132Z" fill="black"/>
</g>
<g filter="url(#filter8_d_0_1)">
<path fill-rule="evenodd" clip-rule="evenodd" d="M566.075 670.927C568.694 732.12 619.156 780.927 681.022 780.927C744.564 780.927 796.075 729.44 796.075 665.927C796.075 602.415 744.564 550.927 681.022 550.927C660.377 550.927 641.001 556.363 624.25 565.88L659.275 626.516C665.721 622.954 673.135 620.927 681.022 620.927C705.886 620.927 726.043 641.074 726.043 665.927C726.043 690.78 705.886 710.927 681.022 710.927C657.848 710.927 638.764 693.427 636.276 670.927H566.075Z" fill="black"/>
</g>
<g filter="url(#filter9_d_0_1)">
<path fill-rule="evenodd" clip-rule="evenodd" d="M160 308.07C176.8 298.48 196.249 293 216.977 293C279.184 293 329.865 342.35 332.004 404.036C315.204 413.626 295.755 419.106 275.026 419.106C212.819 419.106 162.139 369.755 160 308.07Z" fill="#D9D9D9"/>
</g>
<g filter="url(#filter10_d_0_1)">
<mask id="mask0_0_1" style="mask-type:alpha" maskUnits="userSpaceOnUse" x="160" y="293" width="173" height="127">
<path fill-rule="evenodd" clip-rule="evenodd" d="M160 308.07C176.8 298.48 196.249 293 216.977 293C279.184 293 329.865 342.35 332.004 404.036C315.204 413.626 295.755 419.106 275.026 419.106C212.819 419.106 162.139 369.755 160 308.07Z" fill="#D9D9D9"/>
</mask>
<g mask="url(#mask0_0_1)">
<path fill-rule="evenodd" clip-rule="evenodd" d="M198.019 442.055C188.429 425.255 182.949 405.806 182.949 385.077C182.949 322.87 232.299 272.19 293.985 270.051C303.575 286.851 309.055 306.3 309.055 327.029C309.055 389.235 259.704 439.916 198.019 442.055Z" fill="#1E242F"/>
</g>
</g>
<g filter="url(#filter11_d_0_1)">
<path fill-rule="evenodd" clip-rule="evenodd" d="M571 313.321C554.201 304.207 534.752 299 514.024 299C451.818 299 401.139 345.897 399 404.517C415.799 413.63 435.248 418.838 455.976 418.838C518.182 418.838 568.861 371.94 571 313.321Z" fill="#D9D9D9"/>
</g>
<g filter="url(#filter12_d_0_1)">
<mask id="mask1_0_1" style="mask-type:alpha" maskUnits="userSpaceOnUse" x="399" y="299" width="172" height="120">
<path fill-rule="evenodd" clip-rule="evenodd" d="M571 313.321C554.201 304.207 534.752 299 514.024 299C451.818 299 401.139 345.897 399 404.517C415.799 413.63 435.248 418.838 455.976 418.838C518.182 418.838 568.861 371.94 571 313.321Z" fill="#D9D9D9"/>
</mask>
<g mask="url(#mask1_0_1)">
<path fill-rule="evenodd" clip-rule="evenodd" d="M530.598 444.919C539.711 428.12 544.919 408.671 544.919 387.943C544.919 325.737 498.021 275.058 439.402 272.919C430.289 289.718 425.081 309.167 425.081 329.895C425.081 392.101 471.979 442.78 530.598 444.919Z" fill="#1E242F"/>
</g>
</g>
<g filter="url(#filter13_d_0_1)">
<circle cx="45.6579" cy="571.763" r="10.6579" fill="#D9D9D9"/>
<circle cx="86.1579" cy="583.842" r="29.8421" fill="#D9D9D9"/>
<circle cx="75.5" cy="537.658" r="10.6579" fill="#D9D9D9"/>
<circle cx="54.1842" cy="547.605" r="10.6579" fill="#D9D9D9"/>
<circle cx="99.6579" cy="543.342" r="10.6579" fill="#D9D9D9"/>
</g>
<defs>
<filter id="filter0_d_0_1" x="129.397" y="30" width="173.205" height="225" filterUnits="userSpaceOnUse" color-interpolation-filters="sRGB">
<feFlood flood-opacity="0" result="BackgroundImageFix"/>
<feColorMatrix in="SourceAlpha" type="matrix" values="0 0 0 0 0 0 0 0 0 0 0 0 0 0 0 0 0 0 127 0" result="hardAlpha"/>
<feOffset/>
<feComposite in2="hardAlpha" operator="out"/>
<feColorMatrix type="matrix" values="0 0 0 0 1 0 0 0 0 1 0 0 0 0 1 0 0 0 0.25 0"/>
<feBlend mode="normal" in2="BackgroundImageFix" result="effect1_dropShadow_0_1"/>
<feBlend mode="normal" in="SourceGraphic" in2="effect1_dropShadow_0_1" result="shape"/>
</filter>
<filter id="filter1_d_0_1" x="436.397" y="30" width="173.205" height="225" filterUnits="userSpaceOnUse" color-interpolation-filters="sRGB">
<feFlood flood-opacity="0" result="BackgroundImageFix"/>
<feColorMatrix in="SourceAlpha" type="matrix" values="0 0 0 0 0 0 0 0 0 0 0 0 0 0 0 0 0 0 127 0" result="hardAlpha"/>
<feOffset/>
<feComposite in2="hardAlpha" operator="out"/>
<feColorMatrix type="matrix" values="0 0 0 0 1 0 0 0 0 1 0 0 0 0 1 0 0 0 0.25 0"/>
<feBlend mode="normal" in2="BackgroundImageFix" result="effect1_dropShadow_0_1"/>
<feBlend mode="normal" in="SourceGraphic" in2="effect1_dropShadow_0_1" result="shape"/>
</filter>
<filter id="filter2_d_0_1" x="508.068" y="654.941" width="230" height="230" filterUnits="userSpaceOnUse" color-interpolation-filters="sRGB">
<feFlood flood-opacity="0" result="BackgroundImageFix"/>
<feColorMatrix in="SourceAlpha" type="matrix" values="0 0 0 0 0 0 0 0 0 0 0 0 0 0 0 0 0 0 127 0" result="hardAlpha"/>
<feOffset/>
<feComposite in2="hardAlpha" operator="out"/>
<feColorMatrix type="matrix" values="0 0 0 0 1 0 0 0 0 1 0 0 0 0 1 0 0 0 0.25 0"/>
<feBlend mode="normal" in2="BackgroundImageFix" result="effect1_dropShadow_0_1"/>
<feBlend mode="normal" in="SourceGraphic" in2="effect1_dropShadow_0_1" result="shape"/>
</filter>
<filter id="filter3_d_0_1" x="30.2929" y="519.22" width="250.044" height="359.871" filterUnits="userSpaceOnUse" color-interpolation-filters="sRGB">
<feFlood flood-opacity="0" result="BackgroundImageFix"/>
<feColorMatrix in="SourceAlpha" type="matrix" values="0 0 0 0 0 0 0 0 0 0 0 0 0 0 0 0 0 0 127 0" result="hardAlpha"/>
<feOffset/>
<feComposite in2="hardAlpha" operator="out"/>
<feColorMatrix type="matrix" values="0 0 0 0 1 0 0 0 0 1 0 0 0 0 1 0 0 0 0.25 0"/>
<feBlend mode="normal" in2="BackgroundImageFix" result="effect1_dropShadow_0_1"/>
<feBlend mode="normal" in="SourceGraphic" in2="effect1_dropShadow_0_1" result="shape"/>
</filter>
<filter id="filter4_d_0_1" x="119.833" y="198.987" width="492.334" height="699.013" filterUnits="userSpaceOnUse" color-interpolation-filters="sRGB">
<feFlood flood-opacity="0" result="BackgroundImageFix"/>
<feColorMatrix in="SourceAlpha" type="matrix" values="0 0 0 0 0 0 0 0 0 0 0 0 0 0 0 0 0 0 127 0" result="hardAlpha"/>
<feOffset/>
<feComposite in2="hardAlpha" operator="out"/>
<feColorMatrix type="matrix" values="0 0 0 0 1 0 0 0 0 1 0 0 0 0 1 0 0 0 0.25 0"/>
<feBlend mode="normal" in2="BackgroundImageFix" result="effect1_dropShadow_0_1"/>
<feBlend mode="normal" in="SourceGraphic" in2="effect1_dropShadow_0_1" result="shape"/>
</filter>
<filter id="filter5_d_0_1" x="66" y="285" width="600" height="300" filterUnits="userSpaceOnUse" color-interpolation-filters="sRGB">
<feFlood flood-opacity="0" result="BackgroundImageFix"/>
<feColorMatrix in="SourceAlpha" type="matrix" values="0 0 0 0 0 0 0 0 0 0 0 0 0 0 0 0 0 0 127 0" result="hardAlpha"/>
<feOffset/>
<feComposite in2="hardAlpha" operator="out"/>
<feColorMatrix type="matrix" values="0 0 0 0 1 0 0 0 0 1 0 0 0 0 1 0 0 0 0.25 0"/>
<feBlend mode="normal" in2="BackgroundImageFix" result="effect1_dropShadow_0_1"/>
<feBlend mode="normal" in="SourceGraphic" in2="effect1_dropShadow_0_1" result="shape"/>
</filter>
<filter id="filter6_d_0_1" x="70" y="124" width="600" height="300" filterUnits="userSpaceOnUse" color-interpolation-filters="sRGB">
<feFlood flood-opacity="0" result="BackgroundImageFix"/>
<feColorMatrix in="SourceAlpha" type="matrix" values="0 0 0 0 0 0 0 0 0 0 0 0 0 0 0 0 0 0 127 0" result="hardAlpha"/>
<feOffset/>
<feComposite in2="hardAlpha" operator="out"/>
<feColorMatrix type="matrix" values="0 0 0 0 1 0 0 0 0 1 0 0 0 0 1 0 0 0 0.25 0"/>
<feBlend mode="normal" in2="BackgroundImageFix" result="effect1_dropShadow_0_1"/>
<feBlend mode="normal" in="SourceGraphic" in2="effect1_dropShadow_0_1" result="shape"/>
</filter>
<filter id="filter7_d_0_1" x="608.813" y="564.502" width="52.5071" height="65.3198" filterUnits="userSpaceOnUse" color-interpolation-filters="sRGB">
<feFlood flood-opacity="0" result="BackgroundImageFix"/>
<feColorMatrix in="SourceAlpha" type="matrix" values="0 0 0 0 0 0 0 0 0 0 0 0 0 0 0 0 0 0 127 0" result="hardAlpha"/>
<feOffset/>
<feComposite in2="hardAlpha" operator="out"/>
<feColorMatrix type="matrix" values="0 0 0 0 1 0 0 0 0 1 0 0 0 0 1 0 0 0 0.25 0"/>
<feBlend mode="normal" in2="BackgroundImageFix" result="effect1_dropShadow_0_1"/>
<feBlend mode="normal" in="SourceGraphic" in2="effect1_dropShadow_0_1" result="shape"/>
</filter>
<filter id="filter8_d_0_1" x="566.075" y="550.927" width="230" height="230" filterUnits="userSpaceOnUse" color-interpolation-filters="sRGB">
<feFlood flood-opacity="0" result="BackgroundImageFix"/>
<feColorMatrix in="SourceAlpha" type="matrix" values="0 0 0 0 0 0 0 0 0 0 0 0 0 0 0 0 0 0 127 0" result="hardAlpha"/>
<feOffset/>
<feComposite in2="hardAlpha" operator="out"/>
<feColorMatrix type="matrix" values="0 0 0 0 1 0 0 0 0 1 0 0 0 0 1 0 0 0 0.25 0"/>
<feBlend mode="normal" in2="BackgroundImageFix" result="effect1_dropShadow_0_1"/>
<feBlend mode="normal" in="SourceGraphic" in2="effect1_dropShadow_0_1" result="shape"/>
</filter>
<filter id="filter9_d_0_1" x="160" y="293" width="172.004" height="126.106" filterUnits="userSpaceOnUse" color-interpolation-filters="sRGB">
<feFlood flood-opacity="0" result="BackgroundImageFix"/>
<feColorMatrix in="SourceAlpha" type="matrix" values="0 0 0 0 0 0 0 0 0 0 0 0 0 0 0 0 0 0 127 0" result="hardAlpha"/>
<feOffset/>
<feComposite in2="hardAlpha" operator="out"/>
<feColorMatrix type="matrix" values="0 0 0 0 1 0 0 0 0 1 0 0 0 0 1 0 0 0 0.25 0"/>
<feBlend mode="normal" in2="BackgroundImageFix" result="effect1_dropShadow_0_1"/>
<feBlend mode="normal" in="SourceGraphic" in2="effect1_dropShadow_0_1" result="shape"/>
</filter>
<filter id="filter10_d_0_1" x="182.949" y="293" width="126.106" height="126.106" filterUnits="userSpaceOnUse" color-interpolation-filters="sRGB">
<feFlood flood-opacity="0" result="BackgroundImageFix"/>
<feColorMatrix in="SourceAlpha" type="matrix" values="0 0 0 0 0 0 0 0 0 0 0 0 0 0 0 0 0 0 127 0" result="hardAlpha"/>
<feOffset/>
<feComposite in2="hardAlpha" operator="out"/>
<feColorMatrix type="matrix" values="0 0 0 0 1 0 0 0 0 1 0 0 0 0 1 0 0 0 0.25 0"/>
<feBlend mode="normal" in2="BackgroundImageFix" result="effect1_dropShadow_0_1"/>
<feBlend mode="normal" in="SourceGraphic" in2="effect1_dropShadow_0_1" result="shape"/>
</filter>
<filter id="filter11_d_0_1" x="399" y="299" width="172" height="119.838" filterUnits="userSpaceOnUse" color-interpolation-filters="sRGB">
<feFlood flood-opacity="0" result="BackgroundImageFix"/>
<feColorMatrix in="SourceAlpha" type="matrix" values="0 0 0 0 0 0 0 0 0 0 0 0 0 0 0 0 0 0 127 0" result="hardAlpha"/>
<feOffset/>
<feComposite in2="hardAlpha" operator="out"/>
<feColorMatrix type="matrix" values="0 0 0 0 1 0 0 0 0 1 0 0 0 0 1 0 0 0 0.25 0"/>
<feBlend mode="normal" in2="BackgroundImageFix" result="effect1_dropShadow_0_1"/>
<feBlend mode="normal" in="SourceGraphic" in2="effect1_dropShadow_0_1" result="shape"/>
</filter>
<filter id="filter12_d_0_1" x="425.081" y="299" width="119.838" height="119.838" filterUnits="userSpaceOnUse" color-interpolation-filters="sRGB">
<feFlood flood-opacity="0" result="BackgroundImageFix"/>
<feColorMatrix in="SourceAlpha" type="matrix" values="0 0 0 0 0 0 0 0 0 0 0 0 0 0 0 0 0 0 127 0" result="hardAlpha"/>
<feOffset/>
<feComposite in2="hardAlpha" operator="out"/>
<feColorMatrix type="matrix" values="0 0 0 0 1 0 0 0 0 1 0 0 0 0 1 0 0 0 0.25 0"/>
<feBlend mode="normal" in2="BackgroundImageFix" result="effect1_dropShadow_0_1"/>
<feBlend mode="normal" in="SourceGraphic" in2="effect1_dropShadow_0_1" result="shape"/>
</filter>
<filter id="filter13_d_0_1" x="35" y="527" width="81" height="86.6842" filterUnits="userSpaceOnUse" color-interpolation-filters="sRGB">
<feFlood flood-opacity="0" result="BackgroundImageFix"/>
<feColorMatrix in="SourceAlpha" type="matrix" values="0 0 0 0 0 0 0 0 0 0 0 0 0 0 0 0 0 0 127 0" result="hardAlpha"/>
<feOffset/>
<feComposite in2="hardAlpha" operator="out"/>
<feColorMatrix type="matrix" values="0 0 0 0 1 0 0 0 0 1 0 0 0 0 1 0 0 0 0.25 0"/>
<feBlend mode="normal" in2="BackgroundImageFix" result="effect1_dropShadow_0_1"/>
<feBlend mode="normal" in="SourceGraphic" in2="effect1_dropShadow_0_1" result="shape"/>
</filter>
</defs>
</svg>
